<?xml version="1.0" standalone="no"?>
<!DOCTYPE svg PUBLIC "-//W3C//DTD SVG 1.1//EN" "http://www.w3.org/Graphics/SVG/1.1/DTD/svg11.dtd" >
<svg>
<metadata>
Created by FontForge 20090914 at Mon Mar  4 21:44:31 2019
 By www-data
Copyright (c) 2006 Parachute&#194;&#168;, www.parachute.gr.  All rights reserved.
</metadata>
<defs>
<font id="PFSynchPro-Bold" horiz-adv-x="591" >
  <font-face 
    font-family="PF Synch Pro"
    font-weight="700"
    font-stretch="normal"
    units-per-em="1000"
    panose-1="2 0 8 0 0 0 0 2 0 4"
    ascent="750"
    descent="-250"
    x-height="501"
    cap-height="708"
    bbox="-227 -276 1225 986"
    underline-thickness="50"
    underline-position="-50"
    unicode-range="U+0020-U+FB05"
  />
<missing-glyph horiz-adv-x="440" 
d="M0 700h440v-700h-440v700zM360 650h-280l140 -255zM390 95v510l-140 -255zM360 50l-140 255l-140 -255h280zM50 95l140 255l-140 255v-510z" />
    <glyph glyph-name="fj" unicode="fj" horiz-adv-x="607" 
d="M391 377h-161.001v-254h54v-123h-249v123h47v254h-47v123h47v89c0 14.667 1.33301 28.167 4 40.5s7.83398 23.5 15.501 33.5s18 18.833 31 26.5s29.833 13.5 50.5 17.5l261 48l24 -135l-238 -41v-78h309v-545c0 -44 -10.833 -77.333 -32.5 -100s-53.5 -34 -95.5 -34h-128
v124h108v431z" />
    <glyph glyph-name="ffj" unicode="ffj" horiz-adv-x="920" 
d="M35 500l47.001 0.000976562v89c0 32 7 57.667 21 77s40.333 33 79 41l165 30l71 -41c8 8.66699 18.167 16.167 30.5 22.5s27.5 11.166 45.5 14.499l261 48c4.66699 -22.667 9 -45.167 13 -67.5l12 -67.5l-119 -20l-119 -21v-104h309v-517c0 -19.333 -1 -38 -3 -56
c-4.66699 -34 -17.334 -60.167 -38.001 -78.5s-49.667 -27.5 -87 -27.5h-127v124h107v431h-161v-255h54v-122h-243v122h41v255h-164v-255h47v-122h-242v122h47v255h-47v123zM394.001 588.001c0 7.33301 0.333008 12.667 1 16s1.66699 7 3 11l-168 -34v-81h164v88z" />
    <glyph glyph-name="ff" unicode="ff" horiz-adv-x="696" 
d="M232 377v-255h47v-122h-242v122h47v255h-47v123h47v88c0 30 6.66699 55.167 20 75.5s40 34.5 80 42.5l82.5 15.5l82.5 15.5l71 -41c8 8.66699 18.167 16 30.5 22s27.833 10.667 46.5 14l201 37l24 -131l-89 -15.5l-89 -15.5v-107h116v-123h-116v-255h54v-122h-249v122h47
v255h-164zM232 500l164 0.000976562v88c0 7.33301 0.333008 12.666 1 15.999s1.66699 7 3 11l-168 -34v-81z" />
    <glyph glyph-name="fi" unicode="fi" horiz-adv-x="625" 
d="M539 123h50.999v-123h-244v123h45v254h-161v-254h48v-123h-243v123h47v254h-47v123h47v89c0 14.667 1.33301 28.167 4 40.5s7.83398 23.5 15.501 33.5s18 18.833 31 26.5s29.833 13.5 50.5 17.5l261 48l24 -135l-238 -41v-78h309v-378z" />
    <glyph glyph-name="fl" unicode="fl" horiz-adv-x="630" 
d="M539 122l50.999 0.000976562v-122h-240v122h41v473l-161 -28v-67h101v-123h-101v-254h50v-123h-243v123h45v254h-50v123h50v75c0 14.667 1.33301 28.334 4 41.001s7.83398 24.167 15.501 34.5s18 19.166 31 26.499s29.833 12.666 50.5 15.999l161 29v32h195v-632z" />
    <glyph glyph-name="ffi" unicode="ffi" horiz-adv-x="930" 
d="M902 122l-0.00195312 -121.999h-244v122h45v255h-161v-255h54v-122h-243v122h41v255h-164v-255h47v-122h-242v122h47v255h-47v123h47v94v9.5c0 3 0.333008 6.16699 1 9.5c3.33301 26 12.333 46.5 27 61.5s38.667 25.5 72 31.5l165 31l71 -41
c8 8.66699 18.167 16.167 30.5 22.5s27.5 11.166 45.5 14.499l29 5l116 21.5l116 21.5c4.66699 -22.667 8.83398 -45.167 12.501 -67.5s7.83398 -44.833 12.501 -67.5l-238 -41v-104h309v-379h51zM229.998 500.001l164 0.000976562v88c0 7.33301 0.333008 12.666 1 15.999
s1.66699 7 3 11l-168 -34v-81z" />
    <glyph glyph-name="ffl" unicode="ffl" horiz-adv-x="942" 
d="M655 745v31.9971c32.667 0 65.167 0.166992 97.5 0.5s64.833 0.5 97.5 0.5v-657h51v-121h-239v121h40v498l-80.5 -13.5c-26.333 -4.33301 -53.166 -9.16602 -80.499 -14.499v-91h101v-123h-101v-255h50v-122h-244v122h46v255h-161v-255h47v-122h-242v122h47v255h-47v123
h47v78c0.666992 14 2.66699 27.167 6 39.5s8.66602 23.333 15.999 33s17.333 17.834 30 24.501s28.667 12 48 16l165 30l34.5 -19.5c11.667 -6.33301 23.167 -13.166 34.5 -20.499c15.333 17.333 40.333 29.333 75 36zM232 499.997l161 0.000976562v84
c0 7.33301 0.333008 12.666 1 15.999s1.66699 7 3 11l-166 -26z" />
    <glyph glyph-name="ft" unicode="ft" horiz-adv-x="743" 
d="M514 0c-23.333 0 -42.833 3.66602 -58.5 10.999s-28.334 16.833 -38.001 28.5s-16.667 25 -21 40s-6.5 30.167 -6.5 45.5v253h-157v-255h54v-123h-250v123h47v255h-47v123h47v101c0 14.667 1.33301 28.334 4 41.001s7.83398 24.167 15.501 34.5s18 19.166 31 26.499
s29.833 12.666 50.5 15.999l182 34l25 -132l-159 -28v-93h157v49l57 65h92v-114h137v-123h-137v-255h105v64h89v-90c0 -11.333 -2.66699 -22.666 -8 -33.999s-12.833 -21.666 -22.5 -30.999s-21.167 -17 -34.5 -23s-28 -9 -44 -9h-110z" />
    <glyph glyph-name=".notdef" horiz-adv-x="440" 
d="M0 700h440v-700h-440v700zM360 650h-280l140 -255zM390 95v510l-140 -255zM360 50l-140 255l-140 -255h280zM50 95l140 255l-140 255v-510z" />
    <glyph glyph-name="space" unicode=" " horiz-adv-x="280" 
 />
    <glyph glyph-name="exclam" unicode="!" horiz-adv-x="325" 
d="M110 213l-20 169v326h146v-331l-20 -164h-106zM80 76c0 22.667 8 42.167 24 58.5s35.667 24.5 59 24.5c22.667 0 42 -8.16699 58 -24.5s24 -35.833 24 -58.5c0 -23.333 -8 -43 -24 -59s-35.333 -24 -58 -24c-23.333 0 -43 8 -59 24s-24 35.667 -24 59z" />
    <glyph glyph-name="quotedbl" unicode="&#x22;" horiz-adv-x="447" 
d="M265 437l-15 270h127l-14 -270h-98zM85 437l-15 270h129l-14 -270h-100z" />
    <glyph glyph-name="numbersign" unicode="#" horiz-adv-x="570" 
d="M508 261l-14 -81h-88l-25 -155h-90l24 155h-114l-25 -155h-90l24 155h-84l15 81h81l23 152h-87l15 81h84l25 156h89l-24 -156h116l24 156h89l-24 -156h91l-13 -81h-89l-23 -152h90zM236 413l-23 -152h114l23 152h-114z" />
    <glyph glyph-name="dollar" unicode="$" 
d="M196 18c-10.667 0 -22.834 1.83398 -36.501 5.50098s-26.5 10 -38.5 19s-22.167 21 -30.5 36s-12.5 33.5 -12.5 55.5v56h129v-43h65v150h-87c-14 0 -27.5 2.83301 -40.5 8.5s-24.5 13.167 -34.5 22.5s-18.167 20.166 -24.5 32.499s-9.5 25.5 -9.5 39.5v183
c0 12.667 2.83301 25.167 8.5 37.5s13.5 23.5 23.5 33.5s21.5 18 34.5 24s27.167 9 42.5 9h87v82h42v-82h73c11.333 0 23.833 -2 37.5 -6s26.5 -10.667 38.5 -20s22 -21.333 30 -36s12 -32.334 12 -53.001v-66h-126v52h-65v-135h98c16 0 30.667 -2.83301 44 -8.5
s24.833 -13.167 34.5 -22.5s17.167 -20.166 22.5 -32.499s8 -25.5 8 -39.5v-198c0 -14 -3.16699 -27.333 -9.5 -40s-14.666 -23.667 -24.999 -33s-22 -16.833 -35 -22.5s-26.167 -8.5 -39.5 -8.5h-98v-102h-42v102h-76zM219 423.001h53v135h-53v-135zM314 297.001v-150h61
v150h-61z" />
    <glyph glyph-name="percent" unicode="%" horiz-adv-x="895" 
d="M40 635c0 18 7.33398 34.499 22.001 49.499s33.667 22.5 57 22.5h169c25.333 0 44.833 -7.66699 58.5 -23s20.5 -31.666 20.5 -48.999v-283c0 -8 -1.83301 -16.333 -5.5 -25s-8.83398 -16.5 -15.501 -23.5s-15.167 -12.667 -25.5 -17s-21.833 -6.5 -34.5 -6.5h-167
c-12 0 -22.833 2.16699 -32.5 6.5s-18 10 -25 17s-12.333 14.667 -16 23s-5.5 16.833 -5.5 25.5v283zM153.001 613.999v-241h101v241h-101zM529.001 353.999c0 18 7.33301 34.499 22 49.499s33.667 22.5 57 22.5h168c26 0 45.667 -7.66699 59 -23s20 -31.666 20 -48.999
v-283c0 -8 -1.66699 -16.167 -5 -24.5s-8.5 -16 -15.5 -23s-15.5 -12.667 -25.5 -17s-21.333 -6.5 -34 -6.5h-167c-12 0 -22.833 2.16699 -32.5 6.5s-18 9.83301 -25 16.5s-12.333 14.167 -16 22.5s-5.5 16.833 -5.5 25.5v283zM642.001 333.998v-241h101v241h-101z
M254.001 -34.002l302 772h92l-303 -772h-91z" />
    <glyph glyph-name="ampersand" unicode="&#x26;" horiz-adv-x="689" 
d="M580 475l-0.00292969 -59.999h59v-121h-59v-187c0 -12.667 -2.5 -25.334 -7.5 -38.001s-12.167 -24.167 -21.5 -34.5s-20.666 -18.666 -33.999 -24.999s-28.666 -9.5 -45.999 -9.5h-292c-16 0 -30.667 3.16699 -44 9.5s-24.833 14.5 -34.5 24.5s-17.167 21.333 -22.5 34
s-8 25.667 -8 39v163c0 10.667 1.83301 21.5 5.5 32.5s9.16699 21.167 16.5 30.5s16.5 17.333 27.5 24s23.833 11 38.5 13c-11.333 4 -20.333 9.16699 -27 15.5s-11.834 13.666 -15.501 21.999s-6.16699 17 -7.5 26s-2 17.833 -2 26.5v143c0 13.333 2.66699 26.333 8 39
s12.833 23.834 22.5 33.501s21.334 17.5 35.001 23.5s28.5 9 44.5 9h207c16.667 0 31.834 -3 45.501 -9s25.167 -13.833 34.5 -23.5s16.5 -20.834 21.5 -33.501s7.5 -25.667 7.5 -39v-61h-148v37h-129v-163h177v59h148zM217.997 293.001v-164h214v164h-214z" />
    <glyph glyph-name="quotesingle" unicode="'" horiz-adv-x="272" 
d="M85 437l-15 270h128l-14 -270h-99z" />
    <glyph glyph-name="parenleft" unicode="(" horiz-adv-x="366" 
d="M50 285c0 44.667 5.5 88.333 16.5 131s25.5 83 43.5 121s38.5 73.333 61.5 106s46.5 61 70.5 85l70 -62c-44 -58 -77.5 -117.833 -100.5 -179.5s-34.5 -128.834 -34.5 -201.501c0 -74.667 11.333 -143 34 -205s56 -121.667 100 -179l-70 -59
c-24 24.667 -47.5 53.334 -70.5 86.001s-43.333 68 -61 106s-32 78.333 -43 121s-16.5 86 -16.5 130z" />
    <glyph glyph-name="parenright" unicode=")" horiz-adv-x="366" 
d="M316 285c0 -44 -5.33301 -87.332 -16 -129.999s-25 -83 -43 -121s-38.333 -73.333 -61 -106s-46 -61.334 -70 -86.001l-71 59c44 57.333 77.333 117 100 179s34 130.333 34 205c0 72.667 -11.5 139.834 -34.5 201.501s-56.5 121.5 -100.5 179.5l71 62
c24 -24 47.5 -52.333 70.5 -85s43.333 -68 61 -106s32 -78.333 43 -121s16.5 -86.334 16.5 -131.001z" />
    <glyph glyph-name="asterisk" unicode="*" horiz-adv-x="518" 
d="M328 516l90 -92l-97 -65l-62 110l-62 -110l-97 66l91 91l-131 25l37 106l121 -54l-18 125h117l-17 -125l123 54l35 -106z" />
    <glyph glyph-name="plus" unicode="+" 
d="M59 348h184v184h104v-184h185v-104h-185v-184h-104v184h-184v104z" />
    <glyph glyph-name="comma" unicode="," horiz-adv-x="260" 
d="M62 -142v298h73c17.333 0 30.833 -2.66699 40.5 -8s17 -11.833 22 -19.5s8 -15.5 9 -23.5s1.5 -14.667 1.5 -20v-129l-95 -98h-51z" />
    <glyph glyph-name="hyphen" unicode="-" horiz-adv-x="313" 
d="M32 199v110h250v-110h-250z" />
    <glyph glyph-name="period" unicode="." horiz-adv-x="270" 
d="M50 80c0 23.333 8.33301 43.333 25 60s36.667 25 60 25c12 0 23.167 -2.33301 33.5 -7s19.333 -10.834 27 -18.501s13.667 -16.667 18 -27s6.5 -21.166 6.5 -32.499c0 -23.333 -8.33301 -43.333 -25 -60s-36.667 -25 -60 -25c-11.333 0 -22.166 2.16699 -32.499 6.5
s-19.333 10.333 -27 18s-13.834 16.667 -18.501 27s-7 21.5 -7 33.5z" />
    <glyph glyph-name="slash" unicode="/" horiz-adv-x="460" 
d="M2 -55l344 809h112l-344 -809h-112z" />
    <glyph glyph-name="zero" unicode="0" horiz-adv-x="589" 
d="M50 602c0 13.333 2.83301 26.334 8.5 39.001s13.667 24 24 34s22.5 18 36.5 24s29 9 45 9h261c17.333 0 33 -3.16699 47 -9.5s25.833 -14.5 35.5 -24.5s17.167 -21.333 22.5 -34s8 -25.334 8 -38.001v-495c0 -12.667 -2.83301 -25.334 -8.5 -38.001
s-13.5 -24.167 -23.5 -34.5s-22 -18.666 -36 -24.999s-29.667 -9.5 -47 -9.5h-259c-16.667 0 -32 3.16699 -46 9.5s-26 14.5 -36 24.5s-17.833 21.333 -23.5 34s-8.5 25.667 -8.5 39v495zM199 581.001v-454h190v454h-190z" />
    <glyph glyph-name="one" unicode="1" horiz-adv-x="589" 
d="M107 123h116v426h-124v75l130 84h51c18 0 32.833 -2.83301 44.5 -8.5s21 -13.334 28 -23.001s11.833 -20.667 14.5 -33s4 -25.166 4 -38.499v-482h119v-123h-383v123z" />
    <glyph glyph-name="two" unicode="2" horiz-adv-x="589" 
d="M192 203l0.000976562 -76.002h222v70h125v-197h-494v187c0 31.333 5.16699 57.5 15.5 78.5s29.833 40.167 58.5 57.5l265 169v87h-178v-63h-133v66c0 12 1.5 25.333 4.5 40s8.83301 28.334 17.5 41.001s21.167 23.334 37.5 32.001s37.833 13 64.5 13h226
c18 0 33.667 -3.16699 47 -9.5s24.666 -14.5 33.999 -24.5s16.333 -21.5 21 -34.5s7 -26.167 7 -39.5v-110c0 -16 -1.66699 -30 -5 -42s-8.5 -22.5 -15.5 -31.5s-15.5 -17.5 -25.5 -25.5s-21.667 -16 -35 -24z" />
    <glyph glyph-name="three" unicode="3" horiz-adv-x="589" 
d="M60 708l448.999 0.000976562v-129l-172 -149h89c17.333 0 32.5 -2.66699 45.5 -8s23.667 -12.5 32 -21.5s14.666 -19.5 18.999 -31.5s6.5 -24.333 6.5 -37v-223c0 -13.333 -2.5 -26.333 -7.5 -39s-12.167 -24.334 -21.5 -35.001s-20.666 -19.167 -33.999 -25.5
s-28.666 -9.5 -45.999 -9.5h-267c-18.667 -0 -35.167 3.33301 -49.5 10s-26.5 15.334 -36.5 26.001s-17.5 22.667 -22.5 36s-7.5 26.666 -7.5 39.999v58h140v-42h206v188h-193l-47 95l182 169h-265v128z" />
    <glyph glyph-name="four" unicode="4" horiz-adv-x="589" 
d="M252 123h73.999v67h-306v106l39 49.5l56 72.5l65 84l65 84l56 72c16.667 21.333 29.334 38 38.001 50h136v-408h93v-110h-93v-67h83v-123h-306v123zM322.999 518c-8 -11.333 -19.667 -26.833 -35 -46.5l-48.5 -62.5l-48.5 -63l-36 -46h172l-1 218h-3z" />
    <glyph glyph-name="five" unicode="5" horiz-adv-x="589" 
d="M506 579l-296.004 -0.000976562l-16 -122h239c18 0 33.333 -3 46 -9s23.334 -13.667 32.001 -23s15 -20.166 19 -32.499s6 -24.833 6 -37.5v-246c0 -13.333 -2.5 -26.333 -7.5 -39s-12.167 -24.334 -21.5 -35.001s-20.666 -19.167 -33.999 -25.5
s-28.666 -9.5 -45.999 -9.5h-263c-18 0 -34.167 3.33301 -48.5 10s-26.5 15.334 -36.5 26.001s-17.5 22.667 -22.5 36s-7.5 26.666 -7.5 39.999v58h139v-41h201v199h-236l-107 73l24 194c2 16.667 5.16699 31.834 9.5 45.501s11 25.5 20 35.5s20.833 17.833 35.5 23.5
s33.334 8.5 56.001 8.5h315v-129z" />
    <glyph glyph-name="six" unicode="6" horiz-adv-x="589" 
d="M196 365l69.9961 72.002h171c16.667 0 31.5 -3 44.5 -9s23.833 -13.667 32.5 -23s15.167 -20.166 19.5 -32.499s6.5 -24.833 6.5 -37.5v-226c0 -13.333 -2.5 -26.333 -7.5 -39s-12.167 -24.334 -21.5 -35.001s-20.666 -19.167 -33.999 -25.5s-28.666 -9.5 -45.999 -9.5
h-273c-16 0 -30.833 3.16699 -44.5 9.5s-25.167 14.666 -34.5 24.999s-16.666 22 -21.999 35s-8 26.167 -8 39.5v491c0 13.333 2.5 26.5 7.5 39.5s12.333 24.5 22 34.5s21.167 18.167 34.5 24.5s28.333 9.5 45 9.5h245c16.667 0 31.834 -3 45.501 -9
s25.167 -13.833 34.5 -23.5s16.5 -20.834 21.5 -33.501s7.5 -25.667 7.5 -39v-70h-148v46h-168v-214zM195.996 307.002v-178h196v178h-196z" />
    <glyph glyph-name="seven" unicode="7" horiz-adv-x="589" 
d="M70 709h449v-119l-247 -590h-151l242 579h-161v-65h-132v195z" />
    <glyph glyph-name="eight" unicode="8" horiz-adv-x="589" 
d="M63 601c0 13.333 2.83203 26.332 8.49902 38.999s13.5 24 23.5 34s22 18.167 36 24.5s29 9.5 45 9.5h237c17.333 0 33 -3.16699 47 -9.5s25.833 -14.5 35.5 -24.5s17.167 -21.333 22.5 -34s8 -25.667 8 -39v-127c0 -16.667 -4.5 -33.167 -13.5 -49.5
s-22.167 -29.166 -39.5 -38.499c21.333 -8.66699 38 -22.167 50 -40.5s18 -37.5 18 -57.5v-181c0 -12.667 -2.83301 -25.334 -8.5 -38.001s-13.5 -24.167 -23.5 -34.5s-22 -18.666 -36 -24.999s-29.667 -9.5 -47 -9.5h-265c-16.667 0 -32 3.16699 -46 9.5s-26 14.5 -36 24.5
s-17.833 21.333 -23.5 34s-8.5 25.667 -8.5 39v181c0 20 6.33301 39 19 57s29.334 31.333 50.001 40c-16.667 10 -29.667 23 -39 39s-14 32.667 -14 50v127zM195.999 315.999v-187h196v187h-196zM210.999 578.999v-133h166v133h-166z" />
    <glyph glyph-name="nine" unicode="9" horiz-adv-x="589" 
d="M392 360l-71 -71h-168c-17.333 0 -32.333 3 -45 9s-23.334 13.667 -32.001 23s-15.167 20.166 -19.5 32.499s-6.5 24.833 -6.5 37.5v209c0 12.667 2.5 25.5 7.5 38.5s12.167 24.667 21.5 35s20.666 18.666 33.999 24.999s28.666 9.5 45.999 9.5h271
c16 0 30.833 -3.16699 44.5 -9.5s25.167 -14.5 34.5 -24.5s16.666 -21.5 21.999 -34.5s8 -26.167 8 -39.5v-491c0 -13.333 -2.66699 -26.5 -8 -39.5s-12.666 -24.667 -21.999 -35s-20.666 -18.666 -33.999 -24.999s-28.333 -9.5 -45 -9.5h-260
c-17.333 0 -32.666 3 -45.999 9s-24.666 13.833 -33.999 23.5s-16.5 20.834 -21.5 33.501s-7.5 25.667 -7.5 39v69h148v-45h183v231zM392 418v162h-195v-162h195z" />
    <glyph glyph-name="colon" unicode=":" horiz-adv-x="270" 
d="M50 80c0 23.333 8.33301 43.333 25 60s36.667 25 60 25c12 0 23.167 -2.33301 33.5 -7s19.333 -10.834 27 -18.501s13.667 -16.667 18 -27s6.5 -21.166 6.5 -32.499c0 -23.333 -8.33301 -43.333 -25 -60s-36.667 -25 -60 -25c-11.333 0 -22.166 2.16699 -32.499 6.5
s-19.333 10.333 -27 18s-13.834 16.667 -18.501 27s-7 21.5 -7 33.5zM50 364c0 12 2.33301 23.167 7 33.5s10.834 19.333 18.501 27s16.667 13.834 27 18.501s21.166 7 32.499 7c12 0 23.167 -2.33301 33.5 -7s19.333 -10.834 27 -18.501s13.667 -16.667 18 -27
s6.5 -21.5 6.5 -33.5c0 -23.333 -8.33301 -43.333 -25 -60s-36.667 -25 -60 -25c-11.333 0 -22.166 2.16699 -32.499 6.5s-19.333 10.333 -27 18s-13.834 16.667 -18.501 27s-7 21.5 -7 33.5z" />
    <glyph glyph-name="semicolon" unicode=";" horiz-adv-x="270" 
d="M50 364c0 12 2.33301 23.167 7 33.5s10.834 19.333 18.501 27s16.667 13.834 27 18.501s21.166 7 32.499 7c12 0 23.167 -2.33301 33.5 -7s19.333 -10.834 27 -18.501s13.667 -16.667 18 -27s6.5 -21.5 6.5 -33.5c0 -23.333 -8.33301 -43.333 -25 -60
s-36.667 -25 -60 -25c-11.333 0 -22.166 2.16699 -32.499 6.5s-19.333 10.333 -27 18s-13.834 16.667 -18.501 27s-7 21.5 -7 33.5zM65 -142l-0.000976562 298h73c17.333 0 30.833 -2.66699 40.5 -8s16.834 -11.833 21.501 -19.5s7.5 -15.5 8.5 -23.5s1.5 -14.667 1.5 -20
v-129l-94 -98h-51z" />
    <glyph glyph-name="less" unicode="&#x3c;" 
d="M534 442l-348 -151l348 -157l-37 -92l-440 201v93l439 199z" />
    <glyph glyph-name="equal" unicode="=" 
d="M58 438h474v-99h-474v99zM58 238h474v-98h-474v98z" />
    <glyph glyph-name="greater" unicode="&#x3e;" 
d="M95 535l439 -199v-93l-440 -201l-37 92l347 157l-347 151z" />
    <glyph glyph-name="question" unicode="?" horiz-adv-x="611" 
d="M168 199l-0.000976562 68.999c0 16 0.666992 30.167 2 42.5s4.33301 23.5 9 33.5s11.334 19.167 20.001 27.5s20 16.5 34 24.5l160 87v96h-187v-68h-136v71c0 12 1.5 25.333 4.5 40s8.83301 28.334 17.5 41.001s21.167 23.334 37.5 32.001s37.833 13 64.5 13h237
c18 0 33.833 -3 47.5 -9s25.167 -13.833 34.5 -23.5s16.333 -20.834 21 -33.501s7 -25.667 7 -39v-121c0 -30.667 -6 -54.667 -18 -72s-31.333 -33.333 -58 -48l-158 -84v-79h-139zM156.999 75.999c0 22.667 8 42.167 24 58.5s35.667 24.5 59 24.5
c22.667 0 42 -8.16699 58 -24.5s24 -35.833 24 -58.5c0 -23.333 -8 -43 -24 -59s-35.333 -24 -58 -24c-23.333 0 -43 8 -59 24s-24 35.667 -24 59z" />
    <glyph glyph-name="at" unicode="@" horiz-adv-x="995" 
d="M495 127h-112c-14.667 0 -27.834 2.66699 -39.501 8s-21.5 12.166 -29.5 20.499s-14.167 17.666 -18.5 27.999s-6.5 20.5 -6.5 30.5v83c0 10.667 2 21.5 6 32.5s10 20.833 18 29.5s17.667 15.667 29 21s24.666 8 39.999 8h174v68h-120v-35h-118v47
c0 11.333 2.66699 22.833 8 34.5s12.666 22.334 21.999 32.001s20.666 17.5 33.999 23.5s28 9 44 9h138c26.667 0 48.167 -3.66699 64.5 -11s28.833 -16.833 37.5 -28.5s14.334 -24.334 17.001 -38.001s4 -26.5 4 -38.5v-228h17c24.667 0 44.834 5.33301 60.501 16
s28 24.334 37 41.001s15.333 35 19 55s5.5 39.333 5.5 58c0 44.667 -6.33301 85.334 -19 122.001s-32 68 -58 94s-58.667 46.167 -98 60.5s-86 21.5 -140 21.5c-52.667 0 -100 -8.5 -142 -25.5s-77.667 -41.333 -107 -73s-51.833 -70.167 -67.5 -115.5s-23.5 -96 -23.5 -152
c0 -48.667 5.83301 -93.5 17.5 -134.5s30.334 -76.5 56.001 -106.5s59.167 -53.5 100.5 -70.5s91.666 -25.5 150.999 -25.5c30 0 61.167 2.83301 93.5 8.5s64.5 17.167 96.5 34.5l39 -82c-41.333 -22 -81.5 -36.667 -120.5 -44s-77.833 -11 -116.5 -11
c-71.333 0 -133.166 10.833 -185.499 32.5s-95.666 51.5 -129.999 89.5s-60 83 -77 135s-25.5 108.333 -25.5 169c0 62.667 9.33301 122 28 178s46.5 105 83.5 147s83.167 75.167 138.5 99.5s119.666 36.5 192.999 36.5c66.667 0 125.5 -9.5 176.5 -28.5s94 -45.5 129 -79.5
s61.5 -74.833 79.5 -122.5s27 -100.167 27 -157.5c0 -43.333 -6.16699 -81.5 -18.5 -114.5s-29.166 -60.5 -50.499 -82.5s-46.5 -38.667 -75.5 -50s-60.167 -17 -93.5 -17h-104l-27 59zM418 235h138v76h-138v-76z" />
    <glyph glyph-name="A" unicode="A" horiz-adv-x="711" 
d="M458 203h-237l-24 -71h73v-132h-256v132h46l210 582h173l203 -582h47v-132h-290v132h78zM339 562l-80 -245h160l-75 245h-5z" />
    <glyph glyph-name="B" unicode="B" horiz-adv-x="669" 
d="M40 0l-0.000976562 132.002h54v444h-54v132h442c18 0 34.167 -3.33301 48.5 -10s26.5 -15.167 36.5 -25.5s17.5 -22 22.5 -35s7.5 -25.833 7.5 -38.5v-118c0 -22 -4.5 -40.833 -13.5 -56.5s-24.167 -27.167 -45.5 -34.5c26.667 -6.66699 45.334 -19.834 56.001 -39.501
s16 -39.5 16 -59.5v-182c0 -13.333 -2.83301 -26.333 -8.5 -39s-13.5 -24.334 -23.5 -35.001s-22 -19.167 -36 -25.5s-29.333 -9.5 -46 -9.5h-456zM250.999 135.002h198v184h-198v-184zM250.999 442.002h187v131h-187v-131z" />
    <glyph glyph-name="C" unicode="C" horiz-adv-x="596" 
d="M218 135h209v77h136v-103c0 -12.667 -3.66699 -25.5 -11 -38.5s-16.833 -24.667 -28.5 -35s-24.667 -18.833 -39 -25.5s-28.5 -10 -42.5 -10h-265c-14 0 -27.833 3.16699 -41.5 9.5s-26 14.5 -37 24.5s-20 21.5 -27 34.5s-10.5 26.5 -10.5 40.5v490
c0 14 3.33301 27.5 10 40.5s15.5 24.5 26.5 34.5s23.5 18.167 37.5 24.5s28 9.5 42 9.5h180l69 -73v73h126v-203h-126v68h-208v-438z" />
    <glyph glyph-name="D" unicode="D" horiz-adv-x="674" 
d="M42 133l52 -0.000976562v443h-53v132h458c18 0 34.167 -3.33301 48.5 -10s26.333 -15.334 36 -26.001s17.167 -22.667 22.5 -36s8 -26.333 8 -39v-486c0 -14 -3.16699 -27.667 -9.5 -41s-14.833 -25.166 -25.5 -35.499s-23 -18.666 -37 -24.999s-28.333 -9.5 -43 -9.5
h-457v133zM251 134.999h206v438h-206v-438z" />
    <glyph glyph-name="E" unicode="E" horiz-adv-x="636" 
d="M41 134h53v441h-54v133h546v-229h-135v96h-200v-140h221v-125h-221v-175h215v131h136v-266h-561v134z" />
    <glyph glyph-name="F" unicode="F" horiz-adv-x="614" 
d="M330 0h-288v134h52v441h-53v133h546v-237h-136v104h-200v-160h216v-123h-216v-157h79v-135z" />
    <glyph glyph-name="G" unicode="G" horiz-adv-x="663" 
d="M353 402h272v-113h-43v-289h-90l-53 73l-70 -73h-192c-14 0 -27.833 3.16699 -41.5 9.5s-26 14.5 -37 24.5s-20 21.5 -27 34.5s-10.5 26.5 -10.5 40.5v490c0 14 3.16699 27.5 9.5 40.5s14.833 24.5 25.5 34.5s23 18.167 37 24.5s28.667 9.5 44 9.5h201l70 -73v73h125
v-203h-125v68h-230v-438h219v154h-84v113z" />
    <glyph glyph-name="H" unicode="H" horiz-adv-x="754" 
d="M312 132v-132h-270v132h57v444h-58v132h271v-132h-55v-150h237v150h-60v132h278v-132h-62v-444h62v-132h-278v132h60v171h-237v-171h55z" />
    <glyph glyph-name="I" unicode="I" horiz-adv-x="431" 
d="M293 132h66v-132h-287v132h64v444h-65v132h288v-132h-66v-444z" />
    <glyph glyph-name="J" unicode="J" horiz-adv-x="590" 
d="M150 226l-0.000976562 -90.999h182v440h-71v133h287v-133h-58v-466c0 -12.667 -3.16699 -25.5 -9.5 -38.5s-14.666 -24.667 -24.999 -35s-22.5 -18.833 -36.5 -25.5s-28.667 -10 -44 -10h-248c-15.333 0 -30 3.16699 -44 9.5s-26.333 14.666 -37 24.999
s-19.167 22 -25.5 35s-9.5 26.167 -9.5 39.5v117h139z" />
    <glyph glyph-name="K" unicode="K" horiz-adv-x="689" 
d="M384 708h271v-134h-66l-129 -130l161 -311h51v-133h-269v133h47l-102 200l-105 -105v-96h48v-132h-255v132h49v442h-50v134h255v-134h-47v-197l193 197h-52v134z" />
    <glyph glyph-name="L" unicode="L" horiz-adv-x="594" 
d="M309 576h-58v-441h207v83h125v-218h-542v132h54v444h-52v132h266v-132z" />
    <glyph glyph-name="M" unicode="M" horiz-adv-x="944" 
d="M481 226l161 482h261v-132h-53v-444h53v-132h-257v132h53v337h-5l-157 -469h-135l-175 472h-4v-340h53v-132h-235v132h53v444h-53v132h259l177 -482h4z" />
    <glyph glyph-name="N" unicode="N" horiz-adv-x="772" 
d="M539 263v313h-53v132h244v-132h-58v-579h-149l-295 467h-5v-332h53v-132h-234v132h53v444h-54v132h211l282 -445h5z" />
    <glyph glyph-name="O" unicode="O" horiz-adv-x="658" 
d="M61 599c0 13.333 3.33105 26.501 9.99805 39.501s15.334 24.667 26.001 35s23 18.666 37 24.999s28.333 9.5 43 9.5h305c14.667 0 29 -3.16699 43 -9.5s26.333 -14.666 37 -24.999s19.167 -22 25.5 -35s9.5 -26.167 9.5 -39.5v-490c0 -12.667 -3.16699 -25.5 -9.5 -38.5
s-14.666 -24.667 -24.999 -35s-22.5 -18.833 -36.5 -25.5s-28.667 -10 -44 -10h-305c-14 0 -28 3.16699 -42 9.5s-26.5 14.666 -37.5 24.999s-19.833 22 -26.5 35s-10 26.167 -10 39.5v490zM217.998 573.001v-438h222v438h-222z" />
    <glyph glyph-name="P" unicode="P" horiz-adv-x="631" 
d="M95 576l-54.001 -0.000976562v132h454c17.333 0 33 -3.16699 47 -9.5s26 -14.666 36 -24.999s17.833 -22 23.5 -35s8.5 -26.167 8.5 -39.5v-216c0 -13.333 -2.66699 -26.833 -8 -40.5s-13 -26 -23 -37s-22.167 -20.167 -36.5 -27.5s-30.166 -11 -47.499 -11h-242v-135h62
v-132h-274v132h54v444zM252.999 572.999v-171h198v171h-198z" />
    <glyph glyph-name="Q" unicode="Q" horiz-adv-x="658" 
d="M61 599c0 13.333 3.33203 26.501 9.99902 39.501s15.334 24.667 26.001 35s23 18.666 37 24.999s28.333 9.5 43 9.5h305c14.667 0 29 -3.16699 43 -9.5s26.333 -14.666 37 -24.999s19.167 -22 25.5 -35s9.5 -26.167 9.5 -39.5v-490l-109 -109h-127v-67h117v-113h-146
c-23.333 0 -43.333 7 -60 21s-25 37 -25 69v38l47 52h-117c-14 0 -28 3.16699 -42 9.5s-26.5 14.666 -37.5 24.999s-19.833 22 -26.5 35s-10 26.167 -10 39.5v490zM217.999 573.001v-438h222v438h-222z" />
    <glyph glyph-name="R" unicode="R" horiz-adv-x="656" 
d="M312 294l-59 -0.000976562v-162h54v-132h-266v132h54v444h-54v132h447c18.667 0 35.167 -3.16699 49.5 -9.5s26.333 -14.666 36 -24.999s17 -22 22 -35s7.5 -26.167 7.5 -39.5v-198c0 -13.333 -2.33301 -26.333 -7 -39s-11.5 -24 -20.5 -34s-20.167 -18.167 -33.5 -24.5
s-29 -9.5 -47 -9.5h-24l71 -164h78v-130h-182zM253 572.999v-147h191v147h-191z" />
    <glyph glyph-name="S" unicode="S" horiz-adv-x="613" 
d="M168 298c-14.667 0 -28.9971 2.83301 -42.9971 8.5s-26.5 13.5 -37.5 23.5s-19.833 21.667 -26.5 35s-10 27.333 -10 42v192c0 13.333 3.16699 26.5 9.5 39.5s14.666 24.667 24.999 35s22.666 18.666 36.999 24.999s29.5 9.5 45.5 9.5h165l70 -74v74h127v-196h-127v61
h-196v-140h238c16.667 0 32.167 -2.83301 46.5 -8.5s26.666 -13.5 36.999 -23.5s18.333 -21.667 24 -35s8.5 -27.333 8.5 -42v-214c0 -15.333 -3.33301 -29.666 -10 -42.999s-15.5 -25 -26.5 -35s-23.5 -17.833 -37.5 -23.5s-28 -8.5 -42 -8.5h-195l-71 73v-73h-126v196h126
v-61h225v163h-236v0z" />
    <glyph glyph-name="T" unicode="T" horiz-adv-x="665" 
d="M516 575h-105v-442h85v-133h-320v133h77v442h-105v-92h-137v225h642v-225h-137v92z" />
    <glyph glyph-name="U" unicode="U" horiz-adv-x="723" 
d="M470 135l-0.000976562 440.999h-67v132h278v-132h-54v-460c0 -14 -2.83301 -28 -8.5 -42s-13.667 -26.5 -24 -37.5s-23.166 -19.833 -38.499 -26.5s-32.333 -10 -51 -10h-291c-19.333 0 -36.5 3.33301 -51.5 10s-27.667 15.334 -38 26.001s-18.333 23 -24 37
s-8.5 28.333 -8.5 43v460h-51v132h269v-132h-62v-441h222z" />
    <glyph glyph-name="V" unicode="V" horiz-adv-x="703" 
d="M377 154l133 422h-84v133h262v-133h-42l-194 -582h-179l-212 582h-44v133h295v-133h-87l146 -422h6z" />
    <glyph glyph-name="W" unicode="W" horiz-adv-x="985" 
d="M497 272l-77 -278h-180l-178 582h-43v133h278v-133h-75l117 -409h6l91 319l-26 90h-56v133h286v-133h-73l119 -408h6l105 408h-72v133h243v-133h-42l-159 -582h-180l-85 278h-5z" />
    <glyph glyph-name="X" unicode="X" horiz-adv-x="702" 
d="M389 444l90 132h-51v132h243v-132h-52l-157 -228l163 -216h55v-132h-300v132h48l-105 144l-97 -144h52v-132h-257v132h61l166 243l-148 201h-53v132h293v-132h-49z" />
    <glyph glyph-name="Y" unicode="Y" horiz-adv-x="660" 
d="M21 576v133h272v-133h-68l126 -200l119 200h-74v133h253v-133h-42l-183 -301v-143h65v-132h-286v132h64v127l-206 317h-40z" />
    <glyph glyph-name="Z" unicode="Z" horiz-adv-x="584" 
d="M206 133h230v83h126v-216h-541v133l338 442h-184v-66h-127v199h499v-129z" />
    <glyph glyph-name="bracketleft" unicode="[" horiz-adv-x="349" 
d="M71 -146l1 854h215v-113h-98l-1 -628h98v-113h-215z" />
    <glyph glyph-name="backslash" unicode="\" horiz-adv-x="464" 
d="M348 -55l-344 809h112l344 -809h-112z" />
    <glyph glyph-name="bracketright" unicode="]" horiz-adv-x="349" 
d="M62 -146v113h98l-1 628h-98v113h215l1 -854h-215z" />
    <glyph glyph-name="asciicircum" unicode="^" horiz-adv-x="601" 
d="M442 255l-141 315l-30.5 -67.5l-40.5 -90l-40.5 -90l-30.5 -67.5h-124l217 454h99l215 -454h-124z" />
    <glyph glyph-name="underscore" unicode="_" horiz-adv-x="500" 
d="M0 -147v77h500v-77h-500z" />
    <glyph glyph-name="grave" unicode="`" horiz-adv-x="580" 
d="M274 539l-136 178l108 67l108 -201z" />
    <glyph glyph-name="a" unicode="a" horiz-adv-x="597" 
d="M149 0c-16.667 0 -31.666 2.83203 -44.999 8.49902s-24.5 13.167 -33.5 22.5s-16 19.833 -21 31.5s-7.5 23.167 -7.5 34.5v87c0 12.667 2.16699 25.5 6.5 38.5s11 24.833 20 35.5s20.333 19.334 34 26.001s30.167 10 49.5 10h202v78h-152v-41h-130v45
c0 12 2.33301 25.333 7 40s12 28.167 22 40.5s23 22.833 39 31.5s35.333 13 58 13h162c31.333 0 56.333 -4.33301 75 -13s33 -19.667 43 -33s16.667 -28 20 -44s5 -31 5 -45v-243h24v32h57v-56c0 -27.333 -7.33301 -50.833 -22 -70.5s-37.334 -29.5 -68.001 -29.5h-48
c-22 0 -41 5.5 -57 16.5s-27 27.167 -33 48.5l-64 -64h-143zM354.001 210.999h-165v-88h165v88z" />
    <glyph glyph-name="b" unicode="b" horiz-adv-x="589" 
d="M79 605h-47.001v123l195 1v-300l70 72h131c16.667 0 31.667 -3 45 -9s24.833 -13.833 34.5 -23.5s17 -20.667 22 -33s7.5 -24.833 7.5 -37.5v-295c0 -12 -2.66699 -24.167 -8 -36.5s-12.666 -23.333 -21.999 -33s-20.833 -17.667 -34.5 -24s-28.5 -9.5 -44.5 -9.5h-131
l-70 72v-72h-195v122h47v483zM387.999 372h-161v-246h161v246z" />
    <glyph glyph-name="c" unicode="c" horiz-adv-x="519" 
d="M51 401c0 12 2.83301 24 8.5 36s13.5 22.667 23.5 32s21.5 17 34.5 23s26.833 9 41.5 9h117l68 -71v71h132v-173h-132v44h-144v-246h148v56h139v-79c0 -12 -2.33301 -24.167 -7 -36.5s-11.667 -23.333 -21 -33s-20.833 -17.667 -34.5 -24s-29.5 -9.5 -47.5 -9.5h-216
c-16.667 0 -31.667 3 -45 9s-24.833 13.833 -34.5 23.5s-17.167 20.667 -22.5 33s-8 24.833 -8 37.5v298z" />
    <glyph glyph-name="d" unicode="d" horiz-adv-x="590" 
d="M312 729l198.002 -1v-606h47v-122h-193v72l-70 -72h-133c-16 0 -30.833 3.16699 -44.5 9.5s-25.334 14.333 -35.001 24s-17.167 20.667 -22.5 33s-8 24.5 -8 36.5v295c0 12.667 2.5 25.167 7.5 37.5s12.333 23.333 22 33s21.167 17.5 34.5 23.5s28.666 9 45.999 9h133
l70 -72v176h-52v124zM203.002 129h161v243h-161v-243z" />
    <glyph glyph-name="e" unicode="e" horiz-adv-x="545" 
d="M161 0c-15.333 0 -29.6689 2.99902 -43.002 8.99902s-25 13.833 -35 23.5s-17.833 20.667 -23.5 33s-8.5 24.833 -8.5 37.5v281c0 12.667 2.83301 25.834 8.5 39.501s13.667 26.167 24 37.5s23 20.666 38 27.999s31.833 11 50.5 11h198
c22.667 0 41.834 -3.83301 57.501 -11.5s28.334 -17.167 38.001 -28.5s16.667 -24.166 21 -38.499s6.5 -27.833 6.5 -40.5v-91c0 -28 -6.33301 -47.167 -19 -57.5s-30 -15.5 -52 -15.5h-225v-90h162v48h136v-72c0 -12 -3 -24.167 -9 -36.5s-14.167 -23.5 -24.5 -33.5
s-22.5 -18 -36.5 -24s-29.333 -9 -46 -9h-218zM196.997 306.999h149v71h-149v-71z" />
    <glyph glyph-name="f" unicode="f" horiz-adv-x="384" 
d="M37 500l46.999 -0.000976562v89c0 14.667 1.33301 28.334 4 41.001s7.83398 24 15.501 34s18 18.667 31 26s29.833 13 50.5 17l201 37l24 -132l-177 -31v-81h115v-123h-115v-254h54v-123h-250v123h47v254h-47v123z" />
    <glyph glyph-name="g" unicode="g" horiz-adv-x="580" 
d="M145 -46h231v69h-231v-69zM198 279h123v103h-123v-103zM459 402c0.666992 -3.33301 1 -10.334 1 -21.001v-117c0 -11.333 -2.5 -23 -7.5 -35s-12.5 -23 -22.5 -33s-22.167 -18.333 -36.5 -25s-30.5 -10 -48.5 -10h-176v-33h248c16.667 0 31.667 -3 45 -9
s24.666 -13.833 33.999 -23.5s16.666 -20.667 21.999 -33s8 -24.833 8 -37.5v-99c0 -13.333 -2.33301 -26.166 -7 -38.499s-11.334 -23.333 -20.001 -33s-19.5 -17.5 -32.5 -23.5s-27.833 -9 -44.5 -9h-306c-34 0 -59.833 10.667 -77.5 32s-26.5 46 -26.5 74v37l79 73
c-14.667 7.33301 -24.667 18 -30 32s-7.33301 29.333 -6 46l60 61c-16 9.33301 -29.167 21.833 -39.5 37.5s-15.5 32.167 -15.5 49.5v134c0 11.333 2.5 23 7.5 35s12.333 23 22 33s21.167 18.333 34.5 25s28.333 10 45 10h183c22 0 41.167 -5 57.5 -15
s28.5 -23.667 36.5 -41l16 18c6.66699 7.33301 14.834 14.5 24.501 21.5s20.834 12.833 33.501 17.5s26.667 7 42 7c6.66699 -18 9.83398 -37.333 9.50098 -58s-2.5 -40 -6.5 -58z" />
    <glyph glyph-name="h" unicode="h" horiz-adv-x="617" 
d="M350 122h39.999v250h-161v-250h47v-122h-244v122h48v483h-48v123l197 1v-300l70 72h130c16.667 0 31.834 -3 45.501 -9s25.167 -13.833 34.5 -23.5s16.5 -20.667 21.5 -33s7.5 -24.833 7.5 -37.5v-276h52v-122h-240v122z" />
    <glyph glyph-name="i" unicode="i" horiz-adv-x="345" 
d="M244 123h51v-123h-247v123h47v255h-47v123h196v-378zM70 635c0 25.333 8.83301 46.833 26.5 64.5s39.167 26.5 64.5 26.5c24.667 0 45.834 -8.83301 63.501 -26.5s26.5 -39.167 26.5 -64.5s-8.83301 -46.666 -26.5 -63.999s-38.834 -26 -63.501 -26
c-25.333 0 -46.833 8.66699 -64.5 26s-26.5 38.666 -26.5 63.999z" />
    <glyph glyph-name="j" unicode="j" horiz-adv-x="313" 
d="M67 635c0 25.333 8.83301 46.833 26.5 64.5s39.167 26.5 64.5 26.5s46.666 -8.83301 63.999 -26.5s26 -39.167 26 -64.5s-8.66699 -46.666 -26 -63.999s-38.666 -26 -63.999 -26s-46.833 8.66699 -64.5 26s-26.5 38.666 -26.5 63.999zM92 378h-47v123h196v-545
c0 -44 -11 -77.333 -33 -100s-53.667 -34 -95 -34h-128v124h107v432z" />
    <glyph glyph-name="k" unicode="k" horiz-adv-x="593" 
d="M303 501h246v-119h-59l-64 -56l104 -204h35v-122h-229v122h40l-59 109l-88 -77v-32h40v-122h-234v122h46v484h-51v122h199v-443l112 97h-38v119z" />
    <glyph glyph-name="l" unicode="l" horiz-adv-x="330" 
d="M239 122h51v-122h-247v122h47v484h-47v123l196 1v-608z" />
    <glyph glyph-name="m" unicode="m" horiz-adv-x="884" 
d="M330 122h36.002v250h-138v-250h39v-122h-236v122h49v257h-49v121l197 1v-72l70 72h107c28 0 50.833 -7.33301 68.5 -22s29.5 -32 35.5 -52l75 74h107c17.333 0 32.666 -3 45.999 -9s24.666 -13.833 33.999 -23.5s16.5 -20.667 21.5 -33s7.5 -24.833 7.5 -37.5v-276h52
v-122h-234v122h34v250h-138v-250h40v-122h-224v122z" />
    <glyph glyph-name="n" unicode="n" horiz-adv-x="621" 
d="M349 122h39.999v250h-161v-250h47v-122h-244v122h49v257h-49v121l197 1v-72l70 72h131c16.667 0 31.834 -3 45.501 -9s25.167 -13.833 34.5 -23.5s16.5 -20.667 21.5 -33s7.5 -24.833 7.5 -37.5v-276h51v-122h-240v122z" />
    <glyph glyph-name="o" unicode="o" horiz-adv-x="568" 
d="M517 103c0 -12 -2.99707 -24.167 -8.99707 -36.5s-14.167 -23.5 -24.5 -33.5s-22.5 -18 -36.5 -24s-29 -9 -45 -9h-241c-16 0 -30.667 3 -44 9s-25 13.833 -35 23.5s-17.667 20.667 -23 33s-8 24.833 -8 37.5v295c0 12.667 2.83301 25.167 8.5 37.5s13.5 23.333 23.5 33
s21.667 17.5 35 23.5s27.666 9 42.999 9h247c16.667 0 31.667 -3 45 -9s24.666 -13.833 33.999 -23.5s16.666 -20.667 21.999 -33s8 -24.833 8 -37.5v-295zM197.003 127h174v247h-174v-247z" />
    <glyph glyph-name="p" unicode="p" horiz-adv-x="589" 
d="M271 -178h-239.998v123h48v434h-47v121h196v-71l70 71h130c16 0 30.833 -3.16699 44.5 -9.5s25.167 -14.333 34.5 -24s16.666 -20.667 21.999 -33s8 -24.5 8 -36.5v-294c0 -12.667 -2.5 -25.167 -7.5 -37.5s-12.167 -23.333 -21.5 -33s-20.833 -17.5 -34.5 -23.5
s-28.834 -9 -45.501 -9h-130l-70 72v-127h43v-123zM389.002 374h-161v-245h161v245z" />
    <glyph glyph-name="q" unicode="q" horiz-adv-x="586" 
d="M318 -55h42.998v127l-70 -72h-130c-17.333 0 -32.666 3 -45.999 9s-24.833 13.833 -34.5 23.5s-17 20.667 -22 33s-7.5 24.833 -7.5 37.5v294c0 12 2.66699 24.167 8 36.5s12.833 23.333 22.5 33s21.334 17.667 35.001 24s28.5 9.5 44.5 9.5h130l70 -71v71h196v-121h-47
v-434h48v-123h-240v123zM199.998 129h161v245h-161v-245z" />
    <glyph glyph-name="r" unicode="r" horiz-adv-x="466" 
d="M234 358l-0.00195312 -235h47v-123h-244v123h48v255h-48v122l197 1v-86c6.66699 8 16.334 17.333 29.001 28s27.667 20.834 45 30.501s37 17.834 59 24.501s45.667 9.66699 71 9c9.33301 -11.333 15.833 -24.333 19.5 -39s5.33398 -29.834 5.00098 -45.501
s-2.33301 -30.834 -6 -45.501s-8.16699 -28 -13.5 -40z" />
    <glyph glyph-name="s" unicode="s" horiz-adv-x="531" 
d="M464 501l-0.000976562 -157.001h-132v41h-141v-70h192c16 0 30.333 -3 43 -9s23.5 -13.667 32.5 -23s15.833 -20 20.5 -32s7 -24.333 7 -37v-117c0 -12 -2.83301 -23.667 -8.5 -35s-13.167 -21.666 -22.5 -30.999s-20.166 -16.833 -32.499 -22.5s-25.5 -8.5 -39.5 -8.5
h-143l-63 64v-64h-133v156h133v-39h160v77h-187c-14 0 -27.667 3 -41 9s-25 13.833 -35 23.5s-18 20.667 -24 33s-9 24.833 -9 37.5v107c0 12 2.83301 23.833 8.5 35.5s13.5 22 23.5 31s21.5 16.333 34.5 22s26.833 8.5 41.5 8.5h124l59 -66v66h132z" />
    <glyph glyph-name="t" unicode="t" horiz-adv-x="435" 
d="M206 0c-23.333 0 -42.833 3.66504 -58.5 10.998s-28.334 16.833 -38.001 28.5s-16.667 25 -21 40s-6.5 30.167 -6.5 45.5v254h-61v120h61v85l57 64h92v-149h138v-120h-138v-256h105v64h89v-90c0 -11.333 -2.66699 -22.666 -8 -33.999s-12.833 -21.666 -22.5 -30.999
s-21.167 -17 -34.5 -23s-27.666 -9 -42.999 -9h-111z" />
    <glyph glyph-name="u" unicode="u" horiz-adv-x="613" 
d="M267 379l-44 0.00195312v-252h161v252h-47v122h196v-379h50v-122h-199v71l-70 -71h-134c-17.333 0 -32.5 3 -45.5 9s-24 13.667 -33 23s-15.833 20.166 -20.5 32.499s-7 25.166 -7 38.499v276h-48v122h241v-122z" />
    <glyph glyph-name="v" unicode="v" 
d="M321 127l94 252h-61v122h223v-122h-35l-153 -385h-177l-164 385h-35v122h259v-122h-56l99 -252h6z" />
    <glyph glyph-name="w" unicode="w" horiz-adv-x="835" 
d="M593 136l79 242h-49v123h200v-123h-34l-127 -383h-176l-60 166l-12 -23l-49 -143h-177l-71 191l-71 192h-34c0 20.667 -0.166992 41.167 -0.5 61.5s-0.5 40.833 -0.5 61.5h248v-123h-55l86 -247h6l64 189l-10 29l-10 29h-27v123h238v-123h-49l84 -242h7z" />
    <glyph glyph-name="x" unicode="x" horiz-adv-x="564" 
d="M273 0v120h37l-65 71l-58 -71h34v-120h-210v120h47l116 140l-114 123h-43v118h276v-118h-37l64 -72l60 72h-38v118h206v-118h-39l-118 -138l115 -125h46v-120h-279z" />
    <glyph glyph-name="y" unicode="y" horiz-adv-x="557" 
d="M293 157l77 221h-40v123h216v-123h-41l-164 -436h52l-1 -120h-263v120h81l30 82h-44l-138 354h-41v123h223v-123h-33l80 -221h6z" />
    <glyph glyph-name="z" unicode="z" horiz-adv-x="519" 
d="M207 127h142v61h132v-188h-450v127l262 248h-116v-46h-132v172h427v-122z" />
    <glyph glyph-name="braceleft" unicode="{" horiz-adv-x="359" 
d="M310 -47l-0.000976562 -98.999h-88c-16 0 -31.5 2.5 -46.5 7.5s-28.167 12.667 -39.5 23s-20.333 23.666 -27 39.999s-10 35.5 -10 57.5l2 249l-50 41v48l50 35v233c0 19.333 3.16699 36.5 9.5 51.5s14.833 27.5 25.5 37.5s23.334 17.667 38.001 23s30 8 46 8h90v-99h-92
v-258l-70 -55l70 -60v-283h92z" />
    <glyph glyph-name="bar" unicode="|" horiz-adv-x="317" 
d="M98 -182v921h121v-921h-121z" />
    <glyph glyph-name="braceright" unicode="}" horiz-adv-x="359" 
d="M141 -47l-0.000976562 282.999l70 60l-70 55v258h-93v99h91c16 0 31.333 -2.66699 46 -8s27.334 -13 38.001 -23s19.167 -22.5 25.5 -37.5s9.5 -32.167 9.5 -51.5v-233l49 -35v-48l-49 -41l2 -249c0 -22 -3.33301 -41.167 -10 -57.5s-15.667 -29.666 -27 -39.999
s-24.5 -18 -39.5 -23s-30.5 -7.5 -46.5 -7.5h-89v99h93z" />
    <glyph glyph-name="asciitilde" unicode="~" 
d="M550 289c-8 -12.667 -17.8301 -25.1709 -29.4971 -37.5039s-24.334 -23.333 -38.001 -33s-28.167 -17.5 -43.5 -23.5s-30.333 -9 -45 -9c-19.333 0 -37.5 3.33301 -54.5 10s-33.5 13.834 -49.5 21.501s-31.833 14.834 -47.5 21.501s-31.834 10 -48.501 10
c-28 0 -56.667 -17.667 -86 -53l-67 61c6.66699 11.333 15.334 23 26.001 35s22.5 22.833 35.5 32.5s27.167 17.5 42.5 23.5s31 9 47 9c18.667 0 36.5 -3.16699 53.5 -9.5s33.5 -13.166 49.5 -20.499s31.833 -14.166 47.5 -20.499s31.5 -9.5 47.5 -9.5
c19.333 0 35.166 4.16699 47.499 12.5s26.166 21.833 41.499 40.5z" />
    <glyph glyph-name="exclamdown" unicode="&#xa1;" horiz-adv-x="325" 
d="M216 292l20 -164v-306h-146v301l20 169h106zM80 429c0 22.667 8 42.167 24 58.5s35.667 24.5 59 24.5c22.667 0 42 -8.16699 58 -24.5s24 -35.833 24 -58.5s-8 -42.167 -24 -58.5s-35.333 -24.5 -58 -24.5c-23.333 0 -43 8.16699 -59 24.5s-24 35.833 -24 58.5z" />
    <glyph glyph-name="cent" unicode="&#xa2;" 
d="M281 -75v95.998h-83c-15.333 0 -29.166 2.66699 -41.499 8s-23 12.5 -32 21.5s-15.833 19.167 -20.5 30.5s-7 23 -7 35v268c0 12 2.33301 23.667 7 35s11.5 21.5 20.5 30.5s19.667 16.167 32 21.5s26.166 8 41.499 8h83v97h42v-97h71c16.667 0 31.167 -2.83301 43.5 -8.5
s22.833 -13 31.5 -22s15.167 -19.167 19.5 -30.5s6.5 -22.666 6.5 -33.999v-66h-123v46h-49v-228h49v46h123v-66c0 -11.333 -2.16699 -22.666 -6.5 -33.999s-10.833 -21.5 -19.5 -30.5s-19.167 -16.333 -31.5 -22s-26.833 -8.5 -43.5 -8.5h-71v-96h-42zM281 135.998v228h-52
v-228h52z" />
    <glyph glyph-name="sterling" unicode="&#xa3;" horiz-adv-x="589" 
d="M380 429l0.00195312 -118.001h-125l-15 -179h187v65h124v-197h-520v132h61l15 179h-65v118h75l14 163c3.33301 33.333 15.166 60.833 35.499 82.5s49.166 32.5 86.499 32.5h157c20 0 37.5 -3.16699 52.5 -9.5s27.5 -14.666 37.5 -24.999s17.5 -22 22.5 -35
s7.5 -26.167 7.5 -39.5v-73h-129v47h-125l-12 -143h116z" />
    <glyph glyph-name="currency" unicode="&#xa4;" horiz-adv-x="556" 
d="M39 453l70.001 71c2 -2.66699 6 -7 12 -13l19.5 -19l19.5 -19c6 -6 10 -10.333 12 -13c31.333 19.333 66.333 29 105 29c38 0 73 -9.33301 105 -28c9.33301 10 19.666 20.5 30.999 31.5l31 30.5l70 -70l-63 -61c19.333 -31.333 29 -66.333 29 -105
c0 -18 -2.5 -36 -7.5 -54s-12.167 -34.667 -21.5 -50c8 -9.33301 18.167 -19.666 30.5 -30.999l32.5 -31l-70 -71l-63 64c-31.333 -19.333 -66 -29 -104 -29c-38.667 0 -73.667 9.66699 -105 29l-64 -64l-69 70l64 63c-9.33301 15.333 -16.5 32 -21.5 50s-7.5 36 -7.5 54
c0 37.333 9.66699 71.666 29 102.999zM174.001 287c0 -14 2.66895 -27.166 8.00195 -39.499s12.666 -23.333 21.999 -33s20.166 -17.167 32.499 -22.5s25.5 -8 39.5 -8s27.333 2.66699 40 8s23.834 12.666 33.501 21.999s17.167 20.333 22.5 33s8 26 8 40
s-2.66699 27.333 -8 40s-12.833 23.667 -22.5 33s-20.834 16.666 -33.501 21.999s-26 8 -40 8s-27.333 -2.66699 -40 -8s-23.5 -12.666 -32.5 -21.999s-16.167 -20.333 -21.5 -33s-8 -26 -8 -40z" />
    <glyph glyph-name="yen" unicode="&#xa5;" 
d="M77 321v67h81l-97 187h-34v134h241v-134h-49l98 -191l90 191h-60v134h223v-134h-37l-93 -187h97v-67h-460zM537 283v-67h-152v-83h65v-133h-286v133h64v83h-151v67h460z" />
    <glyph glyph-name="brokenbar" unicode="&#xa6;" horiz-adv-x="317" 
d="M98 350v389h121v-389h-121zM219 246v-428h-121v428h121z" />
    <glyph glyph-name="section" unicode="&#xa7;" horiz-adv-x="581" 
d="M91 -48l274.001 -0.00390625v124h-195c-14.667 0 -27.667 2.66699 -39 8s-21 12.166 -29 20.499s-14.167 18 -18.5 29s-6.5 22.5 -6.5 34.5v162c0 6.66699 0.833008 13.834 2.5 21.501s4.66699 15 9 22s10.166 13.5 17.499 19.5s16.666 10.667 27.999 14
c-10 4 -18.167 9.33301 -24.5 16s-11.333 13.834 -15 21.501s-6 15.5 -7 23.5s-1.5 15.667 -1.5 23v149c0 11.333 2.5 22.333 7.5 33s12 20.167 21 28.5s19.333 15 31 20s24.167 7.5 37.5 7.5h239l60 -62v-43h-256v-114h192c14.667 0 27.834 -2.66699 39.501 -8
s21.167 -12.333 28.5 -21s13 -18.5 17 -29.5s6 -21.833 6 -32.5v-163c0 -15.333 -3 -29.833 -9 -43.5s-19 -25.167 -39 -34.5c22.667 -9.33301 36.5 -21.666 41.5 -36.999s7.5 -30.666 7.5 -45.999v-161c0 -11.333 -2.66699 -22.166 -8 -32.499s-12.5 -19.833 -21.5 -28.5
s-19.333 -15.5 -31 -20.5s-24.167 -7.5 -37.5 -7.5h-262l-59 62v45zM207.001 207.996h169v178h-169v-178z" />
    <glyph glyph-name="dieresis" unicode="&#xa8;" horiz-adv-x="580" 
d="M109 636c0 21.333 7.5 39.5 22.5 54.5s33.167 22.5 54.5 22.5s39.5 -7.5 54.5 -22.5s22.5 -33.167 22.5 -54.5s-7.5 -39.5 -22.5 -54.5s-33.167 -22.5 -54.5 -22.5s-39.5 7.5 -54.5 22.5s-22.5 33.167 -22.5 54.5zM326 636c0 21.333 7.66699 39.5 23 54.5
s33.666 22.5 54.999 22.5s39.333 -7.5 54 -22.5s22 -33.167 22 -54.5s-7.33301 -39.5 -22 -54.5s-32.667 -22.5 -54 -22.5s-39.666 7.5 -54.999 22.5s-23 33.167 -23 54.5z" />
    <glyph glyph-name="copyright" unicode="&#xa9;" horiz-adv-x="809" 
d="M771 351c0 -54.667 -10 -104 -30 -148s-46.833 -81.5 -80.5 -112.5s-72.667 -55 -117 -72s-90.833 -25.5 -139.5 -25.5s-95 8.5 -139 25.5s-82.833 41 -116.5 72s-60.5 68.5 -80.5 112.5s-30 93.333 -30 148c0 54 10 103 30 147s46.833 81.5 80.5 112.5s72.5 55 116.5 72
s90.333 25.5 139 25.5s95.167 -8.5 139.5 -25.5s83.333 -41 117 -72s60.5 -68.5 80.5 -112.5s30 -93 30 -147zM690 351c0 42 -7.66699 80.4971 -23 115.497s-36 65 -62 90s-56.333 44.5 -91 58.5s-71.334 21 -110.001 21c-39.333 0 -76.333 -7 -111 -21s-65 -33.5 -91 -58.5
s-46.5 -55 -61.5 -90s-22.5 -73.5 -22.5 -115.5s7.5 -80.667 22.5 -116s35.5 -65.666 61.5 -90.999s56.333 -45 91 -59s71.667 -21 111 -21c38.667 0 75.334 6.5 110.001 19.5s65 31.833 91 56.5s46.667 54.834 62 90.501s23 75.834 23 120.501zM346 219.997
l132 -0.00195312v52h88v-68c0 -8.66699 -2.33301 -17.167 -7 -25.5s-10.834 -15.833 -18.501 -22.5s-16.167 -12.167 -25.5 -16.5s-18.666 -6.5 -27.999 -6.5h-167c-8.66699 0 -17.334 2 -26.001 6s-16.667 9.16699 -24 15.5s-13.333 13.833 -18 22.5s-7 17.667 -7 27v277
c0 8.66699 2.33301 17.334 7 26.001s10.667 16.334 18 23.001s15.333 12 24 16s17.334 6 26.001 6h111l46 -48v48h82v-134h-82v47h-131v-245z" />
    <glyph glyph-name="ordfeminine" unicode="&#xaa;" horiz-adv-x="400" 
d="M137 373h99v38h-99v-38zM236 476l-0.000976562 45.999h-88v-24h-100v37c0 8.66699 2.33301 17.834 7 27.501s11 18.167 19 25.5s17.5 13.5 28.5 18.5s23.167 7.5 36.5 7.5h111c22.667 0 40.834 -3 54.501 -9s24 -13.5 31 -22.5s11.5 -19 13.5 -30s3 -21.5 3 -31.5v-148
h31v-93h-147v39l-40 -39h-92c-24 0 -43.167 7.33301 -57.5 22s-21.5 30.667 -21.5 48v52c0 18 6.83301 34.833 20.5 50.5s33.167 23.5 58.5 23.5h132z" />
    <glyph glyph-name="guillemotleft" unicode="&#xab;" horiz-adv-x="547" 
d="M43 255l185 201l69 -48l-116 -172l24.5 -36l33 -48l33 -47.5l24.5 -35.5l-71 -52l-182 200v38zM246 255l184.001 201l69 -48l-116 -172l24.5 -36l33 -48l33 -47.5c10.333 -15 18.166 -26.833 23.499 -35.5l-70 -52l-181 200v38z" />
    <glyph glyph-name="logicalnot" unicode="&#xac;" 
d="M59 348h473v-288h-105v184h-368v104z" />
    <glyph glyph-name="sfthyphen" unicode="&#xad;" horiz-adv-x="313" 
d="M32 199v110h250v-110h-250z" />
    <glyph glyph-name="registered" unicode="&#xae;" horiz-adv-x="566" 
d="M506 493c0 -32.667 -6.16699 -62.334 -18.5 -89.001s-28.666 -49.5 -48.999 -68.5s-44 -33.667 -71 -44s-55.167 -15.5 -84.5 -15.5s-57.5 5.16699 -84.5 15.5s-50.833 25 -71.5 44s-37 41.833 -49 68.5s-18 56.334 -18 89.001c0 33.333 6 63.333 18 90
s28.333 49.5 49 68.5s44.5 33.667 71.5 44s55.167 15.5 84.5 15.5s57.5 -5.16699 84.5 -15.5s50.667 -25 71 -44s36.666 -41.833 48.999 -68.5s18.5 -56.667 18.5 -90zM454 493c0 25.333 -4.5 48.666 -13.5 69.999s-21.333 39.666 -37 54.999s-33.834 27.166 -54.501 35.499
s-42.667 12.5 -66 12.5c-24 0 -46.333 -4.16699 -67 -12.5s-38.834 -20.166 -54.501 -35.499s-28 -33.666 -37 -54.999s-13.5 -44.666 -13.5 -69.999s4.5 -48.5 13.5 -69.5s21.333 -39 37 -54s33.834 -26.833 54.501 -35.5s43 -13 67 -13c23.333 0 45.333 4 66 12
s38.834 19.333 54.501 34s28 32.667 37 54s13.5 45.333 13.5 72zM276 471h-19v-47h19v-51h-97v51h20v142h-20v49h161c13.333 0 23.833 -4.33301 31.5 -13s11.5 -17.667 11.5 -27v-65c0 -9.33301 -3.66699 -18.166 -11 -26.499s-17 -12.5 -29 -12.5h-8l4.5 -9l7.5 -15.5
c2.66699 -5.66699 5 -10.834 7 -15.501s3.33301 -7.66699 4 -9h30v-49h-68zM257 565v-44h65v44h-65z" />
    <glyph glyph-name="macron" unicode="&#xaf;" horiz-adv-x="580" 
d="M129 686h323v-104h-323v104z" />
    <glyph glyph-name="degree" unicode="&#xb0;" horiz-adv-x="435" 
d="M219 412c-21.333 0 -41.002 3.83301 -59.002 11.5s-33.667 18 -47 31s-23.833 28.333 -31.5 46s-11.5 36.5 -11.5 56.5c0 20.667 3.83301 39.834 11.5 57.501s18.334 33 32.001 46s29.5 23.333 47.5 31s37.333 11.5 58 11.5s39.834 -3.83301 57.501 -11.5s33 -18 46 -31
s23.333 -28.333 31 -46s11.5 -36.834 11.5 -57.501c0 -20 -3.83301 -38.833 -11.5 -56.5s-18.167 -33 -31.5 -46s-28.833 -23.333 -46.5 -31s-36.5 -11.5 -56.5 -11.5zM216.998 630c-19.333 0 -36.166 -7 -50.499 -21s-21.5 -31.333 -21.5 -52
c0 -19.333 7.16699 -36 21.5 -50s31.166 -21 50.499 -21s36.333 7 51 21s22 30.667 22 50c0 20 -7.33301 37.167 -22 51.5s-31.667 21.5 -51 21.5z" />
    <glyph glyph-name="plusminus" unicode="&#xb1;" 
d="M60 413h184v173h102v-173h186v-100h-186v-173h-102v173h-184v100zM532 105v-102h-472v102h472z" />
    <glyph glyph-name="twosuperior" unicode="&#xb2;" horiz-adv-x="384" 
d="M136 490l0.00292969 -26.999h121v41h98v-134h-331v120c0 19.333 3.5 35.833 10.5 49.5s20.833 26.167 41.5 37.5l31 17.5l51 28.5l50.5 28.5c15.667 9 26.167 15.167 31.5 18.5v33h-96v-36h-104v47c0 8 1 16.833 3 26.5s6.16699 18.5 12.5 26.5
s15.166 14.833 26.499 20.5s26.666 8.5 45.999 8.5h147c23.333 0 42.166 -7.33301 56.499 -22s21.5 -31.334 21.5 -50.001v-64c0 -21.333 -5 -37.333 -15 -48s-23.667 -21 -41 -31z" />
    <glyph glyph-name="threesuperior" unicode="&#xb3;" horiz-adv-x="384" 
d="M41 796h303.002v-88l-90 -72h28c24.667 0 43.167 -6.5 55.5 -19.5s18.5 -28.167 18.5 -45.5v-129c0 -8 -1.83301 -16.333 -5.5 -25s-8.83398 -16.5 -15.501 -23.5s-14.834 -12.667 -24.501 -17s-20.5 -6.5 -32.5 -6.5h-169c-27.333 0 -47.833 8 -61.5 24
s-20.5 33 -20.5 51v43h106v-24h112v88h-118l-37 67l101 85h-150v92z" />
    <glyph glyph-name="acute" unicode="&#xb4;" horiz-adv-x="580" 
d="M193 583l108 201l107 -67l-135 -178z" />
    <glyph glyph-name="mu" unicode="&#xb5;" horiz-adv-x="609" 
d="M27 378v122h240v-122h-43v-249h156v249h-47v122h196l-1 -378h51v-122h-199v71l-70 -71h-86v-55h43v-123h-240v123h48v433h-48z" />
    <glyph glyph-name="mu" unicode="&#x3bc;" horiz-adv-x="609" 
d="M27 378v122h240v-122h-43v-249h156v249h-47v122h196l-1 -378h51v-122h-199v71l-70 -71h-86v-55h43v-123h-240v123h48v433h-48z" />
    <glyph glyph-name="paragraph" unicode="&#xb6;" horiz-adv-x="543" 
d="M212 331l-51 0.000976562c-18.667 0 -35.5 3.33301 -50.5 10s-27.667 15.667 -38 27s-18.333 24.333 -24 39s-8.5 30 -8.5 46v122c0 17.333 2.66699 34 8 50s13.333 30.167 24 42.5s23.5 22.166 38.5 29.499s32.167 11 51.5 11l331 1v-85h-37v-754h-88v754h-65v-754h-91
v461z" />
    <glyph glyph-name="periodcentered" unicode="&#xb7;" horiz-adv-x="292" 
d="M61 288c0 23.333 8.33301 43.333 25 60s36.667 25 60 25s43.333 -8.33301 60 -25s25 -36.667 25 -60s-8.33301 -43.333 -25 -60s-36.667 -25 -60 -25s-43.333 8.33301 -60 25s-25 36.667 -25 60z" />
    <glyph glyph-name="cedilla" unicode="&#xb8;" horiz-adv-x="519" 
d="M337 33l-55 -69h56c18 0 31.5 -5 40.5 -15s13.5 -20.667 13.5 -32v-85c0 -11.333 -4.83301 -22.333 -14.5 -33s-23.5 -16 -41.5 -16h-134c-16.667 0 -30 5.16699 -40 15.5s-15 21.5 -15 33.5v39h86v-20h71v50h-70l-39 47l62 85h80z" />
    <glyph glyph-name="onesuperior" unicode="&#xb9;" horiz-adv-x="384" 
d="M64 461h72v224h-78v60l89 51h35c26.667 0 44.667 -6.83301 54 -20.5s14 -29.5 14 -47.5v-267h75v-91h-261v91z" />
    <glyph glyph-name="ordmasculine" unicode="&#xba;" horiz-adv-x="392" 
d="M361 354c0 -8.66699 -2.16699 -17.5 -6.5 -26.5s-10.333 -17 -18 -24s-16.5 -12.667 -26.5 -17s-21 -6.5 -33 -6.5h-165c-24 0 -43.333 7.66699 -58 23s-22 32.333 -22 51v187c0 8.66699 2 17.5 6 26.5s9.5 16.833 16.5 23.5s15.5 12.167 25.5 16.5s20.667 6.5 32 6.5
h169c25.333 0 45 -7.66699 59 -23s21 -32 21 -50v-187zM147 377h98v141h-98v-141z" />
    <glyph glyph-name="guillemotright" unicode="&#xbb;" horiz-adv-x="547" 
d="M503 217l-182 -200l-70 52l24.5 35.5l33 47.5l33 48l24.5 36l-116 172l69 48l184 -201v-38zM301 217l-181 -200l-71 52l24.5 35.5l32.5 47.5l32.5 48l24.5 36l-115 172l69 48l184 -201v-38z" />
    <glyph glyph-name="onequarter" unicode="&#xbc;" horiz-adv-x="890" 
d="M64 371h72v224h-78v60l89 51h35c26.667 0 44.667 -6.83301 54 -20.5s14 -29.5 14 -47.5v-267h75v-91h-261v91zM618 86h46v34h-193v65l208 241h98v-234h61v-72h-61v-34h54v-86h-213v86zM665 192v91l-77 -91h77zM249 -34l302 772h92l-303 -772h-91z" />
    <glyph glyph-name="onehalf" unicode="&#xbd;" horiz-adv-x="890" 
d="M64 371h72v224h-78v60l89 51h35c26.667 0 44.667 -6.83301 54 -20.5s14 -29.5 14 -47.5v-267h75v-91h-261v91zM623 125l0.00292969 -33h121v41h98v-133h-332v116c0 19.333 3.66699 36 11 50s21 26.667 41 38l30.5 17.5l50 28.5l50 28.5c15.667 9 26.167 14.833 31.5 17.5
v36h-90v-36h-103v47c0 8 1 16.833 3 26.5s6.16699 18.667 12.5 27s15.166 15.333 26.499 21s26.666 8.5 45.999 8.5h139c23.333 0 42.166 -7.5 56.499 -22.5s21.5 -31.5 21.5 -49.5v-62c0 -21.333 -4.83301 -37.333 -14.5 -48s-23.167 -21 -40.5 -31zM241.003 -34l302 772
h92l-303 -772h-91z" />
    <glyph glyph-name="threequarters" unicode="&#xbe;" horiz-adv-x="890" 
d="M618 86h46v34h-193v65l208 241h98v-234h61v-72h-61v-34h54v-86h-213v86zM665 192v91l-77 -91h77zM41 706h303.002v-88l-96 -72h34c24.667 0 43.167 -6.5 55.5 -19.5s18.5 -28.167 18.5 -45.5v-129c0 -8 -1.83301 -16.333 -5.5 -25s-8.83398 -16.5 -15.501 -23.5
s-14.834 -12.667 -24.501 -17s-20.5 -6.5 -32.5 -6.5h-169c-27.333 0 -47.833 8 -61.5 24s-20.5 33 -20.5 51v43h106v-24h112v95h-118l-32 63l103 82h-157v92zM251.002 -34l302 772h92l-303 -772h-91z" />
    <glyph glyph-name="questiondown" unicode="&#xbf;" horiz-adv-x="611" 
d="M434 306l0.000976562 -69.999c0 -16 -0.666992 -30.167 -2 -42.5s-4.33301 -23.5 -9 -33.5s-11.334 -19.167 -20.001 -27.5s-20 -16.5 -34 -24.5l-161 -86v-70h187v43h136v-46c0 -12 -1.5 -25.5 -4.5 -40.5s-8.83301 -28.833 -17.5 -41.5s-21.167 -23.334 -37.5 -32.001
s-37.833 -13 -64.5 -13h-237c-18 0 -33.833 3 -47.5 9s-25.167 14 -34.5 24s-16.333 21.333 -21 34s-7 25.667 -7 39v95c0 30.667 6 54.667 18 72s31.667 33.333 59 48l157 83v80h140zM444.001 429.001c0 -23.333 -8 -43 -24 -59s-35.333 -24 -58 -24
c-23.333 0 -43 8 -59 24s-24 35.667 -24 59c0 22.667 8 42 24 58s35.667 24 59 24c22.667 0 42 -8 58 -24s24 -35.333 24 -58z" />
    <glyph glyph-name="Agrave" unicode="&#xc0;" horiz-adv-x="711" 
d="M458 203h-237l-24 -71h73v-132h-256v132h46l210 582h173l203 -582h47v-132h-290v132h78zM339 562l-80 -245h160l-75 245h-5zM369 742l-205 92l61 111l188 -129z" />
    <glyph glyph-name="Aacute" unicode="&#xc1;" horiz-adv-x="711" 
d="M458 203h-237l-24 -71h73v-132h-256v132h46l210 582h173l203 -582h47v-132h-290v132h78zM339 562l-80 -245h160l-75 245h-5zM304 809l188 129l61 -111l-204 -92z" />
    <glyph glyph-name="Acircumflex" unicode="&#xc2;" horiz-adv-x="711" 
d="M458 203h-237l-24 -71h73v-132h-256v132h46l210 582h173l203 -582h47v-132h-290v132h78zM339 562l-80 -245h160l-75 245h-5zM354 805l-159 -79l-35 52l175 148h42l178 -147l-40 -53z" />
    <glyph glyph-name="Atilde" unicode="&#xc3;" horiz-adv-x="711" 
d="M458 203h-237l-24 -71h73v-132h-256v132h46l210 582h173l203 -582h47v-132h-290v132h78zM423 748c-14.667 0 -28.001 1.8291 -40.001 5.49609s-23.5 7.83398 -34.5 12.501s-21.667 8.83398 -32 12.501s-20.833 5.5 -31.5 5.5c-13.333 0 -24.833 -4.33301 -34.5 -13
s-18.834 -17.667 -27.501 -27l-12.5 8l-20 13l-20 13l-12.5 8c2.66699 6.66699 7.33398 15.667 14.001 27s15 22.333 25 33s22 20 36 28s30 12 48 12c14.667 0 28 -2.16699 40 -6.5s23.333 -9 34 -14l30.5 -14c9.66699 -4.33301 19.5 -6.5 29.5 -6.5c13.333 0 25 4 35 12
s20 17 30 27l65 -46c-4 -8 -9.33301 -17.167 -16 -27.5s-15.167 -20.166 -25.5 -29.499s-22.166 -17.166 -35.499 -23.499s-28.333 -9.5 -45 -9.5zM338.999 561.996l-80 -245h160l-75 245h-5z" />
    <glyph glyph-name="Adieresis" unicode="&#xc4;" horiz-adv-x="711" 
d="M458 203h-237l-24 -71h73v-132h-256v132h46l210 582h173l203 -582h47v-132h-290v132h78zM339 562l-80 -245h160l-75 245h-5zM160 815c0 21.333 7.83301 39.6699 23.5 55.0029s34.167 23 55.5 23c10.667 0 20.667 -2 30 -6s17.5 -9.5 24.5 -16.5s12.667 -15.333 17 -25
s6.5 -19.834 6.5 -30.501s-2.16699 -20.834 -6.5 -30.501s-10 -18 -17 -25s-15.167 -12.5 -24.5 -16.5s-19.333 -6 -30 -6c-21.333 0 -39.833 7.66699 -55.5 23s-23.5 33.666 -23.5 54.999zM381 815.004c0 21.333 7.83301 39.6699 23.5 55.0029s34.167 23 55.5 23
c10.667 0 20.667 -2 30 -6s17.5 -9.5 24.5 -16.5s12.5 -15.333 16.5 -25s6 -19.834 6 -30.501s-2 -20.834 -6 -30.501s-9.5 -18 -16.5 -25s-15.167 -12.5 -24.5 -16.5s-19.333 -6 -30 -6c-21.333 0 -39.833 7.66699 -55.5 23s-23.5 33.666 -23.5 54.999z" />
    <glyph glyph-name="Aring" unicode="&#xc5;" horiz-adv-x="711" 
d="M458 203h-237l-24 -71h73v-132h-256v132h46l210 582h173l203 -582h47v-132h-290v132h78zM339 562l-80 -245h160l-75 245h-5zM354 747c-16.667 0 -32.1689 3.00195 -46.502 9.00195s-26.833 14.167 -37.5 24.5s-19 22.5 -25 36.5s-9 29 -9 45c0 15.333 3 30 9 44
s14.333 26.167 25 36.5s23.167 18.666 37.5 24.999s29.833 9.5 46.5 9.5s32 -3 46 -9s26.333 -14.333 37 -25s19 -22.834 25 -36.501s9 -28.5 9 -44.5s-3.16699 -31 -9.5 -45s-14.666 -26.167 -24.999 -36.5s-22.666 -18.5 -36.999 -24.5s-29.5 -9 -45.5 -9z
M353.998 909.002c-13.333 0 -24.5 -4.5 -33.5 -13.5s-13.5 -20.167 -13.5 -33.5s4.5 -24.833 13.5 -34.5s20.167 -14.5 33.5 -14.5c12.667 0 23.5 4.83301 32.5 14.5s13.5 21.167 13.5 34.5c0 12.667 -4.5 23.667 -13.5 33s-19.833 14 -32.5 14z" />
    <glyph glyph-name="AE" unicode="&#xc6;" horiz-adv-x="1030" 
d="M245 204l-25 -35.5l-25 -36.5h81v-132h-268v132h55l318 442h-58v134h659v-229h-126v95h-209v-140h226v-124h-226v-175h225v130h126v-265h-561v133h53v71h-245zM327 318h163v235z" />
    <glyph glyph-name="Ccedilla" unicode="&#xc7;" horiz-adv-x="596" 
d="M218 135h209v77h136v-103c0 -12.667 -3.66699 -25.5 -11 -38.5s-16.833 -24.667 -28.5 -35s-24.667 -18.833 -39 -25.5s-28.5 -10 -42.5 -10h-92l-28 -36h56c18 0 31.5 -5 40.5 -15s13.5 -20.667 13.5 -32v-85c0 -11.333 -4.83301 -22.333 -14.5 -33s-23.5 -16 -41.5 -16
h-134c-16.667 0 -30 5.16699 -40 15.5s-15 21.5 -15 33.5v39h86v-20h71v50h-70l-39 47l38 52h-96c-14 0 -27.833 3.16699 -41.5 9.5s-26 14.5 -37 24.5s-20 21.5 -27 34.5s-10.5 26.5 -10.5 40.5v490c0 14 3.33301 27.5 10 40.5s15.5 24.5 26.5 34.5s23.5 18.167 37.5 24.5
s28 9.5 42 9.5h180l69 -73v73h126v-203h-126v68h-208v-438z" />
    <glyph glyph-name="Egrave" unicode="&#xc8;" horiz-adv-x="636" 
d="M41 134h53v441h-54v133h546v-229h-135v96h-200v-140h221v-125h-221v-175h215v131h136v-266h-561v134zM368 738l-205 92l61 111l188 -129z" />
    <glyph glyph-name="Eacute" unicode="&#xc9;" horiz-adv-x="636" 
d="M41 134h53v441h-54v133h546v-229h-135v96h-200v-140h221v-125h-221v-175h215v131h136v-266h-561v134zM231 805l188 129l61 -111l-204 -92z" />
    <glyph glyph-name="Ecircumflex" unicode="&#xca;" horiz-adv-x="636" 
d="M41 134h53v441h-54v133h546v-229h-135v96h-200v-140h221v-125h-221v-175h215v131h136v-266h-561v134zM326 812l-159 -79l-35 52l175 148h42l178 -147l-40 -53z" />
    <glyph glyph-name="Edieresis" unicode="&#xcb;" horiz-adv-x="636" 
d="M41 134h53v441h-54v133h546v-229h-135v96h-200v-140h221v-125h-221v-175h215v131h136v-266h-561v134zM149 806c0 21.333 7.5 39.5 22.5 54.5s33.167 22.5 54.5 22.5s39.5 -7.5 54.5 -22.5s22.5 -33.167 22.5 -54.5s-7.5 -39.5 -22.5 -54.5s-33.167 -22.5 -54.5 -22.5
s-39.5 7.5 -54.5 22.5s-22.5 33.167 -22.5 54.5zM366 806c0 21.333 7.66699 39.5 23 54.5s33.666 22.5 54.999 22.5s39.333 -7.5 54 -22.5s22 -33.167 22 -54.5s-7.33301 -39.5 -22 -54.5s-32.667 -22.5 -54 -22.5s-39.666 7.5 -54.999 22.5s-23 33.167 -23 54.5z" />
    <glyph glyph-name="Igrave" unicode="&#xcc;" horiz-adv-x="431" 
d="M293 132h66v-132h-287v132h64v444h-65v132h288v-132h-66v-444zM236 738l-205 92l61 111l188 -129z" />
    <glyph glyph-name="Iacute" unicode="&#xcd;" horiz-adv-x="431" 
d="M293 132h66v-132h-287v132h64v444h-65v132h288v-132h-66v-444zM166 805l188 129l61 -111l-204 -92z" />
    <glyph glyph-name="Icircumflex" unicode="&#xce;" horiz-adv-x="431" 
d="M293 132h66v-132h-287v132h64v444h-65v132h288v-132h-66v-444zM215 812l-159 -79l-35 52l175 148h42l178 -147l-40 -53z" />
    <glyph glyph-name="Idieresis" unicode="&#xcf;" horiz-adv-x="431" 
d="M293 132h66v-132h-287v132h64v444h-65v132h288v-132h-66v-444zM26 817c0 10.667 2.16602 20.667 6.49902 30s10 17.5 17 24.5s15.333 12.667 25 17s19.834 6.5 30.501 6.5c21.333 0 39.5 -7.66699 54.5 -23s22.5 -33.666 22.5 -54.999c0 -10.667 -2 -20.834 -6 -30.501
s-9.5 -18 -16.5 -25s-15.167 -12.667 -24.5 -17s-19.333 -6.5 -30 -6.5c-21.333 0 -39.833 7.83301 -55.5 23.5s-23.5 34.167 -23.5 55.5zM246.999 817c0 21.333 7.66797 39.666 23.001 54.999s33.666 23 54.999 23c10.667 0 20.667 -2.16699 30 -6.5s17.5 -10 24.5 -17
s12.5 -15.167 16.5 -24.5s6 -19.333 6 -30c0 -21.333 -7.5 -39.833 -22.5 -55.5s-33.167 -23.5 -54.5 -23.5c-10.667 0 -20.667 2.16699 -30 6.5s-17.5 10 -24.5 17s-12.667 15.333 -17 25s-6.5 19.834 -6.5 30.501z" />
    <glyph glyph-name="Eth" unicode="&#xd0;" horiz-adv-x="674" 
d="M15 400l79 -0.000976562v176h-53v132h458c18 0 34.167 -3.33301 48.5 -10s26.333 -15.334 36 -26.001s17.167 -22.667 22.5 -36s8 -26.333 8 -39v-486c0 -14 -3.16699 -27.667 -9.5 -41s-14.833 -25.166 -25.5 -35.499s-23 -18.666 -37 -24.999s-28.333 -9.5 -43 -9.5
h-457v133h52v178h-79v89zM251 399.999h104v-89h-104v-176h206v438h-206v-173z" />
    <glyph glyph-name="Ntilde" unicode="&#xd1;" horiz-adv-x="772" 
d="M539 263v313h-53v132h244v-132h-58v-579h-149l-295 467h-5v-332h53v-132h-234v132h53v444h-54v132h211l282 -445h5zM449 749c-14.667 0 -28.001 1.8291 -40.001 5.49609s-23.5 7.83398 -34.5 12.501s-21.667 8.83398 -32 12.501s-20.833 5.5 -31.5 5.5
c-13.333 0 -24.833 -4.33301 -34.5 -13s-18.834 -17.667 -27.501 -27l-12.5 8l-20 13l-20 13l-12.5 8c2.66699 6.66699 7.33398 15.667 14.001 27s15 22.333 25 33s22 20 36 28s30 12 48 12c14.667 0 28 -2.16699 40 -6.5s23.333 -9 34 -14l30.5 -14
c9.66699 -4.33301 19.5 -6.5 29.5 -6.5c13.333 0 25 4 35 12s20 17 30 27l65 -46c-4 -8 -9.33301 -17.167 -16 -27.5s-15.167 -20.166 -25.5 -29.499s-22.166 -17.166 -35.499 -23.499s-28.333 -9.5 -45 -9.5z" />
    <glyph glyph-name="Ograve" unicode="&#xd2;" horiz-adv-x="658" 
d="M61 599c0 13.333 3.33105 26.501 9.99805 39.501s15.334 24.667 26.001 35s23 18.666 37 24.999s28.333 9.5 43 9.5h305c14.667 0 29 -3.16699 43 -9.5s26.333 -14.666 37 -24.999s19.167 -22 25.5 -35s9.5 -26.167 9.5 -39.5v-490c0 -12.667 -3.16699 -25.5 -9.5 -38.5
s-14.666 -24.667 -24.999 -35s-22.5 -18.833 -36.5 -25.5s-28.667 -10 -44 -10h-305c-14 0 -28 3.16699 -42 9.5s-26.5 14.666 -37.5 24.999s-19.833 22 -26.5 35s-10 26.167 -10 39.5v490zM217.998 573.001v-438h222v438h-222zM357.998 738.001l-205 92l61 111l188 -129z
" />
    <glyph glyph-name="Oacute" unicode="&#xd3;" horiz-adv-x="658" 
d="M61 599c0 13.333 3.33105 26.501 9.99805 39.501s15.334 24.667 26.001 35s23 18.666 37 24.999s28.333 9.5 43 9.5h305c14.667 0 29 -3.16699 43 -9.5s26.333 -14.666 37 -24.999s19.167 -22 25.5 -35s9.5 -26.167 9.5 -39.5v-490c0 -12.667 -3.16699 -25.5 -9.5 -38.5
s-14.666 -24.667 -24.999 -35s-22.5 -18.833 -36.5 -25.5s-28.667 -10 -44 -10h-305c-14 0 -28 3.16699 -42 9.5s-26.5 14.666 -37.5 24.999s-19.833 22 -26.5 35s-10 26.167 -10 39.5v490zM217.998 573.001v-438h222v438h-222zM260.998 805.001l188 129l61 -111l-204 -92z
" />
    <glyph glyph-name="Ocircumflex" unicode="&#xd4;" horiz-adv-x="658" 
d="M61 599c0 13.333 3.33105 26.501 9.99805 39.501s15.334 24.667 26.001 35s23 18.666 37 24.999s28.333 9.5 43 9.5h305c14.667 0 29 -3.16699 43 -9.5s26.333 -14.666 37 -24.999s19.167 -22 25.5 -35s9.5 -26.167 9.5 -39.5v-490c0 -12.667 -3.16699 -25.5 -9.5 -38.5
s-14.666 -24.667 -24.999 -35s-22.5 -18.833 -36.5 -25.5s-28.667 -10 -44 -10h-305c-14 0 -28 3.16699 -42 9.5s-26.5 14.666 -37.5 24.999s-19.833 22 -26.5 35s-10 26.167 -10 39.5v490zM217.998 573.001v-438h222v438h-222zM328.998 812.001l-159 -79l-35 52l175 148h42
l178 -147l-40 -53z" />
    <glyph glyph-name="Otilde" unicode="&#xd5;" horiz-adv-x="658" 
d="M61 599c0 13.333 3.33105 26.501 9.99805 39.501s15.334 24.667 26.001 35s23 18.666 37 24.999s28.333 9.5 43 9.5h305c14.667 0 29 -3.16699 43 -9.5s26.333 -14.666 37 -24.999s19.167 -22 25.5 -35s9.5 -26.167 9.5 -39.5v-490c0 -12.667 -3.16699 -25.5 -9.5 -38.5
s-14.666 -24.667 -24.999 -35s-22.5 -18.833 -36.5 -25.5s-28.667 -10 -44 -10h-305c-14 0 -28 3.16699 -42 9.5s-26.5 14.666 -37.5 24.999s-19.833 22 -26.5 35s-10 26.167 -10 39.5v490zM217.998 573.001v-438h222v438h-222zM399.998 741.001
c-14.667 0 -28.001 1.8291 -40.001 5.49609s-23.5 7.83398 -34.5 12.501s-21.667 8.83398 -32 12.501s-20.833 5.5 -31.5 5.5c-13.333 0 -24.833 -4.33301 -34.5 -13s-18.834 -17.667 -27.501 -27l-12.5 8l-20 13l-20 13l-12.5 8c2.66699 6.66699 7.33398 15.667 14.001 27
s15 22.333 25 33s22 20 36 28s30 12 48 12c14.667 0 28 -2.16699 40 -6.5s23.333 -9 34 -14l30.5 -14c9.66699 -4.33301 19.5 -6.5 29.5 -6.5c13.333 0 25 4 35 12s20 17 30 27l65 -46c-4 -8 -9.33301 -17.167 -16 -27.5s-15.167 -20.166 -25.5 -29.499
s-22.166 -17.166 -35.499 -23.499s-28.333 -9.5 -45 -9.5z" />
    <glyph glyph-name="Odieresis" unicode="&#xd6;" horiz-adv-x="658" 
d="M61 599c0 13.333 3.33105 26.501 9.99805 39.501s15.334 24.667 26.001 35s23 18.666 37 24.999s28.333 9.5 43 9.5h305c14.667 0 29 -3.16699 43 -9.5s26.333 -14.666 37 -24.999s19.167 -22 25.5 -35s9.5 -26.167 9.5 -39.5v-490c0 -12.667 -3.16699 -25.5 -9.5 -38.5
s-14.666 -24.667 -24.999 -35s-22.5 -18.833 -36.5 -25.5s-28.667 -10 -44 -10h-305c-14 0 -28 3.16699 -42 9.5s-26.5 14.666 -37.5 24.999s-19.833 22 -26.5 35s-10 26.167 -10 39.5v490zM217.998 573.001v-438h222v438h-222zM143.998 813.001
c0 21.333 7.83301 39.6699 23.5 55.0029s34.167 23 55.5 23c10.667 0 20.667 -2 30 -6s17.5 -9.5 24.5 -16.5s12.667 -15.333 17 -25s6.5 -19.834 6.5 -30.501s-2.16699 -20.834 -6.5 -30.501s-10 -18 -17 -25s-15.167 -12.5 -24.5 -16.5s-19.333 -6 -30 -6
c-21.333 0 -39.833 7.66699 -55.5 23s-23.5 33.666 -23.5 54.999zM364.998 813.005c0 21.333 7.83301 39.6699 23.5 55.0029s34.167 23 55.5 23c10.667 0 20.667 -2 30 -6s17.5 -9.5 24.5 -16.5s12.5 -15.333 16.5 -25s6 -19.834 6 -30.501s-2 -20.834 -6 -30.501
s-9.5 -18 -16.5 -25s-15.167 -12.5 -24.5 -16.5s-19.333 -6 -30 -6c-21.333 0 -39.833 7.66699 -55.5 23s-23.5 33.666 -23.5 54.999z" />
    <glyph glyph-name="multiply" unicode="&#xd7;" 
d="M151 487l143 -144l145 145l74 -74l-145 -145l144 -144l-72 -72l-144 144l-145 -144l-74 73l144 145l-143 143z" />
    <glyph glyph-name="Oslash" unicode="&#xd8;" horiz-adv-x="658" 
d="M61 599c0 13.333 3.3291 26.5 9.99609 39.5s15.334 24.667 26.001 35s22.834 18.666 36.501 24.999s27.834 9.5 42.501 9.5h305c7.33301 0 14.5 -1.16699 21.5 -3.5s14.167 -5.16602 21.5 -8.49902c5.33301 9.33301 11.166 18.5 17.499 27.5s12.166 18.167 17.499 27.5
l42 -29l-18.5 -28.5l-19.5 -28.5c10 -9.33301 18 -19.666 24 -30.999s9 -23 9 -35v-474c0 -18 -3.66699 -35.333 -11 -52c-7.33301 -19.333 -20.666 -36.333 -39.999 -51s-40.666 -22 -63.999 -22h-305c-16 0 -31.333 3.66699 -46 11l-48 -71l-41 28l24.5 37.5l25.5 37.5
c-9.33301 9.33301 -16.666 19.666 -21.999 30.999s-8 23 -8 35v490zM439.996 135v342l-223 -332v-10h223zM216.996 573v-338l223 333v5h-223z" />
    <glyph glyph-name="Ugrave" unicode="&#xd9;" horiz-adv-x="723" 
d="M470 135l-0.000976562 440.999h-67v132h278v-132h-54v-460c0 -14 -2.83301 -28 -8.5 -42s-13.667 -26.5 -24 -37.5s-23.166 -19.833 -38.499 -26.5s-32.333 -10 -51 -10h-291c-19.333 0 -36.5 3.33301 -51.5 10s-27.667 15.334 -38 26.001s-18.333 23 -24 37
s-8.5 28.333 -8.5 43v460h-51v132h269v-132h-62v-441h222zM361.999 737.999l-205 92l61 111l188 -129z" />
    <glyph glyph-name="Uacute" unicode="&#xda;" horiz-adv-x="723" 
d="M470 135l-0.000976562 440.999h-67v132h278v-132h-54v-460c0 -14 -2.83301 -28 -8.5 -42s-13.667 -26.5 -24 -37.5s-23.166 -19.833 -38.499 -26.5s-32.333 -10 -51 -10h-291c-19.333 0 -36.5 3.33301 -51.5 10s-27.667 15.334 -38 26.001s-18.333 23 -24 37
s-8.5 28.333 -8.5 43v460h-51v132h269v-132h-62v-441h222zM276.999 804.999l188 129l61 -111l-204 -92z" />
    <glyph glyph-name="Ucircumflex" unicode="&#xdb;" horiz-adv-x="723" 
d="M470 135l-0.000976562 440.999h-67v132h278v-132h-54v-460c0 -14 -2.83301 -28 -8.5 -42s-13.667 -26.5 -24 -37.5s-23.166 -19.833 -38.499 -26.5s-32.333 -10 -51 -10h-291c-19.333 0 -36.5 3.33301 -51.5 10s-27.667 15.334 -38 26.001s-18.333 23 -24 37
s-8.5 28.333 -8.5 43v460h-51v132h269v-132h-62v-441h222zM350.999 811.999l-159 -79l-35 52l175 148h42l178 -147l-40 -53z" />
    <glyph glyph-name="Udieresis" unicode="&#xdc;" horiz-adv-x="723" 
d="M470 135l-0.000976562 440.999h-67v132h278v-132h-54v-460c0 -14 -2.83301 -28 -8.5 -42s-13.667 -26.5 -24 -37.5s-23.166 -19.833 -38.499 -26.5s-32.333 -10 -51 -10h-291c-19.333 0 -36.5 3.33301 -51.5 10s-27.667 15.334 -38 26.001s-18.333 23 -24 37
s-8.5 28.333 -8.5 43v460h-51v132h269v-132h-62v-441h222zM167.999 816.999c0 21.333 7.83301 39.6699 23.5 55.0029s34.167 23 55.5 23c10.667 0 20.667 -2 30 -6s17.5 -9.5 24.5 -16.5s12.667 -15.333 17 -25s6.5 -19.834 6.5 -30.501s-2.16699 -20.834 -6.5 -30.501
s-10 -18 -17 -25s-15.167 -12.5 -24.5 -16.5s-19.333 -6 -30 -6c-21.333 0 -39.833 7.66699 -55.5 23s-23.5 33.666 -23.5 54.999zM388.999 817.003c0 21.333 7.83301 39.6699 23.5 55.0029s34.167 23 55.5 23c10.667 0 20.667 -2 30 -6s17.5 -9.5 24.5 -16.5
s12.5 -15.333 16.5 -25s6 -19.834 6 -30.501s-2 -20.834 -6 -30.501s-9.5 -18 -16.5 -25s-15.167 -12.5 -24.5 -16.5s-19.333 -6 -30 -6c-21.333 0 -39.833 7.66699 -55.5 23s-23.5 33.666 -23.5 54.999z" />
    <glyph glyph-name="Yacute" unicode="&#xdd;" horiz-adv-x="660" 
d="M21 576v133h272v-133h-68l126 -200l119 200h-74v133h253v-133h-42l-183 -301v-143h65v-132h-286v132h64v127l-206 317h-40zM284 805l188 129l61 -111l-204 -92z" />
    <glyph glyph-name="Thorn" unicode="&#xde;" horiz-adv-x="631" 
d="M283 542l212.001 -0.000976562c18.667 0 35.167 -3.16699 49.5 -9.5s26.333 -14.5 36 -24.5s17 -21.333 22 -34s7.5 -25.667 7.5 -39v-148c0 -13.333 -2.5 -26.666 -7.5 -39.999s-12.167 -25.333 -21.5 -36s-21.333 -19.5 -36 -26.5s-31.334 -10.5 -50.001 -10.5h-212
v-48h72v-126h-286v126h64v455h-64v127h286v-127h-72v-39zM283.001 423.999v-124h168v124h-168z" />
    <glyph glyph-name="germandbls" unicode="&#xdf;" horiz-adv-x="584" 
d="M30 466l47.0039 -0.000976562l1 154c0 14 2.5 27.5 7.5 40.5s12.333 24.5 22 34.5s21.167 18.167 34.5 24.5s28.666 9.5 45.999 9.5h198c24.667 0 45.167 -4.16699 61.5 -12.5s29.5 -18.666 39.5 -30.999s17.167 -26 21.5 -41s6.5 -29.167 6.5 -42.5v-94
c0 -18.667 -3.83301 -37.334 -11.5 -56.001s-21.834 -33.334 -42.501 -44.001c26.667 -8 45.5 -21.5 56.5 -40.5s16.5 -39.167 16.5 -60.5v-204c0 -13.333 -2.16699 -26.166 -6.5 -38.499s-10.833 -23.166 -19.5 -32.499s-19.334 -17 -32.001 -23s-27.334 -9 -44.001 -9h-95
l-72 72v58h121v212h-161l1 -480h-196v123h47v357h-47v124zM225.004 599.999v-134h142v134h-142z" />
    <glyph glyph-name="agrave" unicode="&#xe0;" horiz-adv-x="597" 
d="M149 0c-16.667 0 -31.666 2.83203 -44.999 8.49902s-24.5 13.167 -33.5 22.5s-16 19.833 -21 31.5s-7.5 23.167 -7.5 34.5v87c0 12.667 2.16699 25.5 6.5 38.5s11 24.833 20 35.5s20.333 19.334 34 26.001s30.167 10 49.5 10h202v78h-152v-41h-130v45
c0 12 2.33301 25.333 7 40s12 28.167 22 40.5s23 22.833 39 31.5s35.333 13 58 13h162c31.333 0 56.333 -4.33301 75 -13s33 -19.667 43 -33s16.667 -28 20 -44s5 -31 5 -45v-243h24v32h57v-56c0 -27.333 -7.33301 -50.833 -22 -70.5s-37.334 -29.5 -68.001 -29.5h-48
c-22 0 -41 5.5 -57 16.5s-27 27.167 -33 48.5l-64 -64h-143zM354.001 210.999h-165v-88h165v88zM281.001 538.999l-136 178l108 67l108 -201z" />
    <glyph glyph-name="aacute" unicode="&#xe1;" horiz-adv-x="597" 
d="M149 0c-16.667 0 -31.666 2.83203 -44.999 8.49902s-24.5 13.167 -33.5 22.5s-16 19.833 -21 31.5s-7.5 23.167 -7.5 34.5v87c0 12.667 2.16699 25.5 6.5 38.5s11 24.833 20 35.5s20.333 19.334 34 26.001s30.167 10 49.5 10h202v78h-152v-41h-130v45
c0 12 2.33301 25.333 7 40s12 28.167 22 40.5s23 22.833 39 31.5s35.333 13 58 13h162c31.333 0 56.333 -4.33301 75 -13s33 -19.667 43 -33s16.667 -28 20 -44s5 -31 5 -45v-243h24v32h57v-56c0 -27.333 -7.33301 -50.833 -22 -70.5s-37.334 -29.5 -68.001 -29.5h-48
c-22 0 -41 5.5 -57 16.5s-27 27.167 -33 48.5l-64 -64h-143zM354.001 210.999h-165v-88h165v88zM229.001 582.999l108 201l107 -67l-135 -178z" />
    <glyph glyph-name="acircumflex" unicode="&#xe2;" horiz-adv-x="597" 
d="M149 0c-16.667 0 -31.666 2.83203 -44.999 8.49902s-24.5 13.167 -33.5 22.5s-16 19.833 -21 31.5s-7.5 23.167 -7.5 34.5v87c0 12.667 2.16699 25.5 6.5 38.5s11 24.833 20 35.5s20.333 19.334 34 26.001s30.167 10 49.5 10h202v78h-152v-41h-130v45
c0 12 2.33301 25.333 7 40s12 28.167 22 40.5s23 22.833 39 31.5s35.333 13 58 13h162c31.333 0 56.333 -4.33301 75 -13s33 -19.667 43 -33s16.667 -28 20 -44s5 -31 5 -45v-243h24v32h57v-56c0 -27.333 -7.33301 -50.833 -22 -70.5s-37.334 -29.5 -68.001 -29.5h-48
c-22 0 -41 5.5 -57 16.5s-27 27.167 -33 48.5l-64 -64h-143zM354.001 210.999h-165v-88h165v88zM287.001 643.999l-142 -99l-51 56l174 167h43l171 -166l-50 -57z" />
    <glyph glyph-name="atilde" unicode="&#xe3;" horiz-adv-x="597" 
d="M149 0c-16.667 0 -31.666 2.83203 -44.999 8.49902s-24.5 13.167 -33.5 22.5s-16 19.833 -21 31.5s-7.5 23.167 -7.5 34.5v87c0 12.667 2.16699 25.5 6.5 38.5s11 24.833 20 35.5s20.333 19.334 34 26.001s30.167 10 49.5 10h202v78h-152v-41h-130v45
c0 12 2.33301 25.333 7 40s12 28.167 22 40.5s23 22.833 39 31.5s35.333 13 58 13h162c31.333 0 56.333 -4.33301 75 -13s33 -19.667 43 -33s16.667 -28 20 -44s5 -31 5 -45v-243h24v32h57v-56c0 -27.333 -7.33301 -50.833 -22 -70.5s-37.334 -29.5 -68.001 -29.5h-48
c-22 0 -41 5.5 -57 16.5s-27 27.167 -33 48.5l-64 -64h-143zM349.001 564.999c-14.667 0 -28.001 1.8291 -40.001 5.49609s-23.5 7.83398 -34.5 12.501s-21.667 8.83398 -32 12.501s-20.833 5.5 -31.5 5.5c-13.333 0 -24.833 -4.33301 -34.5 -13
s-18.834 -17.667 -27.501 -27l-12.5 8l-20 13l-20 13l-12.5 8c2.66699 6.66699 7.33398 15.667 14.001 27s15 22.333 25 33s22 20 36 28s30 12 48 12c14.667 0 28 -2.16699 40 -6.5s23.333 -9 34 -14l30.5 -14c9.66699 -4.33301 19.5 -6.5 29.5 -6.5c13.333 0 25 4 35 12
s20 17 30 27l65 -46c-4 -8 -9.33301 -17.167 -16 -27.5s-15.167 -20.166 -25.5 -29.499s-22.166 -17.166 -35.499 -23.499s-28.333 -9.5 -45 -9.5zM354 210.995h-165v-88h165v88z" />
    <glyph glyph-name="adieresis" unicode="&#xe4;" horiz-adv-x="597" 
d="M149 0c-16.667 0 -31.666 2.83203 -44.999 8.49902s-24.5 13.167 -33.5 22.5s-16 19.833 -21 31.5s-7.5 23.167 -7.5 34.5v87c0 12.667 2.16699 25.5 6.5 38.5s11 24.833 20 35.5s20.333 19.334 34 26.001s30.167 10 49.5 10h202v78h-152v-41h-130v45
c0 12 2.33301 25.333 7 40s12 28.167 22 40.5s23 22.833 39 31.5s35.333 13 58 13h162c31.333 0 56.333 -4.33301 75 -13s33 -19.667 43 -33s16.667 -28 20 -44s5 -31 5 -45v-243h24v32h57v-56c0 -27.333 -7.33301 -50.833 -22 -70.5s-37.334 -29.5 -68.001 -29.5h-48
c-22 0 -41 5.5 -57 16.5s-27 27.167 -33 48.5l-64 -64h-143zM354.001 210.999h-165v-88h165v88zM100.001 635.999c0 21.333 7.5 39.5 22.5 54.5s33.167 22.5 54.5 22.5s39.5 -7.5 54.5 -22.5s22.5 -33.167 22.5 -54.5s-7.5 -39.5 -22.5 -54.5s-33.167 -22.5 -54.5 -22.5
s-39.5 7.5 -54.5 22.5s-22.5 33.167 -22.5 54.5zM317.001 635.999c0 21.333 7.66699 39.5 23 54.5s33.666 22.5 54.999 22.5s39.333 -7.5 54 -22.5s22 -33.167 22 -54.5s-7.33301 -39.5 -22 -54.5s-32.667 -22.5 -54 -22.5s-39.666 7.5 -54.999 22.5s-23 33.167 -23 54.5z
" />
    <glyph glyph-name="aring" unicode="&#xe5;" horiz-adv-x="597" 
d="M149 0c-16.667 0 -31.666 2.83203 -44.999 8.49902s-24.5 13.167 -33.5 22.5s-16 19.833 -21 31.5s-7.5 23.167 -7.5 34.5v87c0 12.667 2.16699 25.5 6.5 38.5s11 24.833 20 35.5s20.333 19.334 34 26.001s30.167 10 49.5 10h202v78h-152v-41h-130v45
c0 12 2.33301 25.333 7 40s12 28.167 22 40.5s23 22.833 39 31.5s35.333 13 58 13h162c31.333 0 56.333 -4.33301 75 -13s33 -19.667 43 -33s16.667 -28 20 -44s5 -31 5 -45v-243h24v32h57v-56c0 -27.333 -7.33301 -50.833 -22 -70.5s-37.334 -29.5 -68.001 -29.5h-48
c-22 0 -41 5.5 -57 16.5s-27 27.167 -33 48.5l-64 -64h-143zM354.001 210.999h-165v-88h165v88zM297.001 548.999c-16.667 0 -32.1689 3.00195 -46.502 9.00195s-26.833 14.167 -37.5 24.5s-19 22.5 -25 36.5s-9 29 -9 45c0 15.333 3 30 9 44s14.333 26.167 25 36.5
s23.167 18.666 37.5 24.999s29.833 9.5 46.5 9.5s32 -3 46 -9s26.333 -14.333 37 -25s19 -22.834 25 -36.501s9 -28.5 9 -44.5s-3.16699 -31 -9.5 -45s-14.666 -26.167 -24.999 -36.5s-22.666 -18.5 -36.999 -24.5s-29.5 -9 -45.5 -9zM296.999 711.001
c-13.333 0 -24.5 -4.5 -33.5 -13.5s-13.5 -20.167 -13.5 -33.5s4.5 -24.833 13.5 -34.5s20.167 -14.5 33.5 -14.5c12.667 0 23.5 4.83301 32.5 14.5s13.5 21.167 13.5 34.5c0 12.667 -4.5 23.667 -13.5 33s-19.833 14 -32.5 14z" />
    <glyph glyph-name="ae" unicode="&#xe6;" horiz-adv-x="825" 
d="M475 0c-25.333 0 -47.5039 7.33203 -66.5039 21.999s-31.833 32.334 -38.5 53.001l-78 -75h-143c-16.667 -0 -31.5 2.83301 -44.5 8.5s-24.167 13.167 -33.5 22.5s-16.5 19.833 -21.5 31.5s-7.5 23.167 -7.5 34.5v96c0 12 2.33301 24.167 7 36.5
s11.334 23.166 20.001 32.499s19.5 17 32.5 23s28.167 9 45.5 9h209v78h-150v-38h-130v55c0 12.667 3 25.667 9 39s14.5 25.333 25.5 36s24 19.5 39 26.5s31.5 10.5 49.5 10.5h112c25.333 0 45.333 -3 60 -9s28 -17.667 40 -35c11.333 14.667 22.833 25.5 34.5 32.5
s25.167 10.5 40.5 10.5h164c22.667 0 41.834 -3.83301 57.501 -11.5s28.334 -17.167 38.001 -28.5s16.667 -24.166 21 -38.499s6.5 -27.833 6.5 -40.5v-91c0 -28 -6.5 -46.833 -19.5 -56.5s-30.167 -14.5 -51.5 -14.5h-205v-92h142v48h136v-72c0 -12 -3 -24.167 -9 -36.5
s-14.167 -23.5 -24.5 -33.5s-22.666 -18 -36.999 -24s-29.833 -9 -46.5 -9h-183zM189.996 122.999h166v96h-166v-96zM496.996 293.999h128v78h-128v-78z" />
    <glyph glyph-name="ccedilla" unicode="&#xe7;" horiz-adv-x="519" 
d="M51 401c0 12 2.83301 24 8.5 36s13.5 22.667 23.5 32s21.5 17 34.5 23s26.833 9 41.5 9h117l68 -71v71h132v-173h-132v44h-144v-246h148v56h139v-79c0 -12 -2.33301 -24.167 -7 -36.5s-11.667 -23.333 -21 -33s-20.833 -17.667 -34.5 -24s-29.5 -9.5 -47.5 -9.5h-65
l-28 -36h56c18 0 31.5 -5 40.5 -15s13.5 -20.667 13.5 -32v-85c0 -11.333 -4.83301 -22.333 -14.5 -33s-23.5 -16 -41.5 -16h-134c-16.667 0 -30 5.16699 -40 15.5s-15 21.5 -15 33.5v39h86v-20h71v50h-70l-39 47l38 52h-74c-16.667 0 -31.667 3 -45 9
s-24.833 13.833 -34.5 23.5s-17.167 20.667 -22.5 33s-8 24.833 -8 37.5v298z" />
    <glyph glyph-name="egrave" unicode="&#xe8;" horiz-adv-x="545" 
d="M161 0c-15.333 0 -29.6689 2.99902 -43.002 8.99902s-25 13.833 -35 23.5s-17.833 20.667 -23.5 33s-8.5 24.833 -8.5 37.5v281c0 12.667 2.83301 25.834 8.5 39.501s13.667 26.167 24 37.5s23 20.666 38 27.999s31.833 11 50.5 11h198
c22.667 0 41.834 -3.83301 57.501 -11.5s28.334 -17.167 38.001 -28.5s16.667 -24.166 21 -38.499s6.5 -27.833 6.5 -40.5v-91c0 -28 -6.33301 -47.167 -19 -57.5s-30 -15.5 -52 -15.5h-225v-90h162v48h136v-72c0 -12 -3 -24.167 -9 -36.5s-14.167 -23.5 -24.5 -33.5
s-22.5 -18 -36.5 -24s-29.333 -9 -46 -9h-218zM196.997 306.999h149v71h-149v-71zM247.997 538.999l-136 178l108 67l108 -201z" />
    <glyph glyph-name="eacute" unicode="&#xe9;" horiz-adv-x="545" 
d="M161 0c-15.333 0 -29.6689 2.99902 -43.002 8.99902s-25 13.833 -35 23.5s-17.833 20.667 -23.5 33s-8.5 24.833 -8.5 37.5v281c0 12.667 2.83301 25.834 8.5 39.501s13.667 26.167 24 37.5s23 20.666 38 27.999s31.833 11 50.5 11h198
c22.667 0 41.834 -3.83301 57.501 -11.5s28.334 -17.167 38.001 -28.5s16.667 -24.166 21 -38.499s6.5 -27.833 6.5 -40.5v-91c0 -28 -6.33301 -47.167 -19 -57.5s-30 -15.5 -52 -15.5h-225v-90h162v48h136v-72c0 -12 -3 -24.167 -9 -36.5s-14.167 -23.5 -24.5 -33.5
s-22.5 -18 -36.5 -24s-29.333 -9 -46 -9h-218zM196.997 306.999h149v71h-149v-71zM197.997 582.999l108 201l107 -67l-135 -178z" />
    <glyph glyph-name="ecircumflex" unicode="&#xea;" horiz-adv-x="545" 
d="M161 0c-15.333 0 -29.6689 2.99902 -43.002 8.99902s-25 13.833 -35 23.5s-17.833 20.667 -23.5 33s-8.5 24.833 -8.5 37.5v281c0 12.667 2.83301 25.834 8.5 39.501s13.667 26.167 24 37.5s23 20.666 38 27.999s31.833 11 50.5 11h198
c22.667 0 41.834 -3.83301 57.501 -11.5s28.334 -17.167 38.001 -28.5s16.667 -24.166 21 -38.499s6.5 -27.833 6.5 -40.5v-91c0 -28 -6.33301 -47.167 -19 -57.5s-30 -15.5 -52 -15.5h-225v-90h162v48h136v-72c0 -12 -3 -24.167 -9 -36.5s-14.167 -23.5 -24.5 -33.5
s-22.5 -18 -36.5 -24s-29.333 -9 -46 -9h-218zM196.997 306.999h149v71h-149v-71zM271.997 643.999l-142 -99l-51 56l174 167h43l171 -166l-50 -57z" />
    <glyph glyph-name="edieresis" unicode="&#xeb;" horiz-adv-x="545" 
d="M161 0c-15.333 0 -29.6689 2.99902 -43.002 8.99902s-25 13.833 -35 23.5s-17.833 20.667 -23.5 33s-8.5 24.833 -8.5 37.5v281c0 12.667 2.83301 25.834 8.5 39.501s13.667 26.167 24 37.5s23 20.666 38 27.999s31.833 11 50.5 11h198
c22.667 0 41.834 -3.83301 57.501 -11.5s28.334 -17.167 38.001 -28.5s16.667 -24.166 21 -38.499s6.5 -27.833 6.5 -40.5v-91c0 -28 -6.33301 -47.167 -19 -57.5s-30 -15.5 -52 -15.5h-225v-90h162v48h136v-72c0 -12 -3 -24.167 -9 -36.5s-14.167 -23.5 -24.5 -33.5
s-22.5 -18 -36.5 -24s-29.333 -9 -46 -9h-218zM196.997 306.999h149v71h-149v-71zM82.9971 635.999c0 21.333 7.5 39.5 22.5 54.5s33.167 22.5 54.5 22.5s39.5 -7.5 54.5 -22.5s22.5 -33.167 22.5 -54.5s-7.5 -39.5 -22.5 -54.5s-33.167 -22.5 -54.5 -22.5
s-39.5 7.5 -54.5 22.5s-22.5 33.167 -22.5 54.5zM299.997 635.999c0 21.333 7.66699 39.5 23 54.5s33.666 22.5 54.999 22.5s39.333 -7.5 54 -22.5s22 -33.167 22 -54.5s-7.33301 -39.5 -22 -54.5s-32.667 -22.5 -54 -22.5s-39.666 7.5 -54.999 22.5s-23 33.167 -23 54.5z
" />
    <glyph glyph-name="igrave" unicode="&#xec;" horiz-adv-x="345" 
d="M244 123h51v-123h-247v123h47v254h-47v124h196v-378zM133 539l-136 178l108 67l108 -201z" />
    <glyph glyph-name="iacute" unicode="&#xed;" horiz-adv-x="345" 
d="M244 123h51v-123h-247v123h47v254h-47v124h196v-378zM101 583l108 201l107 -67l-135 -178z" />
    <glyph glyph-name="icircumflex" unicode="&#xee;" horiz-adv-x="345" 
d="M244 123h51v-123h-247v123h47v254h-47v124h196v-378zM159 644l-142 -99l-51 56l174 167h43l171 -166l-50 -57z" />
    <glyph glyph-name="idieresis" unicode="&#xef;" horiz-adv-x="345" 
d="M244 123h51v-123h-247v123h47v254h-47v124h196v-378zM-27 636c0 21.333 7.5 39.5 22.5 54.5s33.167 22.5 54.5 22.5s39.5 -7.5 54.5 -22.5s22.5 -33.167 22.5 -54.5s-7.5 -39.5 -22.5 -54.5s-33.167 -22.5 -54.5 -22.5s-39.5 7.5 -54.5 22.5s-22.5 33.167 -22.5 54.5z
M190 636c0 21.333 7.66699 39.5 23 54.5s33.666 22.5 54.999 22.5s39.333 -7.5 54 -22.5s22 -33.167 22 -54.5s-7.33301 -39.5 -22 -54.5s-32.667 -22.5 -54 -22.5s-39.666 7.5 -54.999 22.5s-23 33.167 -23 54.5z" />
    <glyph glyph-name="eth" unicode="&#xf0;" horiz-adv-x="565" 
d="M149 560l56 35.001l-98 144l39 30l110 -17l58 -83l68 44l43 -66l-65 -43l90 -124c8.66699 -13.333 17 -25.333 25 -36s14.833 -21.334 20.5 -32.001s10.334 -21.667 14.001 -33s5.5 -24.333 5.5 -39v-236c0 -12.667 -3 -25.167 -9 -37.5s-14.333 -23.5 -25 -33.5
s-22.834 -18 -36.501 -24s-28.5 -9 -44.5 -9h-242c-15.333 0 -29.666 3 -42.999 9s-24.833 14 -34.5 24s-17.167 21.167 -22.5 33.5s-8 24.833 -8 37.5v232c0 12.667 2.66699 25.167 8 37.5s12.666 23.333 21.999 33s20.5 17.5 33.5 23.5s27.167 9 42.5 9h161l-67 92
l-58 -38zM198 127.001h172v195h-172v-195z" />
    <glyph glyph-name="ntilde" unicode="&#xf1;" horiz-adv-x="621" 
d="M349 122h39.999v250h-161v-250h47v-122h-244v122h49v257h-49v121l197 1v-72l70 72h131c16.667 0 31.834 -3 45.501 -9s25.167 -13.833 34.5 -23.5s16.5 -20.667 21.5 -33s7.5 -24.833 7.5 -37.5v-276h51v-122h-240v122zM357.999 565
c-14.667 0 -28.001 1.8291 -40.001 5.49609s-23.5 7.83398 -34.5 12.501s-21.667 8.83398 -32 12.501s-20.833 5.5 -31.5 5.5c-13.333 0 -24.833 -4.33301 -34.5 -13s-18.834 -17.667 -27.501 -27l-12.5 8l-20 13l-20 13l-12.5 8c2.66699 6.66699 7.33398 15.667 14.001 27
s15 22.333 25 33s22 20 36 28s30 12 48 12c14.667 0 28 -2.16699 40 -6.5s23.333 -9 34 -14l30.5 -14c9.66699 -4.33301 19.5 -6.5 29.5 -6.5c13.333 0 25 4 35 12s20 17 30 27l65 -46c-4 -8 -9.33301 -17.167 -16 -27.5s-15.167 -20.166 -25.5 -29.499
s-22.166 -17.166 -35.499 -23.499s-28.333 -9.5 -45 -9.5z" />
    <glyph glyph-name="ograve" unicode="&#xf2;" horiz-adv-x="568" 
d="M517 103c0 -12 -2.99707 -24.167 -8.99707 -36.5s-14.167 -23.5 -24.5 -33.5s-22.5 -18 -36.5 -24s-29 -9 -45 -9h-241c-16 0 -30.667 3 -44 9s-25 13.833 -35 23.5s-17.667 20.667 -23 33s-8 24.833 -8 37.5v295c0 12.667 2.83301 25.167 8.5 37.5s13.5 23.333 23.5 33
s21.667 17.5 35 23.5s27.666 9 42.999 9h247c16.667 0 31.667 -3 45 -9s24.666 -13.833 33.999 -23.5s16.666 -20.667 21.999 -33s8 -24.833 8 -37.5v-295zM197.003 127h174v247h-174v-247zM270.003 539l-136 178l108 67l108 -201z" />
    <glyph glyph-name="oacute" unicode="&#xf3;" horiz-adv-x="568" 
d="M517 103c0 -12 -2.99707 -24.167 -8.99707 -36.5s-14.167 -23.5 -24.5 -33.5s-22.5 -18 -36.5 -24s-29 -9 -45 -9h-241c-16 0 -30.667 3 -44 9s-25 13.833 -35 23.5s-17.667 20.667 -23 33s-8 24.833 -8 37.5v295c0 12.667 2.83301 25.167 8.5 37.5s13.5 23.333 23.5 33
s21.667 17.5 35 23.5s27.666 9 42.999 9h247c16.667 0 31.667 -3 45 -9s24.666 -13.833 33.999 -23.5s16.666 -20.667 21.999 -33s8 -24.833 8 -37.5v-295zM197.003 127h174v247h-174v-247zM214.003 583l108 201l107 -67l-135 -178z" />
    <glyph glyph-name="ocircumflex" unicode="&#xf4;" horiz-adv-x="568" 
d="M517 103c0 -12 -2.99707 -24.167 -8.99707 -36.5s-14.167 -23.5 -24.5 -33.5s-22.5 -18 -36.5 -24s-29 -9 -45 -9h-241c-16 0 -30.667 3 -44 9s-25 13.833 -35 23.5s-17.667 20.667 -23 33s-8 24.833 -8 37.5v295c0 12.667 2.83301 25.167 8.5 37.5s13.5 23.333 23.5 33
s21.667 17.5 35 23.5s27.666 9 42.999 9h247c16.667 0 31.667 -3 45 -9s24.666 -13.833 33.999 -23.5s16.666 -20.667 21.999 -33s8 -24.833 8 -37.5v-295zM197.003 127h174v247h-174v-247zM286.003 644l-142 -99l-51 56l174 167h43l171 -166l-50 -57z" />
    <glyph glyph-name="otilde" unicode="&#xf5;" horiz-adv-x="568" 
d="M517 103c0 -12 -2.99707 -24.167 -8.99707 -36.5s-14.167 -23.5 -24.5 -33.5s-22.5 -18 -36.5 -24s-29 -9 -45 -9h-241c-16 0 -30.667 3 -44 9s-25 13.833 -35 23.5s-17.667 20.667 -23 33s-8 24.833 -8 37.5v295c0 12.667 2.83301 25.167 8.5 37.5s13.5 23.333 23.5 33
s21.667 17.5 35 23.5s27.666 9 42.999 9h247c16.667 0 31.667 -3 45 -9s24.666 -13.833 33.999 -23.5s16.666 -20.667 21.999 -33s8 -24.833 8 -37.5v-295zM197.003 127h174v247h-174v-247zM349.003 565c-14.667 0 -28.001 1.8291 -40.001 5.49609
s-23.5 7.83398 -34.5 12.501s-21.667 8.83398 -32 12.501s-20.833 5.5 -31.5 5.5c-13.333 0 -24.833 -4.33301 -34.5 -13s-18.834 -17.667 -27.501 -27l-12.5 8l-20 13l-20 13l-12.5 8c2.66699 6.66699 7.33398 15.667 14.001 27s15 22.333 25 33s22 20 36 28s30 12 48 12
c14.667 0 28 -2.16699 40 -6.5s23.333 -9 34 -14l30.5 -14c9.66699 -4.33301 19.5 -6.5 29.5 -6.5c13.333 0 25 4 35 12s20 17 30 27l65 -46c-4 -8 -9.33301 -17.167 -16 -27.5s-15.167 -20.166 -25.5 -29.499s-22.166 -17.166 -35.499 -23.499s-28.333 -9.5 -45 -9.5z" />
    <glyph glyph-name="odieresis" unicode="&#xf6;" horiz-adv-x="568" 
d="M517 103c0 -12 -2.99707 -24.167 -8.99707 -36.5s-14.167 -23.5 -24.5 -33.5s-22.5 -18 -36.5 -24s-29 -9 -45 -9h-241c-16 0 -30.667 3 -44 9s-25 13.833 -35 23.5s-17.667 20.667 -23 33s-8 24.833 -8 37.5v295c0 12.667 2.83301 25.167 8.5 37.5s13.5 23.333 23.5 33
s21.667 17.5 35 23.5s27.666 9 42.999 9h247c16.667 0 31.667 -3 45 -9s24.666 -13.833 33.999 -23.5s16.666 -20.667 21.999 -33s8 -24.833 8 -37.5v-295zM197.003 127h174v247h-174v-247zM95.0029 636c0 21.333 7.5 39.5 22.5 54.5s33.167 22.5 54.5 22.5
s39.5 -7.5 54.5 -22.5s22.5 -33.167 22.5 -54.5s-7.5 -39.5 -22.5 -54.5s-33.167 -22.5 -54.5 -22.5s-39.5 7.5 -54.5 22.5s-22.5 33.167 -22.5 54.5zM312.003 636c0 21.333 7.66699 39.5 23 54.5s33.666 22.5 54.999 22.5s39.333 -7.5 54 -22.5s22 -33.167 22 -54.5
s-7.33301 -39.5 -22 -54.5s-32.667 -22.5 -54 -22.5s-39.666 7.5 -54.999 22.5s-23 33.167 -23 54.5z" />
    <glyph glyph-name="divide" unicode="&#xf7;" 
d="M301 395c-20.667 0 -38 7.16699 -52 21.5s-21 31.833 -21 52.5c0 20 7 37.167 21 51.5s31.333 21.5 52 21.5c20 0 37.167 -7.16699 51.5 -21.5s21.5 -31.5 21.5 -51.5c0 -20.667 -7.33301 -38.167 -22 -52.5s-31.667 -21.5 -51 -21.5zM59 347h473v-103h-473v103zM301 53
c-20.667 0 -38 7 -52 21s-21 31.333 -21 52s7 38 21 52s31.333 21 52 21c20 0 37.167 -7 51.5 -21s21.5 -31.333 21.5 -52s-7.33301 -38 -22 -52s-31.667 -21 -51 -21z" />
    <glyph glyph-name="oslash" unicode="&#xf8;" horiz-adv-x="568" 
d="M87 29c-11.333 10 -20.168 21.5 -26.501 34.5s-9.5 26.167 -9.5 39.5v295c0 12.667 2.83301 25.167 8.5 37.5s13.5 23.333 23.5 33s21.667 17.5 35 23.5s27.666 9 42.999 9h247c16.667 0 30.334 -2.66699 41.001 -8l41 55l38 -31l-39 -52
c8.66699 -9.33301 15.5 -20 20.5 -32s7.5 -23.667 7.5 -35v-295c0 -12 -3 -24.167 -9 -36.5s-14.167 -23.5 -24.5 -33.5s-22.5 -18 -36.5 -24s-29 -9 -45 -9h-241c-6 -0 -11.667 0.333008 -17 1s-10.666 2 -15.999 4l-50 -65l-37 31zM199.998 176l156 198h-156v-198z
M367.998 127v182l-146 -182h146z" />
    <glyph glyph-name="ugrave" unicode="&#xf9;" horiz-adv-x="613" 
d="M267 379l-44 0.00195312v-252h161v252h-47v122h196v-379h50v-122h-199v71l-70 -71h-134c-17.333 0 -32.5 3 -45.5 9s-24 13.667 -33 23s-15.833 20.166 -20.5 32.499s-7 25.166 -7 38.499v276h-48v122h241v-122zM272 539.002l-136 178l108 67l108 -201z" />
    <glyph glyph-name="uacute" unicode="&#xfa;" horiz-adv-x="613" 
d="M267 379l-44 0.00195312v-252h161v252h-47v122h196v-379h50v-122h-199v71l-70 -71h-134c-17.333 0 -32.5 3 -45.5 9s-24 13.667 -33 23s-15.833 20.166 -20.5 32.499s-7 25.166 -7 38.499v276h-48v122h241v-122zM234 583.002l108 201l107 -67l-135 -178z" />
    <glyph glyph-name="ucircumflex" unicode="&#xfb;" horiz-adv-x="613" 
d="M267 379l-44 0.00195312v-252h161v252h-47v122h196v-379h50v-122h-199v71l-70 -71h-134c-17.333 0 -32.5 3 -45.5 9s-24 13.667 -33 23s-15.833 20.166 -20.5 32.499s-7 25.166 -7 38.499v276h-48v122h241v-122zM301 644.002l-142 -99l-51 56l174 167h43l171 -166
l-50 -57z" />
    <glyph glyph-name="udieresis" unicode="&#xfc;" horiz-adv-x="613" 
d="M267 379l-44 0.00195312v-252h161v252h-47v122h196v-379h50v-122h-199v71l-70 -71h-134c-17.333 0 -32.5 3 -45.5 9s-24 13.667 -33 23s-15.833 20.166 -20.5 32.499s-7 25.166 -7 38.499v276h-48v122h241v-122zM113 636.002c0 21.333 7.5 39.5 22.5 54.5
s33.167 22.5 54.5 22.5s39.5 -7.5 54.5 -22.5s22.5 -33.167 22.5 -54.5s-7.5 -39.5 -22.5 -54.5s-33.167 -22.5 -54.5 -22.5s-39.5 7.5 -54.5 22.5s-22.5 33.167 -22.5 54.5zM330 636.002c0 21.333 7.66699 39.5 23 54.5s33.666 22.5 54.999 22.5s39.333 -7.5 54 -22.5
s22 -33.167 22 -54.5s-7.33301 -39.5 -22 -54.5s-32.667 -22.5 -54 -22.5s-39.666 7.5 -54.999 22.5s-23 33.167 -23 54.5z" />
    <glyph glyph-name="yacute" unicode="&#xfd;" horiz-adv-x="557" 
d="M293 157l77 221h-40v123h216v-123h-41l-164 -436h52l-1 -120h-263v120h81l30 82h-44l-138 354h-41v123h223v-123h-33l80 -221h6zM213 583l108 201l107 -67l-135 -178z" />
    <glyph glyph-name="thorn" unicode="&#xfe;" horiz-adv-x="589" 
d="M228 711l0.00195312 -282l70 71h130c16 0 30.833 -3.16699 44.5 -9.5s25.167 -14.333 34.5 -24s16.666 -20.667 21.999 -33s8 -24.5 8 -36.5v-294c0 -12.667 -2.5 -25.167 -7.5 -37.5s-12.167 -23.333 -21.5 -33s-20.833 -17.5 -34.5 -23.5s-28.834 -9 -45.501 -9h-130
l-70 72v-154h43v-122h-240v123h48v670h-47v122h196zM389.002 374h-161v-245h161v245z" />
    <glyph glyph-name="ydieresis" unicode="&#xff;" horiz-adv-x="557" 
d="M293 157l77 221h-40v123h216v-123h-41l-164 -436h52l-1 -120h-263v120h81l30 82h-44l-138 354h-41v123h223v-123h-33l80 -221h6zM95 636c0 21.333 7.5 39.5 22.5 54.5s33.167 22.5 54.5 22.5s39.5 -7.5 54.5 -22.5s22.5 -33.167 22.5 -54.5s-7.5 -39.5 -22.5 -54.5
s-33.167 -22.5 -54.5 -22.5s-39.5 7.5 -54.5 22.5s-22.5 33.167 -22.5 54.5zM312 636c0 21.333 7.66699 39.5 23 54.5s33.666 22.5 54.999 22.5s39.333 -7.5 54 -22.5s22 -33.167 22 -54.5s-7.33301 -39.5 -22 -54.5s-32.667 -22.5 -54 -22.5s-39.666 7.5 -54.999 22.5
s-23 33.167 -23 54.5z" />
    <glyph glyph-name="Amacron" unicode="&#x100;" horiz-adv-x="711" 
d="M458 203h-237l-24 -71h73v-132h-256v132h46l210 582h173l203 -582h47v-132h-290v132h78zM339 562l-80 -245h160l-75 245h-5zM194 859h322v-103h-322v103z" />
    <glyph glyph-name="amacron" unicode="&#x101;" horiz-adv-x="597" 
d="M149 0c-16.667 0 -31.666 2.83203 -44.999 8.49902s-24.5 13.167 -33.5 22.5s-16 19.833 -21 31.5s-7.5 23.167 -7.5 34.5v87c0 12.667 2.16699 25.5 6.5 38.5s11 24.833 20 35.5s20.333 19.334 34 26.001s30.167 10 49.5 10h202v78h-152v-41h-130v45
c0 12 2.33301 25.333 7 40s12 28.167 22 40.5s23 22.833 39 31.5s35.333 13 58 13h162c31.333 0 56.333 -4.33301 75 -13s33 -19.667 43 -33s16.667 -28 20 -44s5 -31 5 -45v-243h24v32h57v-56c0 -27.333 -7.33301 -50.833 -22 -70.5s-37.334 -29.5 -68.001 -29.5h-48
c-22 0 -41 5.5 -57 16.5s-27 27.167 -33 48.5l-64 -64h-143zM354.001 210.999h-165v-88h165v88zM134.001 685.999h323v-104h-323v104z" />
    <glyph glyph-name="Abreve" unicode="&#x102;" horiz-adv-x="711" 
d="M458 203h-237l-24 -71h73v-132h-256v132h46l210 582h173l203 -582h47v-132h-290v132h78zM339 562l-80 -245h160l-75 245h-5zM342 827c11.333 0 21.667 2.5 31 7.5s17.666 11.5 24.999 19.5s13.333 17.167 18 27.5s7.66699 20.833 9 31.5h87
c0 -20 -3.66699 -40.5 -11 -61.5s-18 -40.167 -32 -57.5s-31.667 -31.5 -53 -42.5s-46 -16.5 -74 -16.5s-52.667 5.5 -74 16.5s-39.166 25.167 -53.499 42.5s-25.166 36.5 -32.499 57.5s-11 41.5 -11 61.5h89c1.33301 -10.667 4.16602 -21.167 8.49902 -31.5
s10 -19.5 17 -27.5s15.333 -14.5 25 -19.5s20.167 -7.5 31.5 -7.5z" />
    <glyph glyph-name="abreve" unicode="&#x103;" horiz-adv-x="597" 
d="M149 0c-16.667 0 -31.666 2.83203 -44.999 8.49902s-24.5 13.167 -33.5 22.5s-16 19.833 -21 31.5s-7.5 23.167 -7.5 34.5v87c0 12.667 2.16699 25.5 6.5 38.5s11 24.833 20 35.5s20.333 19.334 34 26.001s30.167 10 49.5 10h202v78h-152v-41h-130v45
c0 12 2.33301 25.333 7 40s12 28.167 22 40.5s23 22.833 39 31.5s35.333 13 58 13h162c31.333 0 56.333 -4.33301 75 -13s33 -19.667 43 -33s16.667 -28 20 -44s5 -31 5 -45v-243h24v32h57v-56c0 -27.333 -7.33301 -50.833 -22 -70.5s-37.334 -29.5 -68.001 -29.5h-48
c-22 0 -41 5.5 -57 16.5s-27 27.167 -33 48.5l-64 -64h-143zM354.001 210.999h-165v-88h165v88zM285.001 642.999c11.333 0 21.668 2.5 31.001 7.5s17.666 11.5 24.999 19.5s13.166 17.167 17.499 27.5s7.16602 20.833 8.49902 31.5h88c0 -20 -3.66699 -40.5 -11 -61.5
s-18.166 -40 -32.499 -57s-32 -31 -53 -42s-45.5 -16.5 -73.5 -16.5s-52.667 5.5 -74 16.5s-39.166 25 -53.499 42s-25.166 36 -32.499 57s-11 41.5 -11 61.5h88c1.33301 -10.667 4.16602 -21.167 8.49902 -31.5s10 -19.5 17 -27.5s15.333 -14.5 25 -19.5
s20.5 -7.5 32.5 -7.5z" />
    <glyph glyph-name="Aogonek" unicode="&#x104;" horiz-adv-x="711" 
d="M458 203l-237 0.000976562l-24 -71h73v-132h-256v132h46l210 582h173l203 -582h47v-132h-38v-106h110v-94h-125c-23.333 0 -43.5 7.16699 -60.5 21.5s-25.5 37.166 -25.5 68.499v60l41 50h-192v132h78zM339 562.001l-80 -245h160l-75 245h-5z" />
    <glyph glyph-name="aogonek" unicode="&#x105;" horiz-adv-x="597" 
d="M149 0c-16.667 0 -31.667 2.83105 -45 8.49805s-24.5 13.167 -33.5 22.5s-16 19.833 -21 31.5s-7.5 23.167 -7.5 34.5v87c0 12.667 2.16699 25.5 6.5 38.5s11 24.833 20 35.5s20.333 19.334 34 26.001s30.167 10 49.5 10h202v78h-152v-41h-130v45
c0 12 2.33301 25.333 7 40s12 28.167 22 40.5s23 22.833 39 31.5s35.333 13 58 13h162c31.333 0 56.333 -4.33301 75 -13s33 -19.667 43 -33s16.667 -28 20 -44s5 -31 5 -45v-243h24v32h57v-56c0 -25.333 -6.33301 -47.666 -19 -66.999s-32.667 -30 -60 -32v-106h110v-94
h-125c-23.333 0 -43.5 7.16699 -60.5 21.5s-25.5 37.166 -25.5 68.499v60l40 49c-21.333 0.666992 -39.833 6.33398 -55.5 17.001s-26.5 26.667 -32.5 48l-64 -64h-143zM354 210.998h-165v-88h165v88z" />
    <glyph glyph-name="Cacute" unicode="&#x106;" horiz-adv-x="596" 
d="M218 135h209v77h136v-103c0 -12.667 -3.66699 -25.5 -11 -38.5s-16.833 -24.667 -28.5 -35s-24.667 -18.833 -39 -25.5s-28.5 -10 -42.5 -10h-265c-14 0 -27.833 3.16699 -41.5 9.5s-26 14.5 -37 24.5s-20 21.5 -27 34.5s-10.5 26.5 -10.5 40.5v490
c0 14 3.33301 27.5 10 40.5s15.5 24.5 26.5 34.5s23.5 18.167 37.5 24.5s28 9.5 42 9.5h180l69 -73v73h126v-203h-126v68h-208v-438zM229 805l188 129l61 -111l-204 -92z" />
    <glyph glyph-name="cacute" unicode="&#x107;" horiz-adv-x="519" 
d="M51 401c0 12 2.83301 24 8.5 36s13.5 22.667 23.5 32s21.5 17 34.5 23s26.833 9 41.5 9h117l68 -71v71h132v-173h-132v44h-144v-246h148v56h139v-79c0 -12 -2.33301 -24.167 -7 -36.5s-11.667 -23.333 -21 -33s-20.833 -17.667 -34.5 -24s-29.5 -9.5 -47.5 -9.5h-216
c-16.667 0 -31.667 3 -45 9s-24.833 13.833 -34.5 23.5s-17.167 20.667 -22.5 33s-8 24.833 -8 37.5v298zM197 583l108 201l107 -67l-135 -178z" />
    <glyph glyph-name="Ccircumflex" unicode="&#x108;" horiz-adv-x="596" 
d="M218 135h209v77h136v-103c0 -12.667 -3.66699 -25.5 -11 -38.5s-16.833 -24.667 -28.5 -35s-24.667 -18.833 -39 -25.5s-28.5 -10 -42.5 -10h-265c-14 0 -27.833 3.16699 -41.5 9.5s-26 14.5 -37 24.5s-20 21.5 -27 34.5s-10.5 26.5 -10.5 40.5v490
c0 14 3.33301 27.5 10 40.5s15.5 24.5 26.5 34.5s23.5 18.167 37.5 24.5s28 9.5 42 9.5h180l69 -73v73h126v-203h-126v68h-208v-438zM330 812l-159 -79l-35 52l175 148h42l178 -147l-40 -53z" />
    <glyph glyph-name="ccircumflex" unicode="&#x109;" horiz-adv-x="519" 
d="M51 401c0 12 2.83301 24 8.5 36s13.5 22.667 23.5 32s21.5 17 34.5 23s26.833 9 41.5 9h117l68 -71v71h132v-173h-132v44h-144v-246h148v56h139v-79c0 -12 -2.33301 -24.167 -7 -36.5s-11.667 -23.333 -21 -33s-20.833 -17.667 -34.5 -24s-29.5 -9.5 -47.5 -9.5h-216
c-16.667 0 -31.667 3 -45 9s-24.833 13.833 -34.5 23.5s-17.167 20.667 -22.5 33s-8 24.833 -8 37.5v298zM268 644l-142 -99l-51 56l174 167h43l171 -166l-50 -57z" />
    <glyph glyph-name="Cdotaccent" unicode="&#x10a;" horiz-adv-x="596" 
d="M218 135h209v77h136v-103c0 -12.667 -3.66699 -25.5 -11 -38.5s-16.833 -24.667 -28.5 -35s-24.667 -18.833 -39 -25.5s-28.5 -10 -42.5 -10h-265c-14 0 -27.833 3.16699 -41.5 9.5s-26 14.5 -37 24.5s-20 21.5 -27 34.5s-10.5 26.5 -10.5 40.5v490
c0 14 3.33301 27.5 10 40.5s15.5 24.5 26.5 34.5s23.5 18.167 37.5 24.5s28 9.5 42 9.5h180l69 -73v73h126v-203h-126v68h-208v-438zM218 819c0 23.333 8 43 24 59s35.667 24 59 24s43 -8 59 -24s24 -35.667 24 -59s-8 -43 -24 -59s-35.667 -24 -59 -24s-43 8 -59 24
s-24 35.667 -24 59z" />
    <glyph glyph-name="cdotaccent" unicode="&#x10b;" horiz-adv-x="519" 
d="M51 401c0 12 2.83301 24 8.5 36s13.5 22.667 23.5 32s21.5 17 34.5 23s26.833 9 41.5 9h117l68 -71v71h132v-173h-132v44h-144v-246h148v56h139v-79c0 -12 -2.33301 -24.167 -7 -36.5s-11.667 -23.333 -21 -33s-20.833 -17.667 -34.5 -24s-29.5 -9.5 -47.5 -9.5h-216
c-16.667 0 -31.667 3 -45 9s-24.833 13.833 -34.5 23.5s-17.167 20.667 -22.5 33s-8 24.833 -8 37.5v298zM182 644c0 23.333 8 43 24 59s35.667 24 59 24s43 -8 59 -24s24 -35.667 24 -59s-8 -43 -24 -59s-35.667 -24 -59 -24s-43 8 -59 24s-24 35.667 -24 59z" />
    <glyph glyph-name="Ccaron" unicode="&#x10c;" horiz-adv-x="596" 
d="M218 135h209v77h136v-103c0 -12.667 -3.66699 -25.5 -11 -38.5s-16.833 -24.667 -28.5 -35s-24.667 -18.833 -39 -25.5s-28.5 -10 -42.5 -10h-265c-14 0 -27.833 3.16699 -41.5 9.5s-26 14.5 -37 24.5s-20 21.5 -27 34.5s-10.5 26.5 -10.5 40.5v490
c0 14 3.33301 27.5 10 40.5s15.5 24.5 26.5 34.5s23.5 18.167 37.5 24.5s28 9.5 42 9.5h180l69 -73v73h126v-203h-126v68h-208v-438zM473 933l39 -53l-177 -147h-43l-175 148l35 52l160 -79z" />
    <glyph glyph-name="ccaron" unicode="&#x10d;" horiz-adv-x="519" 
d="M51 401c0 12 2.83301 24 8.5 36s13.5 22.667 23.5 32s21.5 17 34.5 23s26.833 9 41.5 9h117l68 -71v71h132v-173h-132v44h-144v-246h148v56h139v-79c0 -12 -2.33301 -24.167 -7 -36.5s-11.667 -23.333 -21 -33s-20.833 -17.667 -34.5 -24s-29.5 -9.5 -47.5 -9.5h-216
c-16.667 0 -31.667 3 -45 9s-24.833 13.833 -34.5 23.5s-17.167 20.667 -22.5 33s-8 24.833 -8 37.5v298zM401 774l50 -56l-171 -166h-43l-174 167l51 56l142 -99z" />
    <glyph glyph-name="Dcaron" unicode="&#x10e;" horiz-adv-x="674" 
d="M42 133l52 -0.000976562v443h-53v132h458c18 0 34.167 -3.33301 48.5 -10s26.333 -15.334 36 -26.001s17.167 -22.667 22.5 -36s8 -26.333 8 -39v-486c0 -14 -3.16699 -27.667 -9.5 -41s-14.833 -25.166 -25.5 -35.499s-23 -18.666 -37 -24.999s-28.333 -9.5 -43 -9.5
h-457v133zM251 134.999h206v438h-206v-438zM482 932.999l39 -53l-177 -147h-43l-175 148l35 52l160 -79z" />
    <glyph glyph-name="dcaron" unicode="&#x10f;" horiz-adv-x="715" 
d="M579 516v232h66c14.667 0 26 -2.33301 34 -7s14 -10.167 18 -16.5s6.5 -12.833 7.5 -19.5s1.5 -12 1.5 -16v-93l-79 -80h-48zM312 729l198.002 -1v-606h47v-122h-193v72l-70 -72h-133c-16 0 -30.833 3.16699 -44.5 9.5s-25.334 14.333 -35.001 24
s-17.167 20.667 -22.5 33s-8 24.5 -8 36.5v295c0 12.667 2.5 25.167 7.5 37.5s12.333 23.333 22 33s21.167 17.5 34.5 23.5s28.666 9 45.999 9h133l70 -72v176h-52v124zM203.002 129h161v243h-161v-243z" />
    <glyph glyph-name="Dcroat" unicode="&#x110;" horiz-adv-x="674" 
d="M41 400l53 -0.000976562v176h-53v132h458c18 0 34.167 -3.33301 48.5 -10s26.333 -15.334 36 -26.001s17.167 -22.667 22.5 -36s8 -26.333 8 -39v-486c0 -14 -3.16699 -27.667 -9.5 -41s-14.833 -25.166 -25.5 -35.499s-23 -18.666 -37 -24.999s-28.333 -9.5 -43 -9.5
h-457v133h52v180h-53v87zM251 399.999h104v-87h-104v-178h206v438h-206v-173z" />
    <glyph glyph-name="dcroat" unicode="&#x111;" horiz-adv-x="590" 
d="M510 564l48.002 -0.000976562v-76h-48v-365h47v-123h-193v72l-70 -72h-133c-16 0 -30.833 3.16699 -44.5 9.5s-25.334 14.333 -35.001 24s-17.167 20.667 -22.5 33s-8 24.5 -8 36.5v235c0 12.667 2.5 25.334 7.5 38.001s12.333 23.667 22 33s21.167 17 34.5 23
s28.666 9 45.999 9h133l70 -71v118h-167v76h167v54h-56v111l203 -1zM203.002 128.999h161v183h-161v-183z" />
    <glyph glyph-name="Emacron" unicode="&#x112;" horiz-adv-x="636" 
d="M41 134h53v441h-54v133h546v-229h-135v96h-200v-140h221v-125h-221v-175h215v131h136v-266h-561v134zM177 859h322v-103h-322v103z" />
    <glyph glyph-name="emacron" unicode="&#x113;" horiz-adv-x="545" 
d="M161 0c-15.333 0 -29.6689 2.99902 -43.002 8.99902s-25 13.833 -35 23.5s-17.833 20.667 -23.5 33s-8.5 24.833 -8.5 37.5v281c0 12.667 2.83301 25.834 8.5 39.501s13.667 26.167 24 37.5s23 20.666 38 27.999s31.833 11 50.5 11h198
c22.667 0 41.834 -3.83301 57.501 -11.5s28.334 -17.167 38.001 -28.5s16.667 -24.166 21 -38.499s6.5 -27.833 6.5 -40.5v-91c0 -28 -6.33301 -47.167 -19 -57.5s-30 -15.5 -52 -15.5h-225v-90h162v48h136v-72c0 -12 -3 -24.167 -9 -36.5s-14.167 -23.5 -24.5 -33.5
s-22.5 -18 -36.5 -24s-29.333 -9 -46 -9h-218zM196.997 306.999h149v71h-149v-71zM113.997 675.999h323v-104h-323v104z" />
    <glyph glyph-name="Ebreve" unicode="&#x114;" horiz-adv-x="636" 
d="M41 134h53v441h-54v133h546v-229h-135v96h-200v-140h221v-125h-221v-175h215v131h136v-266h-561v134zM337 827c11.333 0 21.667 2.5 31 7.5s17.666 11.5 24.999 19.5s13.333 17.167 18 27.5s7.66699 20.833 9 31.5h87c0 -20 -3.66699 -40.5 -11 -61.5
s-18 -40.167 -32 -57.5s-31.667 -31.5 -53 -42.5s-46 -16.5 -74 -16.5s-52.667 5.5 -74 16.5s-39.166 25.167 -53.499 42.5s-25.166 36.5 -32.499 57.5s-11 41.5 -11 61.5h89c1.33301 -10.667 4.16602 -21.167 8.49902 -31.5s10 -19.5 17 -27.5s15.333 -14.5 25 -19.5
s20.167 -7.5 31.5 -7.5z" />
    <glyph glyph-name="ebreve" unicode="&#x115;" horiz-adv-x="545" 
d="M161 0c-15.333 0 -29.6689 2.99902 -43.002 8.99902s-25 13.833 -35 23.5s-17.833 20.667 -23.5 33s-8.5 24.833 -8.5 37.5v281c0 12.667 2.83301 25.834 8.5 39.501s13.667 26.167 24 37.5s23 20.666 38 27.999s31.833 11 50.5 11h198
c22.667 0 41.834 -3.83301 57.501 -11.5s28.334 -17.167 38.001 -28.5s16.667 -24.166 21 -38.499s6.5 -27.833 6.5 -40.5v-91c0 -28 -6.33301 -47.167 -19 -57.5s-30 -15.5 -52 -15.5h-225v-90h162v48h136v-72c0 -12 -3 -24.167 -9 -36.5s-14.167 -23.5 -24.5 -33.5
s-22.5 -18 -36.5 -24s-29.333 -9 -46 -9h-218zM196.997 306.999h149v71h-149v-71zM279.997 642.999c11.333 0 21.668 2.5 31.001 7.5s17.666 11.5 24.999 19.5s13.166 17.167 17.499 27.5s7.16602 20.833 8.49902 31.5h88c0 -20 -3.66699 -40.5 -11 -61.5
s-18.166 -40 -32.499 -57s-32 -31 -53 -42s-45.5 -16.5 -73.5 -16.5s-52.667 5.5 -74 16.5s-39.166 25 -53.499 42s-25.166 36 -32.499 57s-11 41.5 -11 61.5h88c1.33301 -10.667 4.16602 -21.167 8.49902 -31.5s10 -19.5 17 -27.5s15.333 -14.5 25 -19.5
s20.5 -7.5 32.5 -7.5z" />
    <glyph glyph-name="Edotaccent" unicode="&#x116;" horiz-adv-x="636" 
d="M41 134h53v441h-54v133h546v-229h-135v96h-200v-140h221v-125h-221v-175h215v131h136v-266h-561v134zM235 819c0 23.333 8 43 24 59s35.667 24 59 24s43 -8 59 -24s24 -35.667 24 -59s-8 -43 -24 -59s-35.667 -24 -59 -24s-43 8 -59 24s-24 35.667 -24 59z" />
    <glyph glyph-name="edotaccent" unicode="&#x117;" horiz-adv-x="545" 
d="M161 0c-15.333 0 -29.6689 2.99902 -43.002 8.99902s-25 13.833 -35 23.5s-17.833 20.667 -23.5 33s-8.5 24.833 -8.5 37.5v281c0 12.667 2.83301 25.834 8.5 39.501s13.667 26.167 24 37.5s23 20.666 38 27.999s31.833 11 50.5 11h198
c22.667 0 41.834 -3.83301 57.501 -11.5s28.334 -17.167 38.001 -28.5s16.667 -24.166 21 -38.499s6.5 -27.833 6.5 -40.5v-91c0 -28 -6.33301 -47.167 -19 -57.5s-30 -15.5 -52 -15.5h-225v-90h162v48h136v-72c0 -12 -3 -24.167 -9 -36.5s-14.167 -23.5 -24.5 -33.5
s-22.5 -18 -36.5 -24s-29.333 -9 -46 -9h-218zM196.997 306.999h149v71h-149v-71zM179.997 643.999c0 23.333 8 43 24 59s35.667 24 59 24s43 -8 59 -24s24 -35.667 24 -59s-8 -43 -24 -59s-35.667 -24 -59 -24s-43 8 -59 24s-24 35.667 -24 59z" />
    <glyph glyph-name="Eogonek" unicode="&#x118;" horiz-adv-x="636" 
d="M41 134l53 0.000976562v441h-54v133h546v-229h-135v96h-200v-140h221v-125h-221v-175h215v131h136v-266h-60v-106h110v-94h-125c-23.333 0 -43.5 7.16699 -60.5 21.5s-25.5 37.166 -25.5 68.499v60l41 50h-441v134z" />
    <glyph glyph-name="eogonek" unicode="&#x119;" horiz-adv-x="545" 
d="M495 103c0 -19.333 -7.00293 -38.167 -21.0029 -56.5s-32 -31.5 -54 -39.5v-91h110v-94h-125c-23.333 0 -43.5 7.16699 -60.5 21.5s-25.5 37.166 -25.5 68.499v60l23 28h-181c-15.333 0 -29.666 3 -42.999 9s-25 13.833 -35 23.5s-17.833 20.667 -23.5 33
s-8.5 24.833 -8.5 37.5v281c0 12.667 2.83301 25.834 8.5 39.501s13.667 26.167 24 37.5s23 20.666 38 27.999s31.833 11 50.5 11h198c22.667 0 41.834 -3.83301 57.501 -11.5s28.334 -17.167 38.001 -28.5s16.667 -24.166 21 -38.499s6.5 -27.833 6.5 -40.5v-91
c0 -28 -6.33301 -47.167 -19 -57.5s-30 -15.5 -52 -15.5h-225v-90h162v48h136v-72zM196.997 306.999h149v71h-149v-71z" />
    <glyph glyph-name="Ecaron" unicode="&#x11a;" horiz-adv-x="636" 
d="M41 134h53v441h-54v133h546v-229h-135v96h-200v-140h221v-125h-221v-175h215v131h136v-266h-561v134zM497 933l39 -53l-177 -147h-43l-175 148l35 52l160 -79z" />
    <glyph glyph-name="ecaron" unicode="&#x11b;" horiz-adv-x="545" 
d="M161 0c-15.333 0 -29.6689 2.99902 -43.002 8.99902s-25 13.833 -35 23.5s-17.833 20.667 -23.5 33s-8.5 24.833 -8.5 37.5v281c0 12.667 2.83301 25.834 8.5 39.501s13.667 26.167 24 37.5s23 20.666 38 27.999s31.833 11 50.5 11h198
c22.667 0 41.834 -3.83301 57.501 -11.5s28.334 -17.167 38.001 -28.5s16.667 -24.166 21 -38.499s6.5 -27.833 6.5 -40.5v-91c0 -28 -6.33301 -47.167 -19 -57.5s-30 -15.5 -52 -15.5h-225v-90h162v48h136v-72c0 -12 -3 -24.167 -9 -36.5s-14.167 -23.5 -24.5 -33.5
s-22.5 -18 -36.5 -24s-29.333 -9 -46 -9h-218zM196.997 306.999h149v71h-149v-71zM421.997 773.999l50 -56l-171 -166h-43l-174 167l51 56l142 -99z" />
    <glyph glyph-name="Gcircumflex" unicode="&#x11c;" horiz-adv-x="663" 
d="M353 402h272v-113h-43v-289h-90l-53 73l-70 -73h-192c-14 0 -27.833 3.16699 -41.5 9.5s-26 14.5 -37 24.5s-20 21.5 -27 34.5s-10.5 26.5 -10.5 40.5v490c0 14 3.16699 27.5 9.5 40.5s14.833 24.5 25.5 34.5s23 18.167 37 24.5s28.667 9.5 44 9.5h201l70 -73v73h125
v-203h-125v68h-230v-438h219v154h-84v113zM350 812l-159 -79l-35 52l175 148h42l178 -147l-40 -53z" />
    <glyph glyph-name="gcircumflex" unicode="&#x11d;" horiz-adv-x="580" 
d="M145 -46h231v69h-231v-69zM198 279h123v103h-123v-103zM459 402c0.666992 -3.33301 1 -10.334 1 -21.001v-117c0 -11.333 -2.5 -23 -7.5 -35s-12.5 -23 -22.5 -33s-22.167 -18.333 -36.5 -25s-30.5 -10 -48.5 -10h-176v-33h248c16.667 0 31.667 -3 45 -9
s24.666 -13.833 33.999 -23.5s16.666 -20.667 21.999 -33s8 -24.833 8 -37.5v-99c0 -13.333 -2.33301 -26.166 -7 -38.499s-11.334 -23.333 -20.001 -33s-19.5 -17.5 -32.5 -23.5s-27.833 -9 -44.5 -9h-306c-34 0 -59.833 10.667 -77.5 32s-26.5 46 -26.5 74v37l79 73
c-14.667 7.33301 -24.667 18 -30 32s-7.33301 29.333 -6 46l60 61c-16 9.33301 -29.167 21.833 -39.5 37.5s-15.5 32.167 -15.5 49.5v134c0 11.333 2.5 23 7.5 35s12.333 23 22 33s21.167 18.333 34.5 25s28.333 10 45 10h183c22 0 41.167 -5 57.5 -15
s28.5 -23.667 36.5 -41l16 18c6.66699 7.33301 14.834 14.5 24.501 21.5s20.834 12.833 33.501 17.5s26.667 7 42 7c6.66699 -18 9.83398 -37.333 9.50098 -58s-2.5 -40 -6.5 -58zM270 643.999l-142 -99l-51 56l174 167h43l171 -166l-50 -57z" />
    <glyph glyph-name="Gbreve" unicode="&#x11e;" horiz-adv-x="663" 
d="M353 402h272v-113h-43v-289h-90l-53 73l-70 -73h-192c-14 0 -27.833 3.16699 -41.5 9.5s-26 14.5 -37 24.5s-20 21.5 -27 34.5s-10.5 26.5 -10.5 40.5v490c0 14 3.16699 27.5 9.5 40.5s14.833 24.5 25.5 34.5s23 18.167 37 24.5s28.667 9.5 44 9.5h201l70 -73v73h125
v-203h-125v68h-230v-438h219v154h-84v113zM334 827c11.333 0 21.667 2.5 31 7.5s17.666 11.5 24.999 19.5s13.333 17.167 18 27.5s7.66699 20.833 9 31.5h87c0 -20 -3.66699 -40.5 -11 -61.5s-18 -40.167 -32 -57.5s-31.667 -31.5 -53 -42.5s-46 -16.5 -74 -16.5
s-52.667 5.5 -74 16.5s-39.166 25.167 -53.499 42.5s-25.166 36.5 -32.499 57.5s-11 41.5 -11 61.5h89c1.33301 -10.667 4.16602 -21.167 8.49902 -31.5s10 -19.5 17 -27.5s15.333 -14.5 25 -19.5s20.167 -7.5 31.5 -7.5z" />
    <glyph glyph-name="gbreve" unicode="&#x11f;" horiz-adv-x="580" 
d="M145 -46h231v69h-231v-69zM198 279h123v103h-123v-103zM459 402c0.666992 -3.33301 1 -10.334 1 -21.001v-117c0 -11.333 -2.5 -23 -7.5 -35s-12.5 -23 -22.5 -33s-22.167 -18.333 -36.5 -25s-30.5 -10 -48.5 -10h-176v-33h248c16.667 0 31.667 -3 45 -9
s24.666 -13.833 33.999 -23.5s16.666 -20.667 21.999 -33s8 -24.833 8 -37.5v-99c0 -13.333 -2.33301 -26.166 -7 -38.499s-11.334 -23.333 -20.001 -33s-19.5 -17.5 -32.5 -23.5s-27.833 -9 -44.5 -9h-306c-34 0 -59.833 10.667 -77.5 32s-26.5 46 -26.5 74v37l79 73
c-14.667 7.33301 -24.667 18 -30 32s-7.33301 29.333 -6 46l60 61c-16 9.33301 -29.167 21.833 -39.5 37.5s-15.5 32.167 -15.5 49.5v134c0 11.333 2.5 23 7.5 35s12.333 23 22 33s21.167 18.333 34.5 25s28.333 10 45 10h183c22 0 41.167 -5 57.5 -15
s28.5 -23.667 36.5 -41l16 18c6.66699 7.33301 14.834 14.5 24.501 21.5s20.834 12.833 33.501 17.5s26.667 7 42 7c6.66699 -18 9.83398 -37.333 9.50098 -58s-2.5 -40 -6.5 -58zM265 642.999c11.333 0 21.668 2.5 31.001 7.5s17.666 11.5 24.999 19.5
s13.166 17.167 17.499 27.5s7.16602 20.833 8.49902 31.5h88c0 -20 -3.66699 -40.5 -11 -61.5s-18.166 -40 -32.499 -57s-32 -31 -53 -42s-45.5 -16.5 -73.5 -16.5s-52.667 5.5 -74 16.5s-39.166 25 -53.499 42s-25.166 36 -32.499 57s-11 41.5 -11 61.5h88
c1.33301 -10.667 4.16602 -21.167 8.49902 -31.5s10 -19.5 17 -27.5s15.333 -14.5 25 -19.5s20.5 -7.5 32.5 -7.5z" />
    <glyph glyph-name="Gdotaccent" unicode="&#x120;" horiz-adv-x="663" 
d="M353 402h272v-113h-43v-289h-90l-53 73l-70 -73h-192c-14 0 -27.833 3.16699 -41.5 9.5s-26 14.5 -37 24.5s-20 21.5 -27 34.5s-10.5 26.5 -10.5 40.5v490c0 14 3.16699 27.5 9.5 40.5s14.833 24.5 25.5 34.5s23 18.167 37 24.5s28.667 9.5 44 9.5h201l70 -73v73h125
v-203h-125v68h-230v-438h219v154h-84v113zM230 819c0 23.333 8 43 24 59s35.667 24 59 24s43 -8 59 -24s24 -35.667 24 -59s-8 -43 -24 -59s-35.667 -24 -59 -24s-43 8 -59 24s-24 35.667 -24 59z" />
    <glyph glyph-name="gdotaccent" unicode="&#x121;" horiz-adv-x="580" 
d="M145 -46h231v69h-231v-69zM198 279h123v103h-123v-103zM459 402c0.666992 -3.33301 1 -10.334 1 -21.001v-117c0 -11.333 -2.5 -23 -7.5 -35s-12.5 -23 -22.5 -33s-22.167 -18.333 -36.5 -25s-30.5 -10 -48.5 -10h-176v-33h248c16.667 0 31.667 -3 45 -9
s24.666 -13.833 33.999 -23.5s16.666 -20.667 21.999 -33s8 -24.833 8 -37.5v-99c0 -13.333 -2.33301 -26.166 -7 -38.499s-11.334 -23.333 -20.001 -33s-19.5 -17.5 -32.5 -23.5s-27.833 -9 -44.5 -9h-306c-34 0 -59.833 10.667 -77.5 32s-26.5 46 -26.5 74v37l79 73
c-14.667 7.33301 -24.667 18 -30 32s-7.33301 29.333 -6 46l60 61c-16 9.33301 -29.167 21.833 -39.5 37.5s-15.5 32.167 -15.5 49.5v134c0 11.333 2.5 23 7.5 35s12.333 23 22 33s21.167 18.333 34.5 25s28.333 10 45 10h183c22 0 41.167 -5 57.5 -15
s28.5 -23.667 36.5 -41l16 18c6.66699 7.33301 14.834 14.5 24.501 21.5s20.834 12.833 33.501 17.5s26.667 7 42 7c6.66699 -18 9.83398 -37.333 9.50098 -58s-2.5 -40 -6.5 -58zM184 643.999c0 23.333 8 43 24 59s35.667 24 59 24s43 -8 59 -24s24 -35.667 24 -59
s-8 -43 -24 -59s-35.667 -24 -59 -24s-43 8 -59 24s-24 35.667 -24 59z" />
    <glyph glyph-name="Gcommaaccent" unicode="&#x122;" horiz-adv-x="663" 
d="M353 402h272v-113h-43v-289h-90l-53 73l-70 -73h-192c-14 0 -27.833 3.16699 -41.5 9.5s-26 14.5 -37 24.5s-20 21.5 -27 34.5s-10.5 26.5 -10.5 40.5v490c0 14 3.16699 27.5 9.5 40.5s14.833 24.5 25.5 34.5s23 18.167 37 24.5s28.667 9.5 44 9.5h201l70 -73v73h125
v-203h-125v68h-230v-438h219v154h-84v113zM291 -266v232h66c14.667 0 26 -2.33301 34 -7s14 -10.167 18 -16.5s6.5 -12.833 7.5 -19.5s1.5 -12 1.5 -16v-93l-79 -80h-48z" />
    <glyph glyph-name="gcommaaccent" unicode="&#x123;" horiz-adv-x="580" 
d="M314 805v-233h-65c-14.667 0 -26.167 2.33301 -34.5 7s-14.5 10.167 -18.5 16.5s-6.5 12.833 -7.5 19.5s-1.5 12 -1.5 16v93l80 81h47zM145 -46h231v69h-231v-69zM198 279h123v103h-123v-103zM459 402c0.666992 -3.33301 1 -10.334 1 -21.001v-117
c0 -11.333 -2.5 -23 -7.5 -35s-12.5 -23 -22.5 -33s-22.167 -18.333 -36.5 -25s-30.5 -10 -48.5 -10h-176v-33h248c16.667 0 31.667 -3 45 -9s24.666 -13.833 33.999 -23.5s16.666 -20.667 21.999 -33s8 -24.833 8 -37.5v-99c0 -13.333 -2.33301 -26.166 -7 -38.499
s-11.334 -23.333 -20.001 -33s-19.5 -17.5 -32.5 -23.5s-27.833 -9 -44.5 -9h-306c-34 0 -59.833 10.667 -77.5 32s-26.5 46 -26.5 74v37l79 73c-14.667 7.33301 -24.667 18 -30 32s-7.33301 29.333 -6 46l60 61c-16 9.33301 -29.167 21.833 -39.5 37.5
s-15.5 32.167 -15.5 49.5v134c0 11.333 2.5 23 7.5 35s12.333 23 22 33s21.167 18.333 34.5 25s28.333 10 45 10h183c22 0 41.167 -5 57.5 -15s28.5 -23.667 36.5 -41l16 18c6.66699 7.33301 14.834 14.5 24.501 21.5s20.834 12.833 33.501 17.5s26.667 7 42 7
c6.66699 -18 9.83398 -37.333 9.50098 -58s-2.5 -40 -6.5 -58z" />
    <glyph glyph-name="Hcircumflex" unicode="&#x124;" horiz-adv-x="754" 
d="M312 132v-132h-270v132h57v444h-58v132h271v-132h-55v-150h237v150h-60v132h278v-132h-62v-444h62v-132h-278v132h60v171h-237v-171h55zM370 832l-159 -79l-35 52l175 148h42l178 -147l-40 -53z" />
    <glyph glyph-name="hcircumflex" unicode="&#x125;" horiz-adv-x="617" 
d="M350 122h39.999v250h-161v-250h47v-122h-244v122h48v483h-48v123l197 1v-300l70 72h130c16.667 0 31.834 -3 45.501 -9s25.167 -13.833 34.5 -23.5s16.5 -20.667 21.5 -33s7.5 -24.833 7.5 -37.5v-276h52v-122h-240v122zM148.999 836l-159 -79l-35 52l175 148h42
l178 -147l-40 -53z" />
    <glyph glyph-name="Hbar" unicode="&#x126;" horiz-adv-x="754" 
d="M312 133v-133h-270v133h57v318h-58v57h58v67h-58v133h271v-133h-55v-67h237v67h-60v133h278v-133h-62v-67h62v-57h-62v-318h62v-133h-278v133h60v147h-237v-147h55zM494 403v48h-237v-48h237z" />
    <glyph glyph-name="hbar" unicode="&#x127;" horiz-adv-x="617" 
d="M32 557h47.999v48h-48v123l197 1v-172h162v-72h-162v-122l70 72h130c16.667 0 31.834 -3 45.501 -9s25.167 -13.833 34.5 -23.5s16.5 -20.667 21.5 -33s7.5 -24.833 7.5 -37.5v-210h52v-122h-240v122h40v184h-161v-184h47v-122h-244v122h48v363h-48v72z" />
    <glyph glyph-name="Itilde" unicode="&#x128;" horiz-adv-x="431" 
d="M293 132h66v-132h-287v132h64v444h-65v132h288v-132h-66v-444zM286 748c-14.667 0 -28.001 1.8291 -40.001 5.49609s-23.5 7.83398 -34.5 12.501s-21.667 8.83398 -32 12.501s-20.833 5.5 -31.5 5.5c-13.333 0 -24.833 -4.33301 -34.5 -13s-18.834 -17.667 -27.501 -27
l-12.5 8l-20 13l-20 13l-12.5 8c2.66699 6.66699 7.33398 15.667 14.001 27s15 22.333 25 33s22 20 36 28s30 12 48 12c14.667 0 28 -2.16699 40 -6.5s23.333 -9 34 -14l30.5 -14c9.66699 -4.33301 19.5 -6.5 29.5 -6.5c13.333 0 25 4 35 12s20 17 30 27l65 -46
c-4 -8 -9.33301 -17.167 -16 -27.5s-15.167 -20.166 -25.5 -29.499s-22.166 -17.166 -35.499 -23.499s-28.333 -9.5 -45 -9.5z" />
    <glyph glyph-name="itilde" unicode="&#x129;" horiz-adv-x="345" 
d="M244 123h51v-123h-247v123h47v254h-47v124h196v-378zM227 565c-14.667 0 -28.001 1.8291 -40.001 5.49609s-23.5 7.83398 -34.5 12.501s-21.667 8.83398 -32 12.501s-20.833 5.5 -31.5 5.5c-13.333 0 -24.833 -4.33301 -34.5 -13s-18.834 -17.667 -27.501 -27l-12.5 8
l-20 13l-20 13l-12.5 8c2.66699 6.66699 7.33398 15.667 14.001 27s15 22.333 25 33s22 20 36 28s30 12 48 12c14.667 0 28 -2.16699 40 -6.5s23.333 -9 34 -14l30.5 -14c9.66699 -4.33301 19.5 -6.5 29.5 -6.5c13.333 0 25 4 35 12s20 17 30 27l65 -46
c-4 -8 -9.33301 -17.167 -16 -27.5s-15.167 -20.166 -25.5 -29.499s-22.166 -17.166 -35.499 -23.499s-28.333 -9.5 -45 -9.5z" />
    <glyph glyph-name="Imacron" unicode="&#x12a;" horiz-adv-x="431" 
d="M293 132h66v-132h-287v132h64v444h-65v132h288v-132h-66v-444zM54 859h322v-103h-322v103z" />
    <glyph glyph-name="imacron" unicode="&#x12b;" horiz-adv-x="345" 
d="M244 123h51v-123h-247v123h47v254h-47v124h196v-378zM-9 666h323v-104h-323v104z" />
    <glyph glyph-name="Ibreve" unicode="&#x12c;" horiz-adv-x="431" 
d="M215 827c11.333 0 21.667 2.5 31 7.5s17.666 11.5 24.999 19.5s13.333 17.167 18 27.5s7.66699 20.833 9 31.5h87c0 -20 -3.66699 -40.5 -11 -61.5s-18 -40.167 -32 -57.5s-31.667 -31.5 -53 -42.5s-46 -16.5 -74 -16.5s-52.667 5.5 -74 16.5
s-39.166 25.167 -53.499 42.5s-25.166 36.5 -32.499 57.5s-11 41.5 -11 61.5h89c1.33301 -10.667 4.16602 -21.167 8.49902 -31.5s10 -19.5 17 -27.5s15.333 -14.5 25 -19.5s20.167 -7.5 31.5 -7.5zM293.001 132h66v-132h-287v132h64v444h-65v132h288v-132h-66v-444z" />
    <glyph glyph-name="ibreve" unicode="&#x12d;" horiz-adv-x="345" 
d="M244 123h51v-123h-247v123h47v254h-47v124h196v-378zM160 649c11.333 0 21.668 2.5 31.001 7.5s17.666 11.5 24.999 19.5s13.166 17.167 17.499 27.5s7.16602 20.833 8.49902 31.5h88c0 -20 -3.66699 -40.5 -11 -61.5s-18.166 -40 -32.499 -57s-32 -31 -53 -42
s-45.5 -16.5 -73.5 -16.5s-52.667 5.5 -74 16.5s-39.166 25 -53.499 42s-25.166 36 -32.499 57s-11 41.5 -11 61.5h88c1.33301 -10.667 4.16602 -21.167 8.49902 -31.5s10 -19.5 17 -27.5s15.333 -14.5 25 -19.5s20.5 -7.5 32.5 -7.5z" />
    <glyph glyph-name="Iogonek" unicode="&#x12e;" horiz-adv-x="431" 
d="M293 132l66 0.000976562v-132h-96v-106h110v-94h-125c-23.333 0 -43.5 7.16699 -60.5 21.5s-25.5 37.166 -25.5 68.499v60l41 50h-131v132h64v444h-65v132h288v-132h-66v-444z" />
    <glyph glyph-name="iogonek" unicode="&#x12f;" horiz-adv-x="345" 
d="M244 123l51 0.000976562v-123h-85v-105h110v-94h-125c-23.333 0 -43.5 7.16699 -60.5 21.5s-25.5 37.166 -25.5 68.499v60l40 49h-101v123h47v255h-47v123h196v-378zM70 635.001c0 25.333 8.83301 46.833 26.5 64.5s39.167 26.5 64.5 26.5
c24.667 0 45.834 -8.83301 63.501 -26.5s26.5 -39.167 26.5 -64.5s-8.83301 -46.666 -26.5 -63.999s-38.834 -26 -63.501 -26c-25.333 0 -46.833 8.66699 -64.5 26s-26.5 38.666 -26.5 63.999z" />
    <glyph glyph-name="Idotaccent" unicode="&#x130;" horiz-adv-x="431" 
d="M293 132h66v-132h-287v132h64v444h-65v132h288v-132h-66v-444zM133 819c0 23.333 8 43 24 59s35.667 24 59 24s43 -8 59 -24s24 -35.667 24 -59s-8 -43 -24 -59s-35.667 -24 -59 -24s-43 8 -59 24s-24 35.667 -24 59z" />
    <glyph glyph-name="dotlessi" unicode="&#x131;" horiz-adv-x="345" 
d="M244 123h51v-123h-247v123h47v254h-47v124h196v-378z" />
    <glyph glyph-name="IJ" unicode="&#x132;" horiz-adv-x="974" 
d="M293 132h66v-132h-287v132h64v444h-65v132h288v-132h-66v-444zM534 226l-0.000976562 -90.999h182v440h-71v133h287v-133h-58v-466c0 -12.667 -3.16699 -25.5 -9.5 -38.5s-14.666 -24.667 -24.999 -35s-22.5 -18.833 -36.5 -25.5s-28.667 -10 -44 -10h-248
c-15.333 0 -30 3.16699 -44 9.5s-26.333 14.666 -37 24.999s-19.167 22 -25.5 35s-9.5 26.167 -9.5 39.5v117h139z" />
    <glyph glyph-name="ij" unicode="&#x133;" horiz-adv-x="641" 
d="M244 123h51v-123h-247v123h47v255h-47v123h196v-378zM70 635c0 25.333 8.83301 46.833 26.5 64.5s39.167 26.5 64.5 26.5c24.667 0 45.834 -8.83301 63.501 -26.5s26.5 -39.167 26.5 -64.5s-8.83301 -46.666 -26.5 -63.999s-38.834 -26 -63.501 -26
c-25.333 0 -46.833 8.66699 -64.5 26s-26.5 38.666 -26.5 63.999zM395 635c0 25.333 8.83301 46.833 26.5 64.5s39.167 26.5 64.5 26.5s46.666 -8.83301 63.999 -26.5s26 -39.167 26 -64.5s-8.66699 -46.666 -26 -63.999s-38.666 -26 -63.999 -26s-46.833 8.66699 -64.5 26
s-26.5 38.666 -26.5 63.999zM420 378h-47v123h196v-545c0 -44 -11 -77.333 -33 -100s-53.667 -34 -95 -34h-128v124h107v432z" />
    <glyph glyph-name="Jcircumflex" unicode="&#x134;" horiz-adv-x="590" 
d="M150 227l-0.000976562 -90.999h182v440h-71v133h287v-133h-58v-466c0 -12.667 -3.16699 -25.5 -9.5 -38.5s-14.666 -24.667 -24.999 -35s-22.5 -18.833 -36.5 -25.5s-28.667 -10 -44 -10h-248c-15.333 0 -30 3.16699 -44 9.5s-26.333 14.666 -37 24.999
s-19.167 22 -25.5 35s-9.5 26.167 -9.5 39.5v117h139zM397.999 814.001l-159 -79l-35 52l175 148h42l178 -147l-40 -53z" />
    <glyph glyph-name="jcircumflex" unicode="&#x135;" horiz-adv-x="313" 
d="M92 377h-47v124h196v-545c0 -44 -11 -77.333 -33 -100s-53.667 -34 -95 -34h-128v124h107v431zM142 644l-143 -99l-50 56l174 167h42l171 -166l-50 -57z" />
    <glyph glyph-name="Kcommaaccent" unicode="&#x136;" horiz-adv-x="689" 
d="M384 708h271v-134h-66l-129 -130l161 -311h51v-133h-269v133h47l-102 200l-105 -105v-96h48v-132h-255v132h49v442h-50v134h255v-134h-47v-197l193 197h-52v134zM294 -276v232h66c14.667 0 26 -2.33301 34 -7s14 -10.167 18 -16.5s6.5 -12.833 7.5 -19.5s1.5 -12 1.5 -16
v-93l-79 -80h-48z" />
    <glyph glyph-name="kcommaaccent" unicode="&#x137;" horiz-adv-x="593" 
d="M303 501h246v-119h-59l-64 -56l104 -204h35v-122h-229v122h40l-59 109l-88 -77v-32h40v-122h-234v122h46v484h-51v122h199v-443l112 97h-38v119zM253 -268v232h66c14.667 0 26 -2.33301 34 -7s14 -10.167 18 -16.5s6.5 -12.833 7.5 -19.5s1.5 -12 1.5 -16v-93l-79 -80
h-48z" />
    <glyph glyph-name="kgreenlandic" unicode="&#x138;" horiz-adv-x="593" 
d="M303 501h246v-119h-59l-64 -56l104 -204h35v-122h-229v122h40l-59 109l-88 -77v-32h40v-122h-234v122h46v257h-51v122h199v-216l112 97h-38v119z" />
    <glyph glyph-name="Lacute" unicode="&#x139;" horiz-adv-x="594" 
d="M309 576h-58v-441h207v83h125v-218h-542v132h54v444h-52v132h266v-132zM138 805l188 129l61 -111l-204 -92z" />
    <glyph glyph-name="lacute" unicode="&#x13a;" horiz-adv-x="330" 
d="M239 122h51v-122h-247v122h47v484h-47v123l196 1v-608zM80 841l188 129l61 -111l-204 -92z" />
    <glyph glyph-name="Lcommaaccent" unicode="&#x13b;" horiz-adv-x="594" 
d="M309 576h-58v-441h207v83h125v-218h-542v132h54v444h-52v132h266v-132zM283 -266v232h66c14.667 0 26 -2.33301 34 -7s14 -10.167 18 -16.5s6.5 -12.833 7.5 -19.5s1.5 -12 1.5 -16v-93l-79 -80h-48z" />
    <glyph glyph-name="lcommaaccent" unicode="&#x13c;" horiz-adv-x="330" 
d="M239 122h51v-122h-247v122h47v484h-47v123l196 1v-608zM104 -264v232h66c14.667 0 26 -2.33301 34 -7s14 -10.167 18 -16.5s6.5 -12.833 7.5 -19.5s1.5 -12 1.5 -16v-93l-79 -80h-48z" />
    <glyph glyph-name="Lcaron" unicode="&#x13d;" horiz-adv-x="594" 
d="M309 576h-58v-441h207v83h125v-218h-542v132h54v444h-52v132h266v-132zM408 486v232h66c14.667 0 26 -2.33301 34 -7s14 -10.167 18 -16.5s6.5 -12.833 7.5 -19.5s1.5 -12 1.5 -16v-93l-79 -80h-48z" />
    <glyph glyph-name="lcaron" unicode="&#x13e;" horiz-adv-x="439" 
d="M302 515v232h66c14.667 0 26 -2.33301 34 -7s14 -10.167 18 -16.5s6.5 -12.833 7.5 -19.5s1.5 -12 1.5 -16v-93l-79 -80h-48zM239 122h51v-122h-247v122h47v484h-47v123l196 1v-608z" />
    <glyph glyph-name="Ldot" unicode="&#x13f;" horiz-adv-x="594" 
d="M309 576h-58v-441h207v83h125v-218h-542v132h54v444h-52v132h266v-132zM337 378c0 23.333 8 43 24 59s35.667 24 59 24s43 -8 59 -24s24 -35.667 24 -59s-8 -43 -24 -59s-35.667 -24 -59 -24s-43 8 -59 24s-24 35.667 -24 59z" />
    <glyph glyph-name="ldot" unicode="&#x140;" horiz-adv-x="491" 
d="M307 378c0 23.333 8 43 24 59s35.667 24 59 24s43 -8 59 -24s24 -35.667 24 -59s-8 -43 -24 -59s-35.667 -24 -59 -24s-43 8 -59 24s-24 35.667 -24 59zM239 122h51v-122h-247v122h47v484h-47v123l196 1v-608z" />
    <glyph glyph-name="Lslash" unicode="&#x141;" horiz-adv-x="594" 
d="M309 576h-58v-153l107 62l44 -74l-151 -88v-188h207v83h125v-218h-542v132h54v100l-52 -29l-43 74l95 55v244h-52v132h266v-132z" />
    <glyph glyph-name="lslash" unicode="&#x142;" horiz-adv-x="342" 
d="M244 438l59 34l44 -75l-103 -59v-216h51v-122h-247v122h47v131l-63 -36l-43 74l106 61v254h-47v123l196 1v-292z" />
    <glyph glyph-name="Nacute" unicode="&#x143;" horiz-adv-x="772" 
d="M539 263v313h-53v132h244v-132h-58v-579h-149l-295 467h-5v-332h53v-132h-234v132h53v444h-54v132h211l282 -445h5zM312 805l188 129l61 -111l-204 -92z" />
    <glyph glyph-name="nacute" unicode="&#x144;" horiz-adv-x="621" 
d="M349 122h39.999v250h-161v-250h47v-122h-244v122h49v257h-49v121l197 1v-72l70 72h131c16.667 0 31.834 -3 45.501 -9s25.167 -13.833 34.5 -23.5s16.5 -20.667 21.5 -33s7.5 -24.833 7.5 -37.5v-276h51v-122h-240v122zM227.999 583l108 201l107 -67l-135 -178z" />
    <glyph glyph-name="Ncommaaccent" unicode="&#x145;" horiz-adv-x="772" 
d="M539 263v313h-53v132h244v-132h-58v-579h-149l-295 467h-5v-332h53v-132h-234v132h53v444h-54v132h211l282 -445h5zM338 -246v232h66c14.667 0 26 -2.33301 34 -7s14 -10.167 18 -16.5s6.5 -12.833 7.5 -19.5s1.5 -12 1.5 -16v-93l-79 -80h-48z" />
    <glyph glyph-name="ncommaaccent" unicode="&#x146;" horiz-adv-x="621" 
d="M349 122h39.999v250h-161v-250h47v-122h-244v122h49v257h-49v121l197 1v-72l70 72h131c16.667 0 31.834 -3 45.501 -9s25.167 -13.833 34.5 -23.5s16.5 -20.667 21.5 -33s7.5 -24.833 7.5 -37.5v-276h51v-122h-240v122zM272.999 -266v232h66c14.667 0 26 -2.33301 34 -7
s14 -10.167 18 -16.5s6.5 -12.833 7.5 -19.5s1.5 -12 1.5 -16v-93l-79 -80h-48z" />
    <glyph glyph-name="Ncaron" unicode="&#x147;" horiz-adv-x="772" 
d="M539 263v313h-53v132h244v-132h-58v-579h-149l-295 467h-5v-332h53v-132h-234v132h53v444h-54v132h211l282 -445h5zM541 933l39 -53l-177 -147h-43l-175 148l35 52l160 -79z" />
    <glyph glyph-name="ncaron" unicode="&#x148;" horiz-adv-x="621" 
d="M349 122h39.999v250h-161v-250h47v-122h-244v122h49v257h-49v121l197 1v-72l70 72h131c16.667 0 31.834 -3 45.501 -9s25.167 -13.833 34.5 -23.5s16.5 -20.667 21.5 -33s7.5 -24.833 7.5 -37.5v-276h51v-122h-240v122zM439.999 774l50 -56l-171 -166h-43l-174 167l51 56
l142 -99z" />
    <glyph glyph-name="napostrophe" unicode="&#x149;" horiz-adv-x="759" 
d="M487 122h39.999v250h-161v-250h47v-122h-244v122h49v257h-49v121l197 1v-72l70 72h131c16.667 0 31.834 -3 45.501 -9s25.167 -13.833 34.5 -23.5s16.5 -20.667 21.5 -33s7.5 -24.833 7.5 -37.5v-276h51v-122h-240v122zM20.999 461v232h66c14.667 0 26 -2.33301 34 -7
s14 -10.167 18 -16.5s6.5 -12.833 7.5 -19.5s1.5 -12 1.5 -16v-93l-79 -80h-48z" />
    <glyph glyph-name="Eng" unicode="&#x14a;" horiz-adv-x="760" 
d="M534 272v302h-53v134h236v-134h-57v-683c0 -30 -8.33301 -52.667 -25 -68s-36.667 -23 -60 -23h-136v102h98v85l-316 471h-5v-326h53v-132h-227v132h52v442h-53v134h206l282 -436h5z" />
    <glyph glyph-name="eng" unicode="&#x14b;" horiz-adv-x="607" 
d="M389 372h-161.001v-250h47v-122h-244v122h49v256h-49v122h38.5c19 0 39 0.166992 60 0.5s40.833 0.5 59.5 0.5h39v-72l14 14l21.5 22l21 22l13.5 14h131c16.667 0 31.834 -3 45.501 -9s25.167 -13.833 34.5 -23.5s16.5 -20.667 21.5 -33s7.5 -24.833 7.5 -37.5v-493
c0 -31.333 -8.66699 -54.333 -26 -69s-37.333 -22 -60 -22h-157v94h94v464z" />
    <glyph glyph-name="Omacron" unicode="&#x14c;" horiz-adv-x="658" 
d="M61 599c0 13.333 3.33105 26.501 9.99805 39.501s15.334 24.667 26.001 35s23 18.666 37 24.999s28.333 9.5 43 9.5h305c14.667 0 29 -3.16699 43 -9.5s26.333 -14.666 37 -24.999s19.167 -22 25.5 -35s9.5 -26.167 9.5 -39.5v-490c0 -12.667 -3.16699 -25.5 -9.5 -38.5
s-14.666 -24.667 -24.999 -35s-22.5 -18.833 -36.5 -25.5s-28.667 -10 -44 -10h-305c-14 0 -28 3.16699 -42 9.5s-26.5 14.666 -37.5 24.999s-19.833 22 -26.5 35s-10 26.167 -10 39.5v490zM217.998 573.001v-438h222v438h-222zM174.998 859.001h322v-103h-322v103z" />
    <glyph glyph-name="omacron" unicode="&#x14d;" horiz-adv-x="568" 
d="M517 103c0 -12 -2.99707 -24.167 -8.99707 -36.5s-14.167 -23.5 -24.5 -33.5s-22.5 -18 -36.5 -24s-29 -9 -45 -9h-241c-16 0 -30.667 3 -44 9s-25 13.833 -35 23.5s-17.667 20.667 -23 33s-8 24.833 -8 37.5v295c0 12.667 2.83301 25.167 8.5 37.5s13.5 23.333 23.5 33
s21.667 17.5 35 23.5s27.666 9 42.999 9h247c16.667 0 31.667 -3 45 -9s24.666 -13.833 33.999 -23.5s16.666 -20.667 21.999 -33s8 -24.833 8 -37.5v-295zM197.003 127h174v247h-174v-247zM128.003 686h323v-104h-323v104z" />
    <glyph glyph-name="Obreve" unicode="&#x14e;" horiz-adv-x="658" 
d="M61 599c0 13.333 3.33105 26.501 9.99805 39.501s15.334 24.667 26.001 35s23 18.666 37 24.999s28.333 9.5 43 9.5h305c14.667 0 29 -3.16699 43 -9.5s26.333 -14.666 37 -24.999s19.167 -22 25.5 -35s9.5 -26.167 9.5 -39.5v-490c0 -12.667 -3.16699 -25.5 -9.5 -38.5
s-14.666 -24.667 -24.999 -35s-22.5 -18.833 -36.5 -25.5s-28.667 -10 -44 -10h-305c-14 0 -28 3.16699 -42 9.5s-26.5 14.666 -37.5 24.999s-19.833 22 -26.5 35s-10 26.167 -10 39.5v490zM217.998 573.001v-438h222v438h-222zM327.998 827.001c11.333 0 21.667 2.5 31 7.5
s17.666 11.5 24.999 19.5s13.333 17.167 18 27.5s7.66699 20.833 9 31.5h87c0 -20 -3.66699 -40.5 -11 -61.5s-18 -40.167 -32 -57.5s-31.667 -31.5 -53 -42.5s-46 -16.5 -74 -16.5s-52.667 5.5 -74 16.5s-39.166 25.167 -53.499 42.5s-25.166 36.5 -32.499 57.5
s-11 41.5 -11 61.5h89c1.33301 -10.667 4.16602 -21.167 8.49902 -31.5s10 -19.5 17 -27.5s15.333 -14.5 25 -19.5s20.167 -7.5 31.5 -7.5z" />
    <glyph glyph-name="obreve" unicode="&#x14f;" horiz-adv-x="568" 
d="M517 103c0 -12 -2.99707 -24.167 -8.99707 -36.5s-14.167 -23.5 -24.5 -33.5s-22.5 -18 -36.5 -24s-29 -9 -45 -9h-241c-16 0 -30.667 3 -44 9s-25 13.833 -35 23.5s-17.667 20.667 -23 33s-8 24.833 -8 37.5v295c0 12.667 2.83301 25.167 8.5 37.5s13.5 23.333 23.5 33
s21.667 17.5 35 23.5s27.666 9 42.999 9h247c16.667 0 31.667 -3 45 -9s24.666 -13.833 33.999 -23.5s16.666 -20.667 21.999 -33s8 -24.833 8 -37.5v-295zM197.003 127h174v247h-174v-247zM281.003 643c11.333 0 21.668 2.5 31.001 7.5s17.666 11.5 24.999 19.5
s13.166 17.167 17.499 27.5s7.16602 20.833 8.49902 31.5h88c0 -20 -3.66699 -40.5 -11 -61.5s-18.166 -40 -32.499 -57s-32 -31 -53 -42s-45.5 -16.5 -73.5 -16.5s-52.667 5.5 -74 16.5s-39.166 25 -53.499 42s-25.166 36 -32.499 57s-11 41.5 -11 61.5h88
c1.33301 -10.667 4.16602 -21.167 8.49902 -31.5s10 -19.5 17 -27.5s15.333 -14.5 25 -19.5s20.5 -7.5 32.5 -7.5z" />
    <glyph glyph-name="Ohungarumlaut" unicode="&#x150;" horiz-adv-x="658" 
d="M61 599c0 13.333 3.33105 26.501 9.99805 39.501s15.334 24.667 26.001 35s23 18.666 37 24.999s28.333 9.5 43 9.5h305c14.667 0 29 -3.16699 43 -9.5s26.333 -14.666 37 -24.999s19.167 -22 25.5 -35s9.5 -26.167 9.5 -39.5v-490c0 -12.667 -3.16699 -25.5 -9.5 -38.5
s-14.666 -24.667 -24.999 -35s-22.5 -18.833 -36.5 -25.5s-28.667 -10 -44 -10h-305c-14 0 -28 3.16699 -42 9.5s-26.5 14.666 -37.5 24.999s-19.833 22 -26.5 35s-10 26.167 -10 39.5v490zM217.998 573.001v-438h222v438h-222zM143.998 822.001l188 129l61 -111l-205 -92z
M390.998 822.001l187 129l61 -111l-204 -92z" />
    <glyph glyph-name="ohungarumlaut" unicode="&#x151;" horiz-adv-x="568" 
d="M517 103c0 -12 -2.99707 -24.167 -8.99707 -36.5s-14.167 -23.5 -24.5 -33.5s-22.5 -18 -36.5 -24s-29 -9 -45 -9h-241c-16 0 -30.667 3 -44 9s-25 13.833 -35 23.5s-17.667 20.667 -23 33s-8 24.833 -8 37.5v295c0 12.667 2.83301 25.167 8.5 37.5s13.5 23.333 23.5 33
s21.667 17.5 35 23.5s27.666 9 42.999 9h247c16.667 0 31.667 -3 45 -9s24.666 -13.833 33.999 -23.5s16.666 -20.667 21.999 -33s8 -24.833 8 -37.5v-295zM197.003 127h174v247h-174v-247zM128.003 589l108 202l108 -67l-136 -178zM292.003 580l108 201l108 -67l-136 -179z
" />
    <glyph glyph-name="OE" unicode="&#x152;" horiz-adv-x="861" 
d="M61 599c0 13.333 3.33203 26.502 9.99902 39.502s15.334 24.667 26.001 35s23 18.666 37 24.999s28.333 9.5 43 9.5h637v-229h-126v96h-171v-140h187v-125h-187v-175h186v131h126v-266h-652c-14 0 -28 3.16699 -42 9.5s-26.5 14.666 -37.5 24.999s-19.833 22 -26.5 35
s-10 26.167 -10 39.5v490zM217.999 573.002v-438h141v438h-141z" />
    <glyph glyph-name="oe" unicode="&#x153;" horiz-adv-x="839" 
d="M497 0c-13.333 0 -26.999 4.16602 -40.999 12.499s-25.667 20.166 -35 35.499c-8 -15.333 -20.5 -27.166 -37.5 -35.499s-32.5 -12.5 -46.5 -12.5h-176c-16 0 -30.667 3 -44 9s-25 13.833 -35 23.5s-17.667 20.667 -23 33s-8 24.833 -8 37.5v295
c0 12.667 2.83301 25.167 8.5 37.5s13.5 23.333 23.5 33s21.667 17.5 35 23.5s27.666 9 42.999 9h193c13.333 0 26.833 -4 40.5 -12s24.167 -18.667 31.5 -32c9.33301 13.333 20.666 23.833 33.999 31.5s27 11.5 41 11.5h164c22.667 0 41.667 -3.83301 57 -11.5
s27.833 -17.167 37.5 -28.5s16.667 -24.166 21 -38.499s6.5 -27.833 6.5 -40.5v-91c0 -28 -6.33301 -47.167 -19 -57.5s-29.667 -15.5 -51 -15.5h-198v-90h131v41h139v-65c0 -12 -2.83301 -24.167 -8.5 -36.5s-13.667 -23.5 -24 -33.5s-22.666 -18 -36.999 -24
s-29.833 -9 -46.5 -9h-176zM196.001 126.999h139v247h-139v-247zM519.001 306.999h120v68h-120v-68z" />
    <glyph glyph-name="Racute" unicode="&#x154;" horiz-adv-x="656" 
d="M312 294l-59 -0.000976562v-162h54v-132h-266v132h54v444h-54v132h447c18.667 0 35.167 -3.16699 49.5 -9.5s26.333 -14.666 36 -24.999s17 -22 22 -35s7.5 -26.167 7.5 -39.5v-198c0 -13.333 -2.33301 -26.333 -7 -39s-11.5 -24 -20.5 -34s-20.167 -18.167 -33.5 -24.5
s-29 -9.5 -47 -9.5h-24l71 -164h78v-130h-182zM253 572.999v-147h191v147h-191zM259 804.999l188 129l61 -111l-204 -92z" />
    <glyph glyph-name="racute" unicode="&#x155;" horiz-adv-x="466" 
d="M234 358l-0.00195312 -235h47v-123h-244v123h48v255h-48v122l197 1v-86c6.66699 8 16.334 17.333 29.001 28s27.667 20.834 45 30.501s37 17.834 59 24.501s45.667 9.66699 71 9c9.33301 -11.333 15.833 -24.333 19.5 -39s5.33398 -29.834 5.00098 -45.501
s-2.33301 -30.834 -6 -45.501s-8.16699 -28 -13.5 -40zM171.998 583l108 201l107 -67l-135 -178z" />
    <glyph glyph-name="Rcommaaccent" unicode="&#x156;" horiz-adv-x="656" 
d="M312 294l-59 -0.000976562v-162h54v-132h-266v132h54v444h-54v132h447c18.667 0 35.167 -3.16699 49.5 -9.5s26.333 -14.666 36 -24.999s17 -22 22 -35s7.5 -26.167 7.5 -39.5v-198c0 -13.333 -2.33301 -26.333 -7 -39s-11.5 -24 -20.5 -34s-20.167 -18.167 -33.5 -24.5
s-29 -9.5 -47 -9.5h-24l71 -164h78v-130h-182zM253 572.999v-147h191v147h-191zM327 -246.001v232h66c14.667 0 26 -2.33301 34 -7s14 -10.167 18 -16.5s6.5 -12.833 7.5 -19.5s1.5 -12 1.5 -16v-93l-79 -80h-48z" />
    <glyph glyph-name="rcommaaccent" unicode="&#x157;" horiz-adv-x="466" 
d="M234 358l-0.00195312 -235h47v-123h-244v123h48v255h-48v122l197 1v-86c6.66699 8 16.334 17.333 29.001 28s27.667 20.834 45 30.501s37 17.834 59 24.501s45.667 9.66699 71 9c9.33301 -11.333 15.833 -24.333 19.5 -39s5.33398 -29.834 5.00098 -45.501
s-2.33301 -30.834 -6 -45.501s-8.16699 -28 -13.5 -40zM95.998 -266v232h66c14.667 0 26 -2.33301 34 -7s14 -10.167 18 -16.5s6.5 -12.833 7.5 -19.5s1.5 -12 1.5 -16v-93l-79 -80h-48z" />
    <glyph glyph-name="Rcaron" unicode="&#x158;" horiz-adv-x="656" 
d="M312 294l-59 -0.000976562v-162h54v-132h-266v132h54v444h-54v132h447c18.667 0 35.167 -3.16699 49.5 -9.5s26.333 -14.666 36 -24.999s17 -22 22 -35s7.5 -26.167 7.5 -39.5v-198c0 -13.333 -2.33301 -26.333 -7 -39s-11.5 -24 -20.5 -34s-20.167 -18.167 -33.5 -24.5
s-29 -9.5 -47 -9.5h-24l71 -164h78v-130h-182zM253 572.999v-147h191v147h-191zM474 932.999l39 -53l-177 -147h-43l-175 148l35 52l160 -79z" />
    <glyph glyph-name="rcaron" unicode="&#x159;" horiz-adv-x="466" 
d="M234 358l-0.00195312 -235h47v-123h-244v123h48v255h-48v122l197 1v-86c6.66699 8 16.334 17.333 29.001 28s27.667 20.834 45 30.501s37 17.834 59 24.501s45.667 9.66699 71 9c9.33301 -11.333 15.833 -24.333 19.5 -39s5.33398 -29.834 5.00098 -45.501
s-2.33301 -30.834 -6 -45.501s-8.16699 -28 -13.5 -40zM372.998 774l50 -56l-171 -166h-43l-174 167l51 56l142 -99z" />
    <glyph glyph-name="Sacute" unicode="&#x15a;" horiz-adv-x="613" 
d="M168 298c-14.667 0 -28.9971 2.83301 -42.9971 8.5s-26.5 13.5 -37.5 23.5s-19.833 21.667 -26.5 35s-10 27.333 -10 42v192c0 13.333 3.16699 26.5 9.5 39.5s14.666 24.667 24.999 35s22.666 18.666 36.999 24.999s29.5 9.5 45.5 9.5h165l70 -74v74h127v-196h-127v61
h-196v-140h238c16.667 0 32.167 -2.83301 46.5 -8.5s26.666 -13.5 36.999 -23.5s18.333 -21.667 24 -35s8.5 -27.333 8.5 -42v-214c0 -15.333 -3.33301 -29.666 -10 -42.999s-15.5 -25 -26.5 -35s-23.5 -17.833 -37.5 -23.5s-28 -8.5 -42 -8.5h-195l-71 73v-73h-126v196h126
v-61h225v163h-236zM211.003 805l188 129l61 -111l-204 -92z" />
    <glyph glyph-name="sacute" unicode="&#x15b;" horiz-adv-x="531" 
d="M464 501l-0.000976562 -157.001h-132v41h-141v-70h192c16 0 30.333 -3 43 -9s23.5 -13.667 32.5 -23s15.833 -20 20.5 -32s7 -24.333 7 -37v-117c0 -12 -2.83301 -23.667 -8.5 -35s-13.167 -21.666 -22.5 -30.999s-20.166 -16.833 -32.499 -22.5s-25.5 -8.5 -39.5 -8.5
h-143l-63 64v-64h-133v156h133v-39h160v77h-187c-14 0 -27.667 3 -41 9s-25 13.833 -35 23.5s-18 20.667 -24 33s-9 24.833 -9 37.5v107c0 12 2.83301 23.833 8.5 35.5s13.5 22 23.5 31s21.5 16.333 34.5 22s26.833 8.5 41.5 8.5h124l59 -66v66h132zM180.999 582.999
l108 201l107 -67l-135 -178z" />
    <glyph glyph-name="Scircumflex" unicode="&#x15c;" horiz-adv-x="613" 
d="M168 298c-14.667 0 -28.9971 2.83301 -42.9971 8.5s-26.5 13.5 -37.5 23.5s-19.833 21.667 -26.5 35s-10 27.333 -10 42v192c0 13.333 3.16699 26.5 9.5 39.5s14.666 24.667 24.999 35s22.666 18.666 36.999 24.999s29.5 9.5 45.5 9.5h165l70 -74v74h127v-196h-127v61
h-196v-140h238c16.667 0 32.167 -2.83301 46.5 -8.5s26.666 -13.5 36.999 -23.5s18.333 -21.667 24 -35s8.5 -27.333 8.5 -42v-214c0 -15.333 -3.33301 -29.666 -10 -42.999s-15.5 -25 -26.5 -35s-23.5 -17.833 -37.5 -23.5s-28 -8.5 -42 -8.5h-195l-71 73v-73h-126v196h126
v-61h225v163h-236zM309.003 812l-159 -79l-35 52l175 148h42l178 -147l-40 -53z" />
    <glyph glyph-name="scircumflex" unicode="&#x15d;" horiz-adv-x="531" 
d="M464 501l-0.000976562 -157.001h-132v41h-141v-70h192c16 0 30.333 -3 43 -9s23.5 -13.667 32.5 -23s15.833 -20 20.5 -32s7 -24.333 7 -37v-117c0 -12 -2.83301 -23.667 -8.5 -35s-13.167 -21.666 -22.5 -30.999s-20.166 -16.833 -32.499 -22.5s-25.5 -8.5 -39.5 -8.5
h-143l-63 64v-64h-133v156h133v-39h160v77h-187c-14 0 -27.667 3 -41 9s-25 13.833 -35 23.5s-18 20.667 -24 33s-9 24.833 -9 37.5v107c0 12 2.83301 23.833 8.5 35.5s13.5 22 23.5 31s21.5 16.333 34.5 22s26.833 8.5 41.5 8.5h124l59 -66v66h132zM257.999 643.999
l-142 -99l-51 56l174 167h43l171 -166l-50 -57z" />
    <glyph glyph-name="Scedilla" unicode="&#x15e;" horiz-adv-x="613" 
d="M168 298c-14.667 0 -28.9971 2.83301 -42.9971 8.5s-26.5 13.5 -37.5 23.5s-19.833 21.667 -26.5 35s-10 27.333 -10 42v192c0 13.333 3.16699 26.5 9.5 39.5s14.666 24.667 24.999 35s22.666 18.666 36.999 24.999s29.5 9.5 45.5 9.5h165l70 -74v74h127v-196h-127v61
h-196v-140h238c16.667 0 32.167 -2.83301 46.5 -8.5s26.666 -13.5 36.999 -23.5s18.333 -21.667 24 -35s8.5 -27.333 8.5 -42v-214c0 -15.333 -3.33301 -29.666 -10 -42.999s-15.5 -25 -26.5 -35s-23.5 -17.833 -37.5 -23.5s-28 -8.5 -42 -8.5h-104l-28 -36h56
c18 0 31.5 -5 40.5 -15s13.5 -20.667 13.5 -32v-85c0 -11.333 -4.83301 -22.333 -14.5 -33s-23.5 -16 -41.5 -16h-134c-16.667 0 -30 5.16699 -40 15.5s-15 21.5 -15 33.5v39h86v-20h71v50h-70l-39 47l38 52h-14l-71 73v-73h-126v196h126v-61h225v163h-236v0z" />
    <glyph glyph-name="scedilla" unicode="&#x15f;" horiz-adv-x="531" 
d="M464 501l-0.000976562 -157.001h-132v41h-141v-70h192c16 0 30.333 -3 43 -9s23.5 -13.667 32.5 -23s15.833 -20 20.5 -32s7 -24.333 7 -37v-117c0 -12 -2.83301 -23.667 -8.5 -35s-13.167 -21.666 -22.5 -30.999s-20.166 -16.833 -32.499 -22.5s-25.5 -8.5 -39.5 -8.5
h-61l-28 -36h56c18 0 31.5 -5 40.5 -15s13.5 -20.667 13.5 -32v-85c0 -11.333 -4.83301 -22.333 -14.5 -33s-23.5 -16 -41.5 -16h-134c-16.667 0 -30 5.16699 -40 15.5s-15 21.5 -15 33.5v39h86v-20h71v50h-70l-39 47l38 52h-5l-63 64v-64h-133v156h133v-39h160v77h-187
c-14 0 -27.667 3 -41 9s-25 13.833 -35 23.5s-18 20.667 -24 33s-9 24.833 -9 37.5v107c0 12 2.83301 23.833 8.5 35.5s13.5 22 23.5 31s21.5 16.333 34.5 22s26.833 8.5 41.5 8.5h124l59 -66v66h132z" />
    <glyph glyph-name="Scaron" unicode="&#x160;" horiz-adv-x="613" 
d="M168 298c-14.667 0 -28.9971 2.83301 -42.9971 8.5s-26.5 13.5 -37.5 23.5s-19.833 21.667 -26.5 35s-10 27.333 -10 42v192c0 13.333 3.16699 26.5 9.5 39.5s14.666 24.667 24.999 35s22.666 18.666 36.999 24.999s29.5 9.5 45.5 9.5h165l70 -74v74h127v-196h-127v61
h-196v-140h238c16.667 0 32.167 -2.83301 46.5 -8.5s26.666 -13.5 36.999 -23.5s18.333 -21.667 24 -35s8.5 -27.333 8.5 -42v-214c0 -15.333 -3.33301 -29.666 -10 -42.999s-15.5 -25 -26.5 -35s-23.5 -17.833 -37.5 -23.5s-28 -8.5 -42 -8.5h-195l-71 73v-73h-126v196h126
v-61h225v163h-236zM453.003 933l39 -53l-177 -147h-43l-175 148l35 52l160 -79z" />
    <glyph glyph-name="scaron" unicode="&#x161;" horiz-adv-x="531" 
d="M464 501l-0.000976562 -157.001h-132v41h-141v-70h192c16 0 30.333 -3 43 -9s23.5 -13.667 32.5 -23s15.833 -20 20.5 -32s7 -24.333 7 -37v-117c0 -12 -2.83301 -23.667 -8.5 -35s-13.167 -21.666 -22.5 -30.999s-20.166 -16.833 -32.499 -22.5s-25.5 -8.5 -39.5 -8.5
h-143l-63 64v-64h-133v156h133v-39h160v77h-187c-14 0 -27.667 3 -41 9s-25 13.833 -35 23.5s-18 20.667 -24 33s-9 24.833 -9 37.5v107c0 12 2.83301 23.833 8.5 35.5s13.5 22 23.5 31s21.5 16.333 34.5 22s26.833 8.5 41.5 8.5h124l59 -66v66h132zM405.999 773.999l50 -56
l-171 -166h-43l-174 167l51 56l142 -99z" />
    <glyph glyph-name="Tcommaaccent" unicode="&#x162;" horiz-adv-x="665" 
d="M516 575h-105v-442h85v-133h-320v133h77v442h-105v-92h-137v225h642v-225h-137v92zM273 -266v232h66c14.667 0 26 -2.33301 34 -7s14 -10.167 18 -16.5s6.5 -12.833 7.5 -19.5s1.5 -12 1.5 -16v-93l-79 -80h-48z" />
    <glyph glyph-name="tcommaaccent" unicode="&#x163;" horiz-adv-x="435" 
d="M206 0c-23.333 0 -42.833 3.66504 -58.5 10.998s-28.334 16.833 -38.001 28.5s-16.667 25 -21 40s-6.5 30.167 -6.5 45.5v254h-61v120h61v85l57 64h92v-149h138v-120h-138v-256h105v64h89v-90c0 -11.333 -2.66699 -22.666 -8 -33.999s-12.833 -21.666 -22.5 -30.999
s-21.167 -17 -34.5 -23s-27.666 -9 -42.999 -9h-111zM192 -266.002v232h66c14.667 0 26 -2.33301 34 -7s14 -10.167 18 -16.5s6.5 -12.833 7.5 -19.5s1.5 -12 1.5 -16v-93l-79 -80h-48z" />
    <glyph glyph-name="Tcaron" unicode="&#x164;" horiz-adv-x="665" 
d="M516 575h-105v-442h85v-133h-320v133h77v442h-105v-92h-137v225h642v-225h-137v92zM492 933l39 -53l-177 -147h-43l-175 148l35 52l160 -79z" />
    <glyph glyph-name="tcaron" unicode="&#x165;" horiz-adv-x="520" 
d="M379 522v232h66c14.667 0 26 -2.33301 34 -7s14 -10.167 18 -16.5s6.5 -12.833 7.5 -19.5s1.5 -12 1.5 -16v-93l-79 -80h-48zM206 0c-23.333 0 -42.833 3.66504 -58.5 10.998s-28.334 16.833 -38.001 28.5s-16.667 25 -21 40s-6.5 30.167 -6.5 45.5v254h-61v120h61v85
l57 64h92v-149h138v-120h-138v-256h105v64h89v-90c0 -11.333 -2.66699 -22.666 -8 -33.999s-12.833 -21.666 -22.5 -30.999s-21.167 -17 -34.5 -23s-27.666 -9 -42.999 -9h-111z" />
    <glyph glyph-name="Tbar" unicode="&#x166;" horiz-adv-x="665" 
d="M516 575h-105v-183h154v-81h-154v-178h85v-133h-320v133h77v178h-151v81h151v183h-105v-92h-137v225h642v-225h-137v92z" />
    <glyph glyph-name="tbar" unicode="&#x167;" horiz-adv-x="435" 
d="M23 307l59 -0.00195312v72h-61v120h61v85l57 64h92v-149h138v-120h-138v-72h104v-68h-104v-116h105v64h89v-90c0 -11.333 -2.66699 -22.666 -8 -33.999s-12.833 -21.666 -22.5 -30.999s-21.167 -17 -34.5 -23s-27.666 -9 -42.999 -9h-111
c-23.333 0 -42.833 3.66699 -58.5 11s-28.334 16.833 -38.001 28.5s-16.667 25 -21 40s-6.5 30.167 -6.5 45.5v114h-59v68z" />
    <glyph glyph-name="Utilde" unicode="&#x168;" horiz-adv-x="723" 
d="M470 135l-0.000976562 440.999h-67v132h278v-132h-54v-460c0 -14 -2.83301 -28 -8.5 -42s-13.667 -26.5 -24 -37.5s-23.166 -19.833 -38.499 -26.5s-32.333 -10 -51 -10h-291c-19.333 0 -36.5 3.33301 -51.5 10s-27.667 15.334 -38 26.001s-18.333 23 -24 37
s-8.5 28.333 -8.5 43v460h-51v132h269v-132h-62v-441h222zM430.999 747.999c-14.667 0 -28.001 1.8291 -40.001 5.49609s-23.5 7.83398 -34.5 12.501s-21.667 8.83398 -32 12.501s-20.833 5.5 -31.5 5.5c-13.333 0 -24.833 -4.33301 -34.5 -13s-18.834 -17.667 -27.501 -27
l-12.5 8l-20 13l-20 13l-12.5 8c2.66699 6.66699 7.33398 15.667 14.001 27s15 22.333 25 33s22 20 36 28s30 12 48 12c14.667 0 28 -2.16699 40 -6.5s23.333 -9 34 -14l30.5 -14c9.66699 -4.33301 19.5 -6.5 29.5 -6.5c13.333 0 25 4 35 12s20 17 30 27l65 -46
c-4 -8 -9.33301 -17.167 -16 -27.5s-15.167 -20.166 -25.5 -29.499s-22.166 -17.166 -35.499 -23.499s-28.333 -9.5 -45 -9.5z" />
    <glyph glyph-name="utilde" unicode="&#x169;" horiz-adv-x="613" 
d="M267 379l-44 0.00195312v-252h161v252h-47v122h196v-379h50v-122h-199v71l-70 -71h-134c-17.333 0 -32.5 3 -45.5 9s-24 13.667 -33 23s-15.833 20.166 -20.5 32.499s-7 25.166 -7 38.499v276h-48v122h241v-122zM375 565.002c-14.667 0 -28.001 1.8291 -40.001 5.49609
s-23.5 7.83398 -34.5 12.501s-21.667 8.83398 -32 12.501s-20.833 5.5 -31.5 5.5c-13.333 0 -24.833 -4.33301 -34.5 -13s-18.834 -17.667 -27.501 -27l-12.5 8l-20 13l-20 13l-12.5 8c2.66699 6.66699 7.33398 15.667 14.001 27s15 22.333 25 33s22 20 36 28s30 12 48 12
c14.667 0 28 -2.16699 40 -6.5s23.333 -9 34 -14l30.5 -14c9.66699 -4.33301 19.5 -6.5 29.5 -6.5c13.333 0 25 4 35 12s20 17 30 27l65 -46c-4 -8 -9.33301 -17.167 -16 -27.5s-15.167 -20.166 -25.5 -29.499s-22.166 -17.166 -35.499 -23.499s-28.333 -9.5 -45 -9.5z" />
    <glyph glyph-name="Umacron" unicode="&#x16a;" horiz-adv-x="723" 
d="M470 135l-0.000976562 440.999h-67v132h278v-132h-54v-460c0 -14 -2.83301 -28 -8.5 -42s-13.667 -26.5 -24 -37.5s-23.166 -19.833 -38.499 -26.5s-32.333 -10 -51 -10h-291c-19.333 0 -36.5 3.33301 -51.5 10s-27.667 15.334 -38 26.001s-18.333 23 -24 37
s-8.5 28.333 -8.5 43v460h-51v132h269v-132h-62v-441h222zM192.999 858.999h322v-103h-322v103z" />
    <glyph glyph-name="umacron" unicode="&#x16b;" horiz-adv-x="613" 
d="M267 379l-44 0.00195312v-252h161v252h-47v122h196v-379h50v-122h-199v71l-70 -71h-134c-17.333 0 -32.5 3 -45.5 9s-24 13.667 -33 23s-15.833 20.166 -20.5 32.499s-7 25.166 -7 38.499v276h-48v122h241v-122zM139 686.002h323v-104h-323v104z" />
    <glyph glyph-name="Ubreve" unicode="&#x16c;" horiz-adv-x="723" 
d="M470 135l-0.000976562 440.999h-67v132h278v-132h-54v-460c0 -14 -2.83301 -28 -8.5 -42s-13.667 -26.5 -24 -37.5s-23.166 -19.833 -38.499 -26.5s-32.333 -10 -51 -10h-291c-19.333 0 -36.5 3.33301 -51.5 10s-27.667 15.334 -38 26.001s-18.333 23 -24 37
s-8.5 28.333 -8.5 43v460h-51v132h269v-132h-62v-441h222zM355.999 822.999c11.333 0 21.668 2.5 31.001 7.5s17.666 11.5 24.999 19.5s13.166 17.167 17.499 27.5s7.16602 20.833 8.49902 31.5h88c0 -20 -3.66699 -40.5 -11 -61.5s-18.166 -40 -32.499 -57s-32 -31 -53 -42
s-45.5 -16.5 -73.5 -16.5s-52.667 5.5 -74 16.5s-39.166 25 -53.499 42s-25.166 36 -32.499 57s-11 41.5 -11 61.5h88c1.33301 -10.667 4.16602 -21.167 8.49902 -31.5s10 -19.5 17 -27.5s15.333 -14.5 25 -19.5s20.5 -7.5 32.5 -7.5z" />
    <glyph glyph-name="ubreve" unicode="&#x16d;" horiz-adv-x="613" 
d="M267 379l-44 0.00195312v-252h161v252h-47v122h196v-379h50v-122h-199v71l-70 -71h-134c-17.333 0 -32.5 3 -45.5 9s-24 13.667 -33 23s-15.833 20.166 -20.5 32.499s-7 25.166 -7 38.499v276h-48v122h241v-122zM302 643.002c11.333 0 21.668 2.5 31.001 7.5
s17.666 11.5 24.999 19.5s13.166 17.167 17.499 27.5s7.16602 20.833 8.49902 31.5h88c0 -20 -3.66699 -40.5 -11 -61.5s-18.166 -40 -32.499 -57s-32 -31 -53 -42s-45.5 -16.5 -73.5 -16.5s-52.667 5.5 -74 16.5s-39.166 25 -53.499 42s-25.166 36 -32.499 57
s-11 41.5 -11 61.5h88c1.33301 -10.667 4.16602 -21.167 8.49902 -31.5s10 -19.5 17 -27.5s15.333 -14.5 25 -19.5s20.5 -7.5 32.5 -7.5z" />
    <glyph glyph-name="Uring" unicode="&#x16e;" horiz-adv-x="723" 
d="M470 135l-0.000976562 440.999h-67v132h278v-132h-54v-460c0 -14 -2.83301 -28 -8.5 -42s-13.667 -26.5 -24 -37.5s-23.166 -19.833 -38.499 -26.5s-32.333 -10 -51 -10h-291c-19.333 0 -36.5 3.33301 -51.5 10s-27.667 15.334 -38 26.001s-18.333 23 -24 37
s-8.5 28.333 -8.5 43v460h-51v132h269v-132h-62v-441h222zM355.999 754.999c-16.667 0 -32.1689 3.00195 -46.502 9.00195s-26.833 14.167 -37.5 24.5s-19 22.5 -25 36.5s-9 29 -9 45c0 15.333 3 30 9 44s14.333 26.167 25 36.5s23.167 18.666 37.5 24.999
s29.833 9.5 46.5 9.5s32 -3 46 -9s26.333 -14.333 37 -25s19 -22.834 25 -36.501s9 -28.5 9 -44.5s-3.16699 -31 -9.5 -45s-14.666 -26.167 -24.999 -36.5s-22.666 -18.5 -36.999 -24.5s-29.5 -9 -45.5 -9zM355.997 917.001c-13.333 0 -24.5 -4.5 -33.5 -13.5
s-13.5 -20.167 -13.5 -33.5s4.5 -24.833 13.5 -34.5s20.167 -14.5 33.5 -14.5c12.667 0 23.5 4.83301 32.5 14.5s13.5 21.167 13.5 34.5c0 12.667 -4.5 23.667 -13.5 33s-19.833 14 -32.5 14z" />
    <glyph glyph-name="uring" unicode="&#x16f;" horiz-adv-x="613" 
d="M267 379l-44 0.00195312v-252h161v252h-47v122h196v-379h50v-122h-199v71l-70 -71h-134c-17.333 0 -32.5 3 -45.5 9s-24 13.667 -33 23s-15.833 20.166 -20.5 32.499s-7 25.166 -7 38.499v276h-48v122h241v-122zM304 552.002c-16.667 0 -32.1689 3.00195 -46.502 9.00195
s-26.833 14.167 -37.5 24.5s-19 22.5 -25 36.5s-9 29 -9 45c0 15.333 3 30 9 44s14.333 26.167 25 36.5s23.167 18.666 37.5 24.999s29.833 9.5 46.5 9.5s32 -3 46 -9s26.333 -14.333 37 -25s19 -22.834 25 -36.501s9 -28.5 9 -44.5s-3.16699 -31 -9.5 -45
s-14.666 -26.167 -24.999 -36.5s-22.666 -18.5 -36.999 -24.5s-29.5 -9 -45.5 -9zM303.998 714.004c-13.333 0 -24.5 -4.5 -33.5 -13.5s-13.5 -20.167 -13.5 -33.5s4.5 -24.833 13.5 -34.5s20.167 -14.5 33.5 -14.5c12.667 0 23.5 4.83301 32.5 14.5s13.5 21.167 13.5 34.5
c0 12.667 -4.5 23.667 -13.5 33s-19.833 14 -32.5 14z" />
    <glyph glyph-name="Uhungarumlaut" unicode="&#x170;" horiz-adv-x="723" 
d="M470 135l-0.000976562 440.999h-67v132h278v-132h-54v-460c0 -14 -2.83301 -28 -8.5 -42s-13.667 -26.5 -24 -37.5s-23.166 -19.833 -38.499 -26.5s-32.333 -10 -51 -10h-291c-19.333 0 -36.5 3.33301 -51.5 10s-27.667 15.334 -38 26.001s-18.333 23 -24 37
s-8.5 28.333 -8.5 43v460h-51v132h269v-132h-62v-441h222zM154.999 818.999l188 129l61 -111l-205 -92zM401.999 818.999l187 129l61 -111l-204 -92z" />
    <glyph glyph-name="uhungarumlaut" unicode="&#x171;" horiz-adv-x="613" 
d="M267 379l-44 0.00195312v-252h161v252h-47v122h196v-379h50v-122h-199v71l-70 -71h-134c-17.333 0 -32.5 3 -45.5 9s-24 13.667 -33 23s-15.833 20.166 -20.5 32.499s-7 25.166 -7 38.499v276h-48v122h241v-122zM150 589.002l108 202l108 -67l-136 -178zM314 580.002
l108 201l108 -67l-136 -179z" />
    <glyph glyph-name="Uogonek" unicode="&#x172;" horiz-adv-x="723" 
d="M470 135l-0.000976562 441h-67v132h278v-132h-54v-460c0 -14 -2.83301 -28 -8.5 -42s-13.667 -26.5 -24 -37.5s-23.166 -19.833 -38.499 -26.5s-32.333 -10 -51 -10h-26v-104h110v-94h-125c-23.333 0 -43.5 7.16699 -60.5 21.5s-25.5 37.166 -25.5 68.499v60l39 48h-203
c-19.333 0 -36.5 3.33301 -51.5 10s-27.667 15.334 -38 26.001s-18.333 23 -24 37s-8.5 28.333 -8.5 43v460h-51v132h269v-132h-62v-441h222z" />
    <glyph glyph-name="uogonek" unicode="&#x173;" horiz-adv-x="613" 
d="M267 379l-44 0.00292969v-252h161v252h-47v122h196v-379h50v-122h-51v-106h110v-94h-125c-23.333 0 -43.5 7.16699 -60.5 21.5s-25.5 37.166 -25.5 68.499v60l41 50h-88v71l-70 -71h-134c-17.333 0 -32.5 3 -45.5 9s-24 13.667 -33 23s-15.833 20.166 -20.5 32.499
s-7 25.166 -7 38.499v276h-48v122h241v-122z" />
    <glyph glyph-name="Wcircumflex" unicode="&#x174;" horiz-adv-x="985" 
d="M497 272l-77 -278h-180l-178 582h-43v133h278v-133h-75l117 -409h6l91 319l-26 90h-56v133h286v-133h-73l119 -408h6l105 408h-72v133h243v-133h-42l-159 -582h-180l-85 278h-5zM497 812l-159 -79l-35 52l175 148h42l178 -147l-40 -53z" />
    <glyph glyph-name="wcircumflex" unicode="&#x175;" horiz-adv-x="835" 
d="M593 136l79 242h-49v123h200v-123h-34l-127 -383h-176l-60 166l-12 -23l-49 -143h-177l-71 191l-71 192h-34c0 20.667 -0.166992 41.167 -0.5 61.5s-0.5 40.833 -0.5 61.5h248v-123h-55l86 -247h6l64 189l-10 29l-10 29h-27v123h238v-123h-49l84 -242h7zM441 644
l-142 -99l-51 56l174 167h43l171 -166l-50 -57z" />
    <glyph glyph-name="Ycircumflex" unicode="&#x176;" horiz-adv-x="660" 
d="M21 576v133h272v-133h-68l126 -200l119 200h-74v133h253v-133h-42l-183 -301v-143h65v-132h-286v132h64v127l-206 317h-40zM348 812l-159 -79l-35 52l175 148h42l178 -147l-40 -53z" />
    <glyph glyph-name="ycircumflex" unicode="&#x177;" horiz-adv-x="557" 
d="M293 157l77 221h-40v123h216v-123h-41l-164 -436h52l-1 -120h-263v120h81l30 82h-44l-138 354h-41v123h223v-123h-33l80 -221h6zM280 644l-142 -99l-51 56l174 167h43l171 -166l-50 -57z" />
    <glyph glyph-name="Ydieresis" unicode="&#x178;" horiz-adv-x="660" 
d="M21 576v133h272v-133h-68l126 -200l119 200h-74v133h253v-133h-42l-183 -301v-143h65v-132h-286v132h64v127l-206 317h-40zM158 813c0 21.333 7.83301 39.6699 23.5 55.0029s34.167 23 55.5 23c10.667 0 20.667 -2 30 -6s17.5 -9.5 24.5 -16.5s12.667 -15.333 17 -25
s6.5 -19.834 6.5 -30.501s-2.16699 -20.834 -6.5 -30.501s-10 -18 -17 -25s-15.167 -12.5 -24.5 -16.5s-19.333 -6 -30 -6c-21.333 0 -39.833 7.66699 -55.5 23s-23.5 33.666 -23.5 54.999zM379 813.004c0 21.333 7.83301 39.6699 23.5 55.0029s34.167 23 55.5 23
c10.667 0 20.667 -2 30 -6s17.5 -9.5 24.5 -16.5s12.5 -15.333 16.5 -25s6 -19.834 6 -30.501s-2 -20.834 -6 -30.501s-9.5 -18 -16.5 -25s-15.167 -12.5 -24.5 -16.5s-19.333 -6 -30 -6c-21.333 0 -39.833 7.66699 -55.5 23s-23.5 33.666 -23.5 54.999z" />
    <glyph glyph-name="Zacute" unicode="&#x179;" horiz-adv-x="584" 
d="M206 133h230v83h126v-216h-541v133l338 442h-184v-66h-127v199h499v-129zM243 805l188 129l61 -111l-204 -92z" />
    <glyph glyph-name="zacute" unicode="&#x17a;" horiz-adv-x="519" 
d="M207 127h142v61h132v-188h-450v127l262 248h-116v-46h-132v172h427v-122zM221 583l108 201l107 -67l-135 -178z" />
    <glyph glyph-name="Zdotaccent" unicode="&#x17b;" horiz-adv-x="584" 
d="M206 133h230v83h126v-216h-541v133l338 442h-184v-66h-127v199h499v-129zM237 819c0 23.333 8 43 24 59s35.667 24 59 24s43 -8 59 -24s24 -35.667 24 -59s-8 -43 -24 -59s-35.667 -24 -59 -24s-43 8 -59 24s-24 35.667 -24 59z" />
    <glyph glyph-name="zdotaccent" unicode="&#x17c;" horiz-adv-x="519" 
d="M207 127h142v61h132v-188h-450v127l262 248h-116v-46h-132v172h427v-122zM194 644c0 23.333 8 43 24 59s35.667 24 59 24s43 -8 59 -24s24 -35.667 24 -59s-8 -43 -24 -59s-35.667 -24 -59 -24s-43 8 -59 24s-24 35.667 -24 59z" />
    <glyph glyph-name="Zcaron" unicode="&#x17d;" horiz-adv-x="584" 
d="M206 133h230v83h126v-216h-541v133l338 442h-184v-66h-127v199h499v-129zM480 933l39 -53l-177 -147h-43l-175 148l35 52l160 -79z" />
    <glyph glyph-name="zcaron" unicode="&#x17e;" horiz-adv-x="519" 
d="M207 127h142v61h132v-188h-450v127l262 248h-116v-46h-132v172h427v-122zM406 774l50 -56l-171 -166h-43l-174 167l51 56l142 -99z" />
    <glyph glyph-name="florin" unicode="&#x192;" 
d="M222 440l14 157.001c1.33301 12.667 4.66602 25.667 9.99902 39s13 25.166 23 35.499s22 18.833 36 25.5s30 10 48 10h168v-123h-138l-13 -144h93v-120h-103l-31 -347c-1.33301 -13.333 -4.66602 -26.5 -9.99902 -39.5s-13 -24.667 -23 -35s-22 -18.833 -36 -25.5
s-30 -10 -48 -10h-167v123h137l29 334h-71v120h82z" />
    <glyph glyph-name="Ohorn" unicode="&#x1a0;" horiz-adv-x="719" 
d="M61 599c0 13.333 3.33008 26.501 9.99707 39.501s15.334 24.667 26.001 35s23 18.666 37 24.999s28.333 9.5 43 9.5h305c14.667 0 29 -3.16699 43 -9.5s26.333 -14.666 37 -24.999s19.167 -22 25.5 -35s9.5 -26.167 9.5 -39.5v-42h38v171h84v-177c0 -10 -2 -20 -6 -30
s-9.66699 -19 -17 -27s-16.666 -14.5 -27.999 -19.5s-24 -7.5 -38 -7.5h-33v-358c0 -12.667 -3.16699 -25.5 -9.5 -38.5s-14.666 -24.667 -24.999 -35s-22.5 -18.833 -36.5 -25.5s-28.667 -10 -44 -10h-305c-14 0 -28 3.16699 -42 9.5s-26.5 14.666 -37.5 24.999
s-19.833 22 -26.5 35s-10 26.167 -10 39.5v490zM217.997 573.001v-438h222v438h-222z" />
    <glyph glyph-name="ohorn" unicode="&#x1a1;" horiz-adv-x="630" 
d="M517 320l-0.000976562 -216.999c0 -12 -3 -24.167 -9 -36.5s-14.167 -23.5 -24.5 -33.5s-22.5 -18 -36.5 -24s-29 -9 -45 -9h-241c-16 0 -30.667 3 -44 9s-25 13.833 -35 23.5s-17.667 20.667 -23 33s-8 24.833 -8 37.5v295c0 12.667 2.83301 25.167 8.5 37.5
s13.5 23.333 23.5 33s21.667 17.5 35 23.5s27.666 9 42.999 9h247c14.667 0 28.334 -2.5 41.001 -7.5s23.667 -11.833 33 -20.5s16.833 -18.334 22.5 -29.001s9.5 -22 11.5 -34h30v127h84v-132c0 -10 -2 -20.167 -6 -30.5s-9.66699 -19.5 -17 -27.5
s-16.666 -14.5 -27.999 -19.5s-24 -7.5 -38 -7.5h-24zM196.999 127.001h174v247h-174v-247z" />
    <glyph glyph-name="Uhorn" unicode="&#x1af;" horiz-adv-x="794" 
d="M470 135l-0.00195312 439.999h-67v133h265v-133h-41v-42h83v202h84v-208c0 -10 -2 -20 -6 -30s-9.66699 -19 -17 -27s-16.666 -14.5 -27.999 -19.5s-24 -7.5 -38 -7.5h-78v-327c0 -14 -2.83301 -28 -8.5 -42s-13.667 -26.5 -24 -37.5s-23.166 -19.833 -38.499 -26.5
s-32.333 -10 -51 -10h-291c-19.333 0 -36.5 3.33301 -51.5 10s-27.667 15.334 -38 26.001s-18.333 23 -24 37s-8.5 28.333 -8.5 43v459h-51v133h269v-133h-62v-440h222z" />
    <glyph glyph-name="uhorn" unicode="&#x1b0;" horiz-adv-x="673" 
d="M267 379l-44 0.00195312v-252h161v252h-47v122h196v-105h54v144h86v-149c0 -10 -2 -20.167 -6 -30.5s-9.83301 -19.5 -17.5 -27.5s-17.167 -14.5 -28.5 -19.5s-24 -7.5 -38 -7.5h-50v-184h50v-122h-199v71l-70 -71h-134c-17.333 0 -32.5 3 -45.5 9s-24 13.667 -33 23
s-15.833 20.166 -20.5 32.499s-7 25.166 -7 38.499v276h-48v122h241v-122z" />
    <glyph glyph-name="AEacute" unicode="&#x1fc;" horiz-adv-x="1030" 
d="M245 204l-25 -35.5l-25 -36.5h81v-132h-268v132h55l318 442h-58v134h659v-229h-126v95h-209v-140h226v-124h-226v-175h225v130h126v-265h-561v133h53v71h-245zM594 805l188 129l61 -111l-204 -92zM327 318h163v235z" />
    <glyph glyph-name="aeacute" unicode="&#x1fd;" horiz-adv-x="825" 
d="M475 0c-25.333 0 -47.5039 7.33203 -66.5039 21.999s-31.833 32.334 -38.5 53.001l-78 -75h-143c-16.667 -0 -31.5 2.83301 -44.5 8.5s-24.167 13.167 -33.5 22.5s-16.5 19.833 -21.5 31.5s-7.5 23.167 -7.5 34.5v96c0 12 2.33301 24.167 7 36.5
s11.334 23.166 20.001 32.499s19.5 17 32.5 23s28.167 9 45.5 9h209v78h-150v-38h-130v55c0 12.667 3 25.667 9 39s14.5 25.333 25.5 36s24 19.5 39 26.5s31.5 10.5 49.5 10.5h112c25.333 0 45.333 -3 60 -9s28 -17.667 40 -35c11.333 14.667 22.833 25.5 34.5 32.5
s25.167 10.5 40.5 10.5h164c22.667 0 41.834 -3.83301 57.501 -11.5s28.334 -17.167 38.001 -28.5s16.667 -24.166 21 -38.499s6.5 -27.833 6.5 -40.5v-91c0 -28 -6.5 -46.833 -19.5 -56.5s-30.167 -14.5 -51.5 -14.5h-205v-92h142v48h136v-72c0 -12 -3 -24.167 -9 -36.5
s-14.167 -23.5 -24.5 -33.5s-22.666 -18 -36.999 -24s-29.833 -9 -46.5 -9h-183zM189.996 122.999h166v96h-166v-96zM496.996 293.999h128v78h-128v-78zM375.996 582.999l108 201l107 -67l-135 -178z" />
    <glyph glyph-name="Oslashacute" unicode="&#x1fe;" horiz-adv-x="658" 
d="M61 599c0 13.333 3.3291 26.5 9.99609 39.5s15.334 24.667 26.001 35s22.834 18.666 36.501 24.999s27.834 9.5 42.501 9.5h305c7.33301 0 14.5 -1.16699 21.5 -3.5s14.167 -5.16602 21.5 -8.49902c5.33301 9.33301 11.166 18.5 17.499 27.5s12.166 18.167 17.499 27.5
l42 -29l-18.5 -28.5l-19.5 -28.5c10 -9.33301 18 -19.666 24 -30.999s9 -23 9 -35v-474c0 -18 -3.66699 -35.333 -11 -52c-7.33301 -19.333 -20.666 -36.333 -39.999 -51s-40.666 -22 -63.999 -22h-305c-16 0 -31.333 3.66699 -46 11l-48 -71l-41 28l24.5 37.5l25.5 37.5
c-9.33301 9.33301 -16.666 19.666 -21.999 30.999s-8 23 -8 35v490zM439.996 135v342l-223 -332v-10h223zM216.996 573v-338l223 333v5h-223zM269.996 830l188 129l61 -111l-204 -92z" />
    <glyph glyph-name="oslashacute" unicode="&#x1ff;" horiz-adv-x="568" 
d="M221 589l108 201l107 -67l-135 -178zM87 29c-11.333 10 -20.168 21.5 -26.501 34.5s-9.5 26.167 -9.5 39.5v295c0 12.667 2.83301 25.167 8.5 37.5s13.5 23.333 23.5 33s21.667 17.5 35 23.5s27.666 9 42.999 9h247c16.667 0 30.334 -2.66699 41.001 -8l41 55l38 -31
l-39 -52c8.66699 -9.33301 15.5 -20 20.5 -32s7.5 -23.667 7.5 -35v-295c0 -12 -3 -24.167 -9 -36.5s-14.167 -23.5 -24.5 -33.5s-22.5 -18 -36.5 -24s-29 -9 -45 -9h-241c-6 -0 -11.667 0.333008 -17 1s-10.666 2 -15.999 4l-50 -65l-37 31zM199.998 176l156 198h-156v-198
zM367.998 127v182l-146 -182h146z" />
    <glyph glyph-name="Scommaaccent" unicode="&#x218;" horiz-adv-x="613" 
d="M168 298c-14.667 0 -28.9971 2.83301 -42.9971 8.5s-26.5 13.5 -37.5 23.5s-19.833 21.667 -26.5 35s-10 27.333 -10 42v192c0 13.333 3.16699 26.5 9.5 39.5s14.666 24.667 24.999 35s22.666 18.666 36.999 24.999s29.5 9.5 45.5 9.5h165l70 -74v74h127v-196h-127v61
h-196v-140h238c16.667 0 32.167 -2.83301 46.5 -8.5s26.666 -13.5 36.999 -23.5s18.333 -21.667 24 -35s8.5 -27.333 8.5 -42v-214c0 -15.333 -3.33301 -29.666 -10 -42.999s-15.5 -25 -26.5 -35s-23.5 -17.833 -37.5 -23.5s-28 -8.5 -42 -8.5h-195l-71 73v-73h-126v196h126
v-61h225v163h-236zM280.003 -266v232h66c14.667 0 26 -2.33301 34 -7s14 -10.167 18 -16.5s6.5 -12.833 7.5 -19.5s1.5 -12 1.5 -16v-93l-79 -80h-48z" />
    <glyph glyph-name="scommaaccent" unicode="&#x219;" horiz-adv-x="531" 
d="M464 501l-0.000976562 -157.001h-132v41h-141v-70h192c16 0 30.333 -3 43 -9s23.5 -13.667 32.5 -23s15.833 -20 20.5 -32s7 -24.333 7 -37v-117c0 -12 -2.83301 -23.667 -8.5 -35s-13.167 -21.666 -22.5 -30.999s-20.166 -16.833 -32.499 -22.5s-25.5 -8.5 -39.5 -8.5
h-143l-63 64v-64h-133v156h133v-39h160v77h-187c-14 0 -27.667 3 -41 9s-25 13.833 -35 23.5s-18 20.667 -24 33s-9 24.833 -9 37.5v107c0 12 2.83301 23.833 8.5 35.5s13.5 22 23.5 31s21.5 16.333 34.5 22s26.833 8.5 41.5 8.5h124l59 -66v66h132zM222.999 -266.001v232
h66c14.667 0 26 -2.33301 34 -7s14 -10.167 18 -16.5s6.5 -12.833 7.5 -19.5s1.5 -12 1.5 -16v-93l-79 -80h-48z" />
    <glyph glyph-name="schwa" unicode="&#x259;" horiz-adv-x="545" 
d="M104 428l119.997 71.999h160c15.333 0 29.666 -3 42.999 -9s24.833 -13.833 34.5 -23.5s17.334 -20.667 23.001 -33s8.5 -24.833 8.5 -37.5v-270c0 -13.333 -2.16699 -27.333 -6.5 -42s-11.166 -28.334 -20.499 -41.001s-21.666 -23.167 -36.999 -31.5
s-34 -12.5 -56 -12.5h-211c-22 0 -40 3.16699 -54 9.5s-25.167 14.333 -33.5 24s-14.166 20.334 -17.499 32.001s-5 22.834 -5 33.501v111c0 28 6.33301 47.167 19 57.5s30 15.5 52 15.5h222v89h-242zM344.997 192.999h-146v-69h146v69z" />
    <glyph glyph-name="primemod" unicode="&#x2b9;" horiz-adv-x="270" 
d="M41 419l118 293l117 -50l-159 -277z" />
    <glyph glyph-name="circumflex" unicode="&#x2c6;" horiz-adv-x="580" 
d="M291 644l-142 -99l-51 56l174 167h43l171 -166l-50 -57z" />
    <glyph glyph-name="caron" unicode="&#x2c7;" horiz-adv-x="580" 
d="M436 774l50 -56l-171 -166h-43l-174 167l51 56l142 -99z" />
    <glyph glyph-name="breve" unicode="&#x2d8;" horiz-adv-x="580" 
d="M290 643c11.333 0 21.668 2.5 31.001 7.5s17.666 11.5 24.999 19.5s13.166 17.167 17.499 27.5s7.16602 20.833 8.49902 31.5h88c0 -20 -3.66699 -40.5 -11 -61.5s-18.166 -40 -32.499 -57s-32 -31 -53 -42s-45.5 -16.5 -73.5 -16.5s-52.667 5.5 -74 16.5
s-39.166 25 -53.499 42s-25.166 36 -32.499 57s-11 41.5 -11 61.5h88c1.33301 -10.667 4.16602 -21.167 8.49902 -31.5s10 -19.5 17 -27.5s15.333 -14.5 25 -19.5s20.5 -7.5 32.5 -7.5z" />
    <glyph glyph-name="dotaccent" unicode="&#x2d9;" horiz-adv-x="580" 
d="M210 644c0 23.333 8 43 24 59s35.667 24 59 24s43 -8 59 -24s24 -35.667 24 -59s-8 -43 -24 -59s-35.667 -24 -59 -24s-43 8 -59 24s-24 35.667 -24 59z" />
    <glyph glyph-name="ring" unicode="&#x2da;" horiz-adv-x="580" 
d="M297 549c-16.667 0 -32.1689 3.00195 -46.502 9.00195s-26.833 14.167 -37.5 24.5s-19 22.5 -25 36.5s-9 29 -9 45c0 15.333 3 30 9 44s14.333 26.167 25 36.5s23.167 18.666 37.5 24.999s29.833 9.5 46.5 9.5s32 -3 46 -9s26.333 -14.333 37 -25s19 -22.834 25 -36.501
s9 -28.5 9 -44.5s-3.16699 -31 -9.5 -45s-14.666 -26.167 -24.999 -36.5s-22.666 -18.5 -36.999 -24.5s-29.5 -9 -45.5 -9zM296.998 711.002c-13.333 0 -24.5 -4.5 -33.5 -13.5s-13.5 -20.167 -13.5 -33.5s4.5 -24.833 13.5 -34.5s20.167 -14.5 33.5 -14.5
c12.667 0 23.5 4.83301 32.5 14.5s13.5 21.167 13.5 34.5c0 12.667 -4.5 23.667 -13.5 33s-19.833 14 -32.5 14z" />
    <glyph glyph-name="ogonek" unicode="&#x2db;" horiz-adv-x="578" 
d="M428 26v-131.999h110v-94h-125c-23.333 0 -43.5 7.16699 -60.5 21.5s-25.5 37.166 -25.5 68.499v60l62 76h39z" />
    <glyph glyph-name="tilde" unicode="&#x2dc;" horiz-adv-x="580" 
d="M364 565c-14.667 0 -28.001 1.8291 -40.001 5.49609s-23.5 7.83398 -34.5 12.501s-21.667 8.83398 -32 12.501s-20.833 5.5 -31.5 5.5c-13.333 0 -24.833 -4.33301 -34.5 -13s-18.834 -17.667 -27.501 -27l-12.5 8l-20 13l-20 13l-12.5 8
c2.66699 6.66699 7.33398 15.667 14.001 27s15 22.333 25 33s22 20 36 28s30 12 48 12c14.667 0 28 -2.16699 40 -6.5s23.333 -9 34 -14l30.5 -14c9.66699 -4.33301 19.5 -6.5 29.5 -6.5c13.333 0 25 4 35 12s20 17 30 27l65 -46c-4 -8 -9.33301 -17.167 -16 -27.5
s-15.167 -20.166 -25.5 -29.499s-22.166 -17.166 -35.499 -23.499s-28.333 -9.5 -45 -9.5z" />
    <glyph glyph-name="hungarumlaut" unicode="&#x2dd;" horiz-adv-x="580" 
d="M145 589l108 202l108 -67l-136 -178zM309 580l108 201l108 -67l-136 -179z" />
    <glyph glyph-name="tonos" unicode="&#x384;" horiz-adv-x="580" 
d="M246 583l108 201l107 -67l-136 -178z" />
    <glyph glyph-name="dieresistonos" unicode="&#x385;" horiz-adv-x="580" 
d="M70 634c0 20 7.16699 37 21.5 51s31.5 21 51.5 21c20.667 0 38 -7 52 -21s21 -31 21 -51c0 -20.667 -7 -38.334 -21 -53.001s-31.333 -22 -52 -22c-20 0 -37.167 7.33301 -51.5 22s-21.5 32.334 -21.5 53.001zM374 634c0 20 7.33301 37 22 51s32 21 52 21
s37.167 -7 51.5 -21s21.5 -31 21.5 -51c0 -20.667 -7.16699 -38.334 -21.5 -53.001s-31.5 -22 -51.5 -22s-37.333 7.33301 -52 22s-22 32.334 -22 53.001zM221 566l58 214l116 -39l-89 -199z" />
    <glyph glyph-name="Alphatonos" unicode="&#x386;" horiz-adv-x="711" 
d="M458 203h-237l-24 -71h73v-132h-256v132h46l210 582h173l203 -582h47v-132h-290v132h78zM339 562l-80 -245h160l-75 245h-5zM-52 553l108 201l107 -67l-136 -178z" />
    <glyph glyph-name="anoteleia" unicode="&#x387;" horiz-adv-x="292" 
d="M61 364c0 12 2.16699 23.167 6.5 33.5s10.333 19.333 18 27s16.667 13.834 27 18.501s21.5 7 33.5 7s23.167 -2.33301 33.5 -7s19.333 -10.834 27 -18.501s13.667 -16.667 18 -27s6.5 -21.5 6.5 -33.5c0 -23.333 -8.33301 -43.333 -25 -60s-36.667 -25 -60 -25
s-43.333 8.33301 -60 25s-25 36.667 -25 60z" />
    <glyph glyph-name="Epsilontonos" unicode="&#x388;" horiz-adv-x="636" 
d="M-218 553l108 201l107 -67l-136 -178zM41 134h53v441h-54v133h546v-229h-135v96h-200v-140h221v-125h-221v-175h215v131h136v-266h-561v134z" />
    <glyph glyph-name="Etatonos" unicode="&#x389;" horiz-adv-x="754" 
d="M312 132v-132h-270v132h57v444h-58v132h271v-132h-55v-150h237v150h-60v132h278v-132h-62v-444h62v-132h-278v132h60v171h-237v-171h55zM-211 553l108 201l107 -67l-136 -178z" />
    <glyph glyph-name="Iotatonos" unicode="&#x38a;" horiz-adv-x="431" 
d="M293 132h66v-132h-287v132h64v444h-65v132h288v-132h-66v-444zM-179 553l108 201l107 -67l-136 -178z" />
    <glyph glyph-name="Omicrontonos" unicode="&#x38c;" horiz-adv-x="658" 
d="M61 599c0 13.333 3.33105 26.501 9.99805 39.501s15.334 24.667 26.001 35s23 18.666 37 24.999s28.333 9.5 43 9.5h305c14.667 0 29 -3.16699 43 -9.5s26.333 -14.666 37 -24.999s19.167 -22 25.5 -35s9.5 -26.167 9.5 -39.5v-490c0 -12.667 -3.16699 -25.5 -9.5 -38.5
s-14.666 -24.667 -24.999 -35s-22.5 -18.833 -36.5 -25.5s-28.667 -10 -44 -10h-305c-14 0 -28 3.16699 -42 9.5s-26.5 14.666 -37.5 24.999s-19.833 22 -26.5 35s-10 26.167 -10 39.5v490zM217.998 573.001v-438h222v438h-222zM-171.002 553.001l108 201l107 -67l-136 -178
z" />
    <glyph glyph-name="Upsilontonos" unicode="&#x38e;" horiz-adv-x="660" 
d="M21 576v133h272v-133h-68l126 -200l119 200h-74v133h253v-133h-42l-183 -301v-143h65v-132h-286v132h64v127l-206 317h-40zM-227 550l108 201l107 -67l-136 -178z" />
    <glyph glyph-name="Omegatonos" unicode="&#x38f;" horiz-adv-x="710" 
d="M415 252h70.001v321h-266v-321h74l33 -36v-216h-263v125h130v38h-65c-21.333 0 -37.833 6.33301 -49.5 19s-17.5 30 -17.5 52v365c0 13.333 3.16699 26.5 9.5 39.5s14.833 24.667 25.5 35s23 18.666 37 24.999s28.667 9.5 44 9.5h350c16 0 31 -3.16699 45 -9.5
s26.167 -14.666 36.5 -24.999s18.5 -22 24.5 -35s9 -26.167 9 -39.5v-364c0 -7.33301 -1.33301 -15.333 -4 -24s-6.83398 -16.5 -12.501 -23.5s-13.167 -12.833 -22.5 -17.5s-20.333 -7 -33 -7h-58v-38h136v-125h-265v216zM-170.999 550l108 201l107 -67l-136 -178z" />
    <glyph glyph-name="iotadieresistonos" unicode="&#x390;" horiz-adv-x="345" 
d="M244 122h51v-122h-247v122h47v257h-47v122h196v-379zM-67 634c0 20 7.16699 37 21.5 51s31.5 21 51.5 21c20.667 0 38 -7 52 -21s21 -31 21 -51c0 -20.667 -7 -38.334 -21 -53.001s-31.333 -22 -52 -22c-20 0 -37.167 7.33301 -51.5 22s-21.5 32.334 -21.5 53.001z
M237 634c0 20 7.33301 37 22 51s32 21 52 21s37.167 -7 51.5 -21s21.5 -31 21.5 -51c0 -20.667 -7.16699 -38.334 -21.5 -53.001s-31.5 -22 -51.5 -22s-37.333 7.33301 -52 22s-22 32.334 -22 53.001zM84 566l58 214l116 -39l-89 -199z" />
    <glyph glyph-name="Alpha" unicode="&#x391;" horiz-adv-x="711" 
d="M458 203h-237l-24 -71h73v-132h-256v132h46l210 582h173l203 -582h47v-132h-290v132h78zM339 562l-80 -245h160l-75 245h-5z" />
    <glyph glyph-name="Beta" unicode="&#x392;" horiz-adv-x="669" 
d="M40 0l-0.000976562 132.002h54v444h-54v132h442c18 0 34.167 -3.33301 48.5 -10s26.5 -15.167 36.5 -25.5s17.5 -22 22.5 -35s7.5 -25.833 7.5 -38.5v-118c0 -22 -4.5 -40.833 -13.5 -56.5s-24.167 -27.167 -45.5 -34.5c26.667 -6.66699 45.334 -19.834 56.001 -39.501
s16 -39.5 16 -59.5v-182c0 -13.333 -2.83301 -26.333 -8.5 -39s-13.5 -24.334 -23.5 -35.001s-22 -19.167 -36 -25.5s-29.333 -9.5 -46 -9.5h-456zM250.999 135.002h198v184h-198v-184zM250.999 442.002h187v131h-187v-131z" />
    <glyph glyph-name="Gamma" unicode="&#x393;" horiz-adv-x="604" 
d="M330 0h-288v132h52v443h-53v133h546v-237h-136v104h-200v-443h79v-132z" />
    <glyph glyph-name="Delta" unicode="&#x394;" horiz-adv-x="705" 
d="M24 0v127l250 585h171l234 -585v-127h-655zM347 561h-5l-87 -213l-86 -214h340z" />
    <glyph glyph-name="Epsilon" unicode="&#x395;" horiz-adv-x="636" 
d="M41 134h53v441h-54v133h546v-229h-135v96h-200v-140h221v-125h-221v-175h215v131h136v-266h-561v134z" />
    <glyph glyph-name="Zeta" unicode="&#x396;" horiz-adv-x="584" 
d="M206 133h230v83h126v-216h-541v133l338 442h-184v-66h-127v199h499v-129z" />
    <glyph glyph-name="Eta" unicode="&#x397;" horiz-adv-x="754" 
d="M312 132v-132h-270v132h57v444h-58v132h271v-132h-55v-150h237v150h-60v132h278v-132h-62v-444h62v-132h-278v132h60v171h-237v-171h55z" />
    <glyph glyph-name="Theta" unicode="&#x398;" horiz-adv-x="658" 
d="M61 599c0 13.333 3.33105 26.501 9.99805 39.501s15.334 24.667 26.001 35s23 18.666 37 24.999s28.333 9.5 43 9.5h305c14.667 0 29 -3.16699 43 -9.5s26.333 -14.666 37 -24.999s19.167 -22 25.5 -35s9.5 -26.167 9.5 -39.5v-490c0 -12.667 -3.16699 -25.5 -9.5 -38.5
s-14.666 -24.667 -24.999 -35s-22.5 -18.833 -36.5 -25.5s-28.667 -10 -44 -10h-305c-14 0 -28 3.16699 -42 9.5s-26.5 14.666 -37.5 24.999s-19.833 22 -26.5 35s-10 26.167 -10 39.5v490zM439.998 573.001h-222v-438h222v438zM408.998 301.001h-159v127h159v-127z" />
    <glyph glyph-name="Iota" unicode="&#x399;" horiz-adv-x="431" 
d="M293 132h66v-132h-287v132h64v444h-65v132h288v-132h-66v-444z" />
    <glyph glyph-name="Kappa" unicode="&#x39a;" horiz-adv-x="689" 
d="M384 708h271v-134h-66l-129 -130l161 -311h51v-133h-269v133h47l-102 200l-105 -105v-96h48v-132h-255v132h49v442h-50v134h255v-134h-47v-197l193 197h-52v134z" />
    <glyph glyph-name="Lambda" unicode="&#x39b;" horiz-adv-x="711" 
d="M344 560h-5l-142 -428h76v-132h-259v132h46l210 580h173l203 -580h47v-132h-287v132h75z" />
    <glyph glyph-name="Mu" unicode="&#x39c;" horiz-adv-x="944" 
d="M481 226l161 482h261v-132h-53v-444h53v-132h-257v132h53v337h-5l-157 -469h-135l-175 472h-4v-340h53v-132h-235v132h53v444h-53v132h259l177 -482h4z" />
    <glyph glyph-name="Nu" unicode="&#x39d;" horiz-adv-x="772" 
d="M539 263v313h-53v132h244v-132h-58v-579h-149l-295 467h-5v-332h53v-132h-234v132h53v444h-54v132h211l282 -445h5z" />
    <glyph glyph-name="Xi" unicode="&#x39e;" horiz-adv-x="677" 
d="M51 0v251h122v-118h89v181h-91v121h91v140h-79v-78h-123v211h558v-211h-123v78h-81v-140h92v-121h-92v-181h90v118h123v-251h-576z" />
    <glyph glyph-name="Omicron" unicode="&#x39f;" horiz-adv-x="658" 
d="M61 599c0 13.333 3.33105 26.501 9.99805 39.501s15.334 24.667 26.001 35s23 18.666 37 24.999s28.333 9.5 43 9.5h305c14.667 0 29 -3.16699 43 -9.5s26.333 -14.666 37 -24.999s19.167 -22 25.5 -35s9.5 -26.167 9.5 -39.5v-490c0 -12.667 -3.16699 -25.5 -9.5 -38.5
s-14.666 -24.667 -24.999 -35s-22.5 -18.833 -36.5 -25.5s-28.667 -10 -44 -10h-305c-14 0 -28 3.16699 -42 9.5s-26.5 14.666 -37.5 24.999s-19.833 22 -26.5 35s-10 26.167 -10 39.5v490zM217.998 573.001v-438h222v438h-222z" />
    <glyph glyph-name="Pi" unicode="&#x3a0;" horiz-adv-x="748" 
d="M312 132v-132h-270v132h57v443h-58v133h665v-133h-62v-443h61v-132h-278v132h60v441h-230v-441h55z" />
    <glyph glyph-name="Rho" unicode="&#x3a1;" horiz-adv-x="631" 
d="M95 576l-54.001 -0.000976562v132h454c17.333 0 33 -3.16699 47 -9.5s26 -14.666 36 -24.999s17.833 -22 23.5 -35s8.5 -26.167 8.5 -39.5v-216c0 -13.333 -2.66699 -26.833 -8 -40.5s-13 -26 -23 -37s-22.167 -20.167 -36.5 -27.5s-30.166 -11 -47.499 -11h-242v-135h62
v-132h-274v132h54v444zM252.999 572.999v-171h198v171h-198z" />
    <glyph glyph-name="Sigma" unicode="&#x3a3;" horiz-adv-x="587" 
d="M376 382l-169 -247h229v80h125v-215h-540v133l170 248l-161 197v129h508v-199h-126v65h-196z" />
    <glyph glyph-name="Tau" unicode="&#x3a4;" horiz-adv-x="665" 
d="M516 575h-105v-442h85v-133h-320v133h77v442h-105v-92h-137v225h642v-225h-137v92z" />
    <glyph glyph-name="Upsilon" unicode="&#x3a5;" horiz-adv-x="660" 
d="M21 576v133h272v-133h-68l126 -200l119 200h-74v133h253v-133h-42l-183 -301v-143h65v-132h-286v132h64v127l-206 317h-40z" />
    <glyph glyph-name="Phi" unicode="&#x3a6;" horiz-adv-x="895" 
d="M303 133h64.002v76h-194c-14.667 0 -28.834 3.33301 -42.501 10s-25.834 15.167 -36.501 25.5s-19.167 22.166 -25.5 35.499s-9.5 26.666 -9.5 39.999v277c0 13.333 2.83301 26.666 8.5 39.999s13.667 25.166 24 35.499s22.333 18.833 36 25.5s28.5 10 44.5 10h553
c16.667 0 32 -3.33301 46 -10s25.833 -15.167 35.5 -25.5s17.167 -22.166 22.5 -35.499s8 -26.666 8 -39.999v-276c0 -15.333 -3 -29.666 -9 -42.999s-14 -25.166 -24 -35.499s-21.833 -18.5 -35.5 -24.5s-28.167 -9 -43.5 -9h-200v-76h65v-133h-287v133zM525.002 573v-229
h155v229h-155zM215.002 344h152v229h-152v-229z" />
    <glyph glyph-name="Chi" unicode="&#x3a7;" horiz-adv-x="702" 
d="M389 444l90 132h-51v132h243v-132h-52l-157 -228l163 -216h55v-132h-300v132h48l-105 144l-97 -144h52v-132h-257v132h61l166 243l-148 201h-53v132h293v-132h-49z" />
    <glyph glyph-name="Psi" unicode="&#x3a8;" horiz-adv-x="925" 
d="M538 352l148.999 -0.000976562v356h211v-133h-54v-240c0 -14 -2.83301 -28 -8.5 -42s-13.667 -26.5 -24 -37.5s-23.166 -19.833 -38.499 -26.5s-32.333 -10 -51 -10h-184v-87h65v-132h-287v132h64v87h-182c-18.667 0 -35.5 3.33301 -50.5 10s-27.667 15.334 -38 26.001
s-18.333 23 -24 37s-8.5 28.333 -8.5 43l1 240h-51v133h206v-356h147v223h-64v133h287v-133h-65v-223z" />
    <glyph glyph-name="Omega" unicode="&#x3a9;" horiz-adv-x="710" 
d="M415 252h70.001v321h-266v-321h74l33 -36v-216h-263v125h130v38h-65c-21.333 0 -37.833 6.33301 -49.5 19s-17.5 30 -17.5 52v365c0 13.333 3.16699 26.5 9.5 39.5s14.833 24.667 25.5 35s23 18.666 37 24.999s28.667 9.5 44 9.5h350c16 0 31 -3.16699 45 -9.5
s26.167 -14.666 36.5 -24.999s18.5 -22 24.5 -35s9 -26.167 9 -39.5v-364c0 -7.33301 -1.33301 -15.333 -4 -24s-6.83398 -16.5 -12.501 -23.5s-13.167 -12.833 -22.5 -17.5s-20.333 -7 -33 -7h-58v-38h136v-125h-265v216z" />
    <glyph glyph-name="Iotadieresis" unicode="&#x3aa;" horiz-adv-x="431" 
d="M293 132h66v-132h-287v132h64v444h-65v132h288v-132h-66v-444zM30 813c0 21.333 7.83301 39.6699 23.5 55.0029s34.167 23 55.5 23c10.667 0 20.667 -2 30 -6s17.5 -9.5 24.5 -16.5s12.667 -15.333 17 -25s6.5 -19.834 6.5 -30.501s-2.16699 -20.834 -6.5 -30.501
s-10 -18 -17 -25s-15.167 -12.5 -24.5 -16.5s-19.333 -6 -30 -6c-21.333 0 -39.833 7.66699 -55.5 23s-23.5 33.666 -23.5 54.999zM251 813.004c0 21.333 7.83301 39.6699 23.5 55.0029s34.167 23 55.5 23c10.667 0 20.667 -2 30 -6s17.5 -9.5 24.5 -16.5
s12.5 -15.333 16.5 -25s6 -19.834 6 -30.501s-2 -20.834 -6 -30.501s-9.5 -18 -16.5 -25s-15.167 -12.5 -24.5 -16.5s-19.333 -6 -30 -6c-21.333 0 -39.833 7.66699 -55.5 23s-23.5 33.666 -23.5 54.999z" />
    <glyph glyph-name="Upsilondieresis" unicode="&#x3ab;" horiz-adv-x="660" 
d="M21 576v133h272v-133h-68l126 -200l119 200h-74v133h253v-133h-42l-183 -301v-143h65v-132h-286v132h64v127l-206 317h-40zM161 813c0 21.333 7.83301 39.6699 23.5 55.0029s34.167 23 55.5 23c10.667 0 20.667 -2 30 -6s17.5 -9.5 24.5 -16.5s12.667 -15.333 17 -25
s6.5 -19.834 6.5 -30.501s-2.16699 -20.834 -6.5 -30.501s-10 -18 -17 -25s-15.167 -12.5 -24.5 -16.5s-19.333 -6 -30 -6c-21.333 0 -39.833 7.66699 -55.5 23s-23.5 33.666 -23.5 54.999zM382 813.004c0 21.333 7.83301 39.6699 23.5 55.0029s34.167 23 55.5 23
c10.667 0 20.667 -2 30 -6s17.5 -9.5 24.5 -16.5s12.5 -15.333 16.5 -25s6 -19.834 6 -30.501s-2 -20.834 -6 -30.501s-9.5 -18 -16.5 -25s-15.167 -12.5 -24.5 -16.5s-19.333 -6 -30 -6c-21.333 0 -39.833 7.66699 -55.5 23s-23.5 33.666 -23.5 54.999z" />
    <glyph glyph-name="alphatonos" unicode="&#x3ac;" horiz-adv-x="598" 
d="M361 72l-70.002 -72h-130c-17.333 0 -32.666 3 -45.999 9s-24.833 13.833 -34.5 23.5s-17 20.667 -22 33s-7.5 24.833 -7.5 37.5v294c0 12 2.66699 24.167 8 36.5s12.833 23.333 22.5 33s21.334 17.667 35.001 24s28.5 9.5 44.5 9.5h130l70 -71v71h149v-378h43v-122h-192
v72zM199.998 129h161v245h-161v-245zM230.998 583l108 201l107 -67l-136 -178z" />
    <glyph glyph-name="epsilontonos" unicode="&#x3ad;" horiz-adv-x="506" 
d="M161 0c-19.333 0 -35.8359 3.5 -49.5029 10.5s-25 15.667 -34 26s-15.667 21.5 -20 33.5s-6.5 23 -6.5 33v84c0 6.66699 1 13.834 3 21.501s5.16699 15 9.5 22s10.5 13.333 18.5 19s18 10.167 30 13.5c-22 7.33301 -37 18.166 -45 32.499s-12 27.5 -12 39.5v68
c0 12 2.66699 23.833 8 35.5s12.833 22.167 22.5 31.5s20.834 16.833 33.501 22.5s26.667 8.5 42 8.5h91l68 -71v71h132v-167h-132v44c-20 0 -40 -0.166992 -60 -0.5s-40 -0.5 -60 -0.5v-67h123v-97h-124v-88h130v56h138v-78c0 -12.667 -2.33301 -25.167 -7 -37.5
s-11.667 -23.333 -21 -33s-20.666 -17.5 -33.999 -23.5s-28.666 -9 -45.999 -9h-198zM186.997 583l108 201l107 -67l-136 -178z" />
    <glyph glyph-name="etatonos" unicode="&#x3ae;" horiz-adv-x="621" 
d="M349 122h39.999v250h-161v-250h47v-122h-244v122h49v257h-49v121l197 1v-72l70 72h131c16.667 0 31.834 -3 45.501 -9s25.167 -13.833 34.5 -23.5s16.5 -20.667 21.5 -33s7.5 -24.833 7.5 -37.5v-276h51v-122h-240v122zM220.999 583l108 201l107 -67l-136 -178z" />
    <glyph glyph-name="iotatonos" unicode="&#x3af;" horiz-adv-x="345" 
d="M244 122h51v-122h-247v122h47v257h-47v122h196v-379zM100 583l108 201l107 -67l-136 -178z" />
    <glyph glyph-name="upsilondieresistonos" unicode="&#x3b0;" horiz-adv-x="614" 
d="M540 103c0 -12.667 -3 -25.167 -9 -37.5s-14.167 -23.333 -24.5 -33s-22.333 -17.5 -36 -23.5s-28.5 -9 -44.5 -9h-239c-16 0 -30.667 3 -44 9s-24.833 13.833 -34.5 23.5s-17.167 20.667 -22.5 33s-8 24.833 -8 37.5v275h-48v122h240v-122h-44v-251h165v251h-48v122h241
v-122h-44v-275zM93 634c0 20 7.16699 37 21.5 51s31.5 21 51.5 21c20.667 0 38 -7 52 -21s21 -31 21 -51c0 -20.667 -7 -38.334 -21 -53.001s-31.333 -22 -52 -22c-20 0 -37.167 7.33301 -51.5 22s-21.5 32.334 -21.5 53.001zM397 634c0 20 7.33301 37 22 51s32 21 52 21
s37.167 -7 51.5 -21s21.5 -31 21.5 -51c0 -20.667 -7.16699 -38.334 -21.5 -53.001s-31.5 -22 -51.5 -22s-37.333 7.33301 -52 22s-22 32.334 -22 53.001zM244 566l58 214l116 -39l-89 -199z" />
    <glyph glyph-name="alpha" unicode="&#x3b1;" horiz-adv-x="598" 
d="M361 72l-70.002 -72h-130c-17.333 0 -32.666 3 -45.999 9s-24.833 13.833 -34.5 23.5s-17 20.667 -22 33s-7.5 24.833 -7.5 37.5v294c0 12 2.66699 24.167 8 36.5s12.833 23.333 22.5 33s21.334 17.667 35.001 24s28.5 9.5 44.5 9.5h130l70 -71v71h149v-378h43v-122h-192
v72zM199.998 129h161v245h-161v-245z" />
    <glyph glyph-name="beta" unicode="&#x3b2;" horiz-adv-x="561" 
d="M51 620c0 14 2.5 27.501 7.5 40.501s12.333 24.5 22 34.5s21.167 18.167 34.5 24.5s28.666 9.5 45.999 9.5h192c24.667 0 45.334 -4.16699 62.001 -12.5s30 -18.666 40 -30.999s17.167 -26 21.5 -41s6.5 -29.167 6.5 -42.5v-98c0 -16.667 -2.83301 -34 -8.5 -52
s-18.834 -31.667 -39.501 -41c16.667 -4 29.834 -10.333 39.501 -19s17 -18.5 22 -29.5s8.16699 -22.833 9.5 -35.5s2 -25.334 2 -38.001v-185c0 -12.667 -2.33301 -25.167 -7 -37.5s-11.5 -23.5 -20.5 -33.5s-20.333 -18 -34 -24s-29.167 -9 -46.5 -9h-131l-34.5 35.5
c-11.667 12.333 -23.5 24.166 -35.5 35.499v-126h49v-122h-197v797zM243 462.001h92v138h-136v-472h162v216h-118v118z" />
    <glyph glyph-name="gamma" unicode="&#x3b3;" horiz-adv-x="582" 
d="M317 169l92 209h-56v123h216v-123h-34l-165 -351v-83h43v-122h-239v123h48v85l-177 348h-35v123h262v-123h-60l99 -209h6z" />
    <glyph glyph-name="delta" unicode="&#x3b4;" horiz-adv-x="568" 
d="M199 127h169v216h-169v-216zM516 103c0 -12.667 -3 -25.167 -9 -37.5s-14.333 -23.333 -25 -33s-22.834 -17.5 -36.501 -23.5s-28.5 -9 -44.5 -9h-241c-16 0 -30.667 3 -44 9s-24.833 13.833 -34.5 23.5s-17.167 20.667 -22.5 33s-8 24.833 -8 37.5v238
c0 12 2.16699 23.833 6.5 35.5s10.833 22.5 19.5 32.5s19.5 18.5 32.5 25.5s28.167 11.833 45.5 14.5l-33 18c-11.333 6 -20.333 12.5 -27 19.5s-11.5 14 -14.5 21s-4.83301 14.167 -5.5 21.5s-1 14.666 -1 21.999v63c0 14.667 1.83301 28.834 5.5 42.501
s10.334 26 20.001 37s22.5 19.833 38.5 26.5s36.333 10 61 10h262v-127h-243v-44l234 -101c20 -8.66699 35.833 -21.5 47.5 -38.5s17.5 -40.833 17.5 -71.5z" />
    <glyph glyph-name="epsilon" unicode="&#x3b5;" horiz-adv-x="506" 
d="M161 0c-19.333 0 -35.8359 3.5 -49.5029 10.5s-25 15.667 -34 26s-15.667 21.5 -20 33.5s-6.5 23 -6.5 33v84c0 6.66699 1 13.834 3 21.501s5.16699 15 9.5 22s10.5 13.333 18.5 19s18 10.167 30 13.5c-22 7.33301 -37 18.166 -45 32.499s-12 27.5 -12 39.5v68
c0 12 2.66699 23.833 8 35.5s12.833 22.167 22.5 31.5s20.834 16.833 33.501 22.5s26.667 8.5 42 8.5h91l68 -71v71h132v-167h-132v44c-20 0 -40 -0.166992 -60 -0.5s-40 -0.5 -60 -0.5v-67h123v-97h-124v-88h130v56h138v-78c0 -12.667 -2.33301 -25.167 -7 -37.5
s-11.667 -23.333 -21 -33s-20.666 -17.5 -33.999 -23.5s-28.666 -9 -45.999 -9h-198v0z" />
    <glyph glyph-name="zeta" unicode="&#x3b6;" horiz-adv-x="519" 
d="M207 127h142v61h132v-188h-450v127l262 248h-116v-46h-132v172h427v-122z" />
    <glyph glyph-name="eta" unicode="&#x3b7;" horiz-adv-x="621" 
d="M349 122h39.999v250h-161v-250h47v-122h-244v122h49v257h-49v121l197 1v-72l70 72h131c16.667 0 31.834 -3 45.501 -9s25.167 -13.833 34.5 -23.5s16.5 -20.667 21.5 -33s7.5 -24.833 7.5 -37.5v-276h51v-122h-240v122z" />
    <glyph glyph-name="theta" unicode="&#x3b8;" horiz-adv-x="568" 
d="M517 103c0 -12 -2.99707 -24.167 -8.99707 -36.5s-14.167 -23.5 -24.5 -33.5s-22.5 -18 -36.5 -24s-29 -9 -45 -9h-241c-16 0 -30.667 3 -44 9s-25 13.833 -35 23.5s-17.667 20.667 -23 33s-8 24.833 -8 37.5v524c0 12.667 2.83301 25.167 8.5 37.5s13.5 23.333 23.5 33
s21.667 17.5 35 23.5s27.666 9 42.999 9h247c16.667 0 31.667 -3 45 -9s24.666 -13.833 33.999 -23.5s16.666 -20.667 21.999 -33s8 -24.833 8 -37.5v-524zM368.003 127v196h-168v-196h168zM200.003 444h168v159h-168v-159z" />
    <glyph glyph-name="iota" unicode="&#x3b9;" horiz-adv-x="345" 
d="M244 122h51v-122h-247v122h47v257h-47v122h196v-379z" />
    <glyph glyph-name="kappa" unicode="&#x3ba;" horiz-adv-x="593" 
d="M303 501h246v-119h-59l-64 -56l104 -204h35v-122h-229v122h40l-59 109l-88 -77v-32h40v-122h-234v122h46v257h-51v122h199v-216l112 97h-38v119z" />
    <glyph glyph-name="lambda" unicode="&#x3bb;" horiz-adv-x="618" 
d="M393 399l0.000976562 178.998l-219 35l24 131l244 -37c20.667 -3.33301 37.5 -8.5 50.5 -15.5s23.167 -15.667 30.5 -26s12.166 -22 14.499 -35s3.5 -26.833 3.5 -41.5v-466h48v-123h-243v123h47v218h-161v-218h40v-123h-241v123h52v244c0 12.667 2.5 25.334 7.5 38.001
s12.167 23.834 21.5 33.501s20.833 17.5 34.5 23.5s29.167 9 46.5 9h130z" />
    <glyph glyph-name="nu" unicode="&#x3bd;" horiz-adv-x="590" 
d="M321 127l94 251h-59v123h221v-123h-35l-153 -384h-177l-164 384h-35v123h262v-123h-59l99 -251h6z" />
    <glyph glyph-name="xi" unicode="&#x3be;" horiz-adv-x="560" 
d="M186 317l246.003 -0.00195312c15.333 0 29 -2.66699 41 -8s22 -12.5 30 -21.5s14.167 -19.167 18.5 -30.5s6.5 -23.333 6.5 -36v-126c0 -11.333 -2.5 -22.666 -7.5 -33.999s-11.833 -21.5 -20.5 -30.5s-19.334 -16.333 -32.001 -22s-26.334 -8.5 -41.001 -8.5h-134
l-62 65v-65h-133v156h133v-39h151v74h-234c-19.333 0 -35.833 3.5 -49.5 10.5s-25 15.667 -34 26s-15.667 21.666 -20 33.999s-6.5 23.5 -6.5 33.5v84c0 6.66699 1 13.834 3 21.501s5.16699 15 9.5 22s10.333 13.333 18 19s17.5 10.167 29.5 13.5
c-21.333 7.33301 -36 18.166 -44 32.499s-12 27.5 -12 39.5v92c0 12 2.66699 23.833 8 35.5s12.666 22.334 21.999 32.001s20.5 17.334 33.5 23.001s27.167 8.5 42.5 8.5h152l68 -72v72h132v-166h-132v38h-180v-85h188v-107h-190v-81z" />
    <glyph glyph-name="omicron" unicode="&#x3bf;" horiz-adv-x="568" 
d="M517 103c0 -12 -2.99707 -24.167 -8.99707 -36.5s-14.167 -23.5 -24.5 -33.5s-22.5 -18 -36.5 -24s-29 -9 -45 -9h-241c-16 0 -30.667 3 -44 9s-25 13.833 -35 23.5s-17.667 20.667 -23 33s-8 24.833 -8 37.5v295c0 12.667 2.83301 25.167 8.5 37.5s13.5 23.333 23.5 33
s21.667 17.5 35 23.5s27.666 9 42.999 9h247c16.667 0 31.667 -3 45 -9s24.666 -13.833 33.999 -23.5s16.666 -20.667 21.999 -33s8 -24.833 8 -37.5v-295zM200.003 127h168v247h-168v-247z" />
    <glyph glyph-name="pi" unicode="&#x3c0;" horiz-adv-x="621" 
d="M347 122h42v250h-161v-250h47v-122h-244v122h49v257h-49v122h553v-122h-47l1 -257h50v-122h-241v122z" />
    <glyph glyph-name="rho" unicode="&#x3c1;" horiz-adv-x="562" 
d="M246 -178l-195 -0.000976562v564c0 12.667 1.83301 25.834 5.5 39.501s10 26 19 37s21 20 36 27s33.5 10.5 55.5 10.5h235c16 0 30.667 -3.16699 44 -9.5s24.833 -14.333 34.5 -24s17.167 -20.667 22.5 -33s8 -24.5 8 -36.5v-294c0 -12.667 -2.5 -25.167 -7.5 -37.5
s-12.333 -23.333 -22 -33s-21.167 -17.5 -34.5 -23.5s-28.333 -9 -45 -9h-131l-70 72v-127h45v-123zM362 373.999h-161v-245h161v245z" />
    <glyph glyph-name="sigma1" unicode="&#x3c2;" horiz-adv-x="531" 
d="M464 501l-0.000976562 -157.001h-132v41h-141v-70h192c16 0 30.333 -3 43 -9s23.5 -13.667 32.5 -23s15.833 -20 20.5 -32s7 -24.333 7 -37v-117c0 -12 -2.83301 -23.667 -8.5 -35s-13.167 -21.666 -22.5 -30.999s-20.166 -16.833 -32.499 -22.5s-25.5 -8.5 -39.5 -8.5
h-143l-63 64v-64h-133v156h133v-39h160v77h-187c-14 0 -27.667 3 -41 9s-25 13.833 -35 23.5s-18 20.667 -24 33s-9 24.833 -9 37.5v107c0 12 2.83301 23.833 8.5 35.5s13.5 22 23.5 31s21.5 16.333 34.5 22s26.833 8.5 41.5 8.5h124l59 -66v66h132z" />
    <glyph glyph-name="sigma" unicode="&#x3c3;" horiz-adv-x="589" 
d="M542 501l0.000976562 -125h-97l72 -71v-202c0 -12.667 -3 -25.167 -9 -37.5s-14.167 -23.333 -24.5 -33s-22.5 -17.5 -36.5 -23.5s-29 -9 -45 -9h-241c-16 0 -30.667 3 -44 9s-25 13.833 -35 23.5s-17.667 20.667 -23 33s-8 24.833 -8 37.5v295
c0 12.667 2.83301 25.167 8.5 37.5s13.5 23.333 23.5 33s21.667 17.5 35 23.5s27.666 9 42.999 9h381zM200.001 127h168v247h-168v-247z" />
    <glyph glyph-name="tau" unicode="&#x3c4;" horiz-adv-x="463" 
d="M225 0c-23.333 0 -42.832 3.66504 -58.499 10.998s-28.334 16.833 -38.001 28.5s-16.667 25 -21 40s-6.5 30.167 -6.5 45.5v253h-95v121h388v-121h-144v-255h104v64h90v-90c0 -11.333 -2.66699 -22.666 -8 -33.999s-12.833 -21.666 -22.5 -30.999s-21.167 -17 -34.5 -23
s-28 -9 -44 -9h-110z" />
    <glyph glyph-name="upsilon" unicode="&#x3c5;" horiz-adv-x="614" 
d="M540 103c0 -12.667 -3 -25.167 -9 -37.5s-14.167 -23.333 -24.5 -33s-22.333 -17.5 -36 -23.5s-28.5 -9 -44.5 -9h-239c-16 0 -30.667 3 -44 9s-24.833 13.833 -34.5 23.5s-17.167 20.667 -22.5 33s-8 24.833 -8 37.5v275h-48v122h240v-122h-44v-251h165v251h-48v122h241
v-122h-44v-275z" />
    <glyph glyph-name="phi" unicode="&#x3c6;" horiz-adv-x="760" 
d="M497 -178h-239.998v123h48v55h-145c-17.333 0 -32.833 3 -46.5 9s-25.167 13.833 -34.5 23.5s-16.333 20.667 -21 33s-7 25.166 -7 38.499v293c0 11.333 2.5 23 7.5 35s12.167 23 21.5 33s20.666 18.333 33.999 25s28.666 10 45.999 10h82v-124h-45v-249h108v260l89 113
h206c17.333 0 32.833 -3.33301 46.5 -10s25 -15 34 -25s15.833 -21.167 20.5 -33.5s7 -24.166 7 -35.499v-292c0 -12.667 -2.5 -25.167 -7.5 -37.5s-12.167 -23.5 -21.5 -33.5s-20.833 -18 -34.5 -24s-29.167 -9 -46.5 -9h-144v-55h43v-123zM563.002 376h-109v-249h109v249z
" />
    <glyph glyph-name="chi" unicode="&#x3c7;" horiz-adv-x="564" 
d="M272 0v120h38l-65 71l-58 -71h33v-120h-209v120h47l116 140l-114 123h-43v117h277v-117h-38l64 -72l60 72h-37v117h205v-117h-39l-118 -138l115 -125h46v-120h-280z" />
    <glyph glyph-name="psi" unicode="&#x3c8;" horiz-adv-x="807" 
d="M284 501l241 0.000976562v-123h-46v-251h109v374h189v-123h-44v-274c0 -12.667 -2.5 -25.167 -7.5 -37.5s-12.167 -23.5 -21.5 -33.5s-20.833 -18 -34.5 -24s-29.167 -9 -46.5 -9h-144v-55h44v-123h-240v123h48v55h-145c-17.333 0 -32.833 3 -46.5 9
s-25.167 13.833 -34.5 23.5s-16.333 20.667 -21 33s-7 25.166 -7 38.499v274h-47v123h192v-374h109v251h-47v123z" />
    <glyph glyph-name="omega" unicode="&#x3c9;" horiz-adv-x="809" 
d="M463 0l-61 65.001l-58 -65h-185c-18 0 -33.667 3 -47 9s-24.5 13.667 -33.5 23s-15.833 20.166 -20.5 32.499s-7 25.166 -7 38.499v293c0 13.333 2.83301 26.333 8.5 39s13.334 23.834 23.001 33.501s21 17.5 34 23.5s27.167 9 42.5 9h81v-127h-42v-245h138v228h137v-228
h139v245h-43v127h82c16 0 30.5 -3 43.5 -9s24.167 -13.833 33.5 -23.5s16.5 -20.5 21.5 -32.5s7.5 -24.333 7.5 -37v-296c0 -12.667 -2.5 -25.167 -7.5 -37.5s-12.167 -23.333 -21.5 -33s-20.833 -17.5 -34.5 -23.5s-28.834 -9 -45.501 -9h-185z" />
    <glyph glyph-name="iotadieresis" unicode="&#x3ca;" horiz-adv-x="345" 
d="M244 122h51v-122h-247v122h47v257h-47v122h196v-379zM-32 636c0 21.333 7.5 39.5 22.5 54.5s33.167 22.5 54.5 22.5s39.5 -7.5 54.5 -22.5s22.5 -33.167 22.5 -54.5s-7.5 -39.5 -22.5 -54.5s-33.167 -22.5 -54.5 -22.5s-39.5 7.5 -54.5 22.5s-22.5 33.167 -22.5 54.5z
M185 636c0 21.333 7.66699 39.5 23 54.5s33.666 22.5 54.999 22.5s39.333 -7.5 54 -22.5s22 -33.167 22 -54.5s-7.33301 -39.5 -22 -54.5s-32.667 -22.5 -54 -22.5s-39.666 7.5 -54.999 22.5s-23 33.167 -23 54.5z" />
    <glyph glyph-name="upsilondieresis" unicode="&#x3cb;" horiz-adv-x="614" 
d="M540 103c0 -12.667 -3 -25.167 -9 -37.5s-14.167 -23.333 -24.5 -33s-22.333 -17.5 -36 -23.5s-28.5 -9 -44.5 -9h-239c-16 0 -30.667 3 -44 9s-24.833 13.833 -34.5 23.5s-17.167 20.667 -22.5 33s-8 24.833 -8 37.5v275h-48v122h240v-122h-44v-251h165v251h-48v122h241
v-122h-44v-275zM122 636c0 21.333 7.5 39.5 22.5 54.5s33.167 22.5 54.5 22.5s39.5 -7.5 54.5 -22.5s22.5 -33.167 22.5 -54.5s-7.5 -39.5 -22.5 -54.5s-33.167 -22.5 -54.5 -22.5s-39.5 7.5 -54.5 22.5s-22.5 33.167 -22.5 54.5zM339 636c0 21.333 7.66699 39.5 23 54.5
s33.666 22.5 54.999 22.5s39.333 -7.5 54 -22.5s22 -33.167 22 -54.5s-7.33301 -39.5 -22 -54.5s-32.667 -22.5 -54 -22.5s-39.666 7.5 -54.999 22.5s-23 33.167 -23 54.5z" />
    <glyph glyph-name="omicrontonos" unicode="&#x3cc;" horiz-adv-x="568" 
d="M517 103c0 -12 -2.99707 -24.167 -8.99707 -36.5s-14.167 -23.5 -24.5 -33.5s-22.5 -18 -36.5 -24s-29 -9 -45 -9h-241c-16 0 -30.667 3 -44 9s-25 13.833 -35 23.5s-17.667 20.667 -23 33s-8 24.833 -8 37.5v295c0 12.667 2.83301 25.167 8.5 37.5s13.5 23.333 23.5 33
s21.667 17.5 35 23.5s27.666 9 42.999 9h247c16.667 0 31.667 -3 45 -9s24.666 -13.833 33.999 -23.5s16.666 -20.667 21.999 -33s8 -24.833 8 -37.5v-295zM200.003 127h168v247h-168v-247zM220.003 583l108 201l107 -67l-136 -178z" />
    <glyph glyph-name="upsilontonos" unicode="&#x3cd;" horiz-adv-x="614" 
d="M540 103c0 -12.667 -3 -25.167 -9 -37.5s-14.167 -23.333 -24.5 -33s-22.333 -17.5 -36 -23.5s-28.5 -9 -44.5 -9h-239c-16 0 -30.667 3 -44 9s-24.833 13.833 -34.5 23.5s-17.167 20.667 -22.5 33s-8 24.833 -8 37.5v275h-48v122h240v-122h-44v-251h165v251h-48v122h241
v-122h-44v-275zM237 583l108 201l107 -67l-136 -178z" />
    <glyph glyph-name="omegatonos" unicode="&#x3ce;" horiz-adv-x="809" 
d="M463 0l-61 65.001l-58 -65h-185c-18 0 -33.667 3 -47 9s-24.5 13.667 -33.5 23s-15.833 20.166 -20.5 32.499s-7 25.166 -7 38.499v293c0 13.333 2.83301 26.333 8.5 39s13.334 23.834 23.001 33.501s21 17.5 34 23.5s27.167 9 42.5 9h81v-127h-42v-245h138v228h137v-228
h139v245h-43v127h82c16 0 30.5 -3 43.5 -9s24.167 -13.833 33.5 -23.5s16.5 -20.5 21.5 -32.5s7.5 -24.333 7.5 -37v-296c0 -12.667 -2.5 -25.167 -7.5 -37.5s-12.167 -23.333 -21.5 -33s-20.833 -17.5 -34.5 -23.5s-28.834 -9 -45.501 -9h-185zM344 583.001l108 201
l107 -67l-136 -178z" />
    <glyph glyph-name="afii10023" unicode="&#x401;" horiz-adv-x="636" 
d="M41 134h53v441h-54v133h546v-229h-135v96h-200v-140h221v-125h-221v-175h215v131h136v-266h-561v134zM135 813c0 21.333 7.83301 39.6699 23.5 55.0029s34.167 23 55.5 23c10.667 0 20.667 -2 30 -6s17.5 -9.5 24.5 -16.5s12.667 -15.333 17 -25s6.5 -19.834 6.5 -30.501
s-2.16699 -20.834 -6.5 -30.501s-10 -18 -17 -25s-15.167 -12.5 -24.5 -16.5s-19.333 -6 -30 -6c-21.333 0 -39.833 7.66699 -55.5 23s-23.5 33.666 -23.5 54.999zM356 813.004c0 21.333 7.83301 39.6699 23.5 55.0029s34.167 23 55.5 23c10.667 0 20.667 -2 30 -6
s17.5 -9.5 24.5 -16.5s12.5 -15.333 16.5 -25s6 -19.834 6 -30.501s-2 -20.834 -6 -30.501s-9.5 -18 -16.5 -25s-15.167 -12.5 -24.5 -16.5s-19.333 -6 -30 -6c-21.333 0 -39.833 7.66699 -55.5 23s-23.5 33.666 -23.5 54.999z" />
    <glyph glyph-name="afii10051" unicode="&#x402;" horiz-adv-x="848" 
d="M535 575h-133v-164h280c18 0 34.333 -3.16699 49 -9.5s27.167 -14.5 37.5 -24.5s18.333 -21.5 24 -34.5s8.5 -26.167 8.5 -39.5v-298c0 -13.333 -2.66699 -26.833 -8 -40.5s-13.333 -26 -24 -37s-23.667 -19.833 -39 -26.5s-33.333 -10 -54 -10h-96v136h65l-1 252h-242
v-147h69v-132h-295v132h68v443h-84v-85h-135v218h647v-218h-137v85z" />
    <glyph glyph-name="afii10052" unicode="&#x403;" horiz-adv-x="604" 
d="M330 0h-288v132h52v443h-53v133h546v-237h-136v104h-200v-443h79v-132zM230 805l188 129l61 -111l-204 -92z" />
    <glyph glyph-name="afii10053" unicode="&#x404;" horiz-adv-x="596" 
d="M218 435l220 -0.000976562v-124h-220v-176h209v77h136v-103c0 -13.333 -3.66699 -26.5 -11 -39.5s-16.833 -24.667 -28.5 -35s-24.667 -18.666 -39 -24.999s-28.5 -9.5 -42.5 -9.5h-265c-14.667 0 -28.834 3.16699 -42.501 9.5s-26 14.5 -37 24.5
s-19.833 21.5 -26.5 34.5s-10 26.5 -10 40.5v490c0 14 3.33301 27.5 10 40.5s15.334 24.5 26.001 34.5s23 18.167 37 24.5s28.333 9.5 43 9.5h179l69 -73v73h126v-203h-126v68h-207v-138z" />
    <glyph glyph-name="afii10054" unicode="&#x405;" horiz-adv-x="613" 
d="M168 298c-14.667 0 -28.9971 2.83301 -42.9971 8.5s-26.5 13.5 -37.5 23.5s-19.833 21.667 -26.5 35s-10 27.333 -10 42v192c0 13.333 3.16699 26.5 9.5 39.5s14.666 24.667 24.999 35s22.666 18.666 36.999 24.999s29.5 9.5 45.5 9.5h165l70 -74v74h127v-196h-127v61
h-196v-140h238c16.667 0 32.167 -2.83301 46.5 -8.5s26.666 -13.5 36.999 -23.5s18.333 -21.667 24 -35s8.5 -27.333 8.5 -42v-214c0 -15.333 -3.33301 -29.666 -10 -42.999s-15.5 -25 -26.5 -35s-23.5 -17.833 -37.5 -23.5s-28 -8.5 -42 -8.5h-195l-71 73v-73h-126v196h126
v-61h225v163h-236v0z" />
    <glyph glyph-name="afii10055" unicode="&#x406;" horiz-adv-x="431" 
d="M293 132h66v-132h-287v132h64v444h-65v132h288v-132h-66v-444z" />
    <glyph glyph-name="afii10056" unicode="&#x407;" horiz-adv-x="431" 
d="M293 132h66v-132h-287v132h64v444h-65v132h288v-132h-66v-444zM33 815c0 21.333 7.5 39.5 22.5 54.5s33.167 22.5 54.5 22.5s39.5 -7.5 54.5 -22.5s22.5 -33.167 22.5 -54.5s-7.5 -39.5 -22.5 -54.5s-33.167 -22.5 -54.5 -22.5s-39.5 7.5 -54.5 22.5
s-22.5 33.167 -22.5 54.5zM250 815c0 21.333 7.66699 39.5 23 54.5s33.666 22.5 54.999 22.5s39.333 -7.5 54 -22.5s22 -33.167 22 -54.5s-7.33301 -39.5 -22 -54.5s-32.667 -22.5 -54 -22.5s-39.666 7.5 -54.999 22.5s-23 33.167 -23 54.5z" />
    <glyph glyph-name="afii10057" unicode="&#x408;" horiz-adv-x="590" 
d="M150 226l-0.000976562 -90.999h182v440h-71v133h287v-133h-58v-466c0 -12.667 -3.16699 -25.5 -9.5 -38.5s-14.666 -24.667 -24.999 -35s-22.5 -18.833 -36.5 -25.5s-28.667 -10 -44 -10h-248c-15.333 0 -30 3.16699 -44 9.5s-26.333 14.666 -37 24.999
s-19.167 22 -25.5 35s-9.5 26.167 -9.5 39.5v117h139z" />
    <glyph glyph-name="afii10058" unicode="&#x409;" horiz-adv-x="996" 
d="M337 555h-5.00098l-137 -423h60v-132h-243v132h46l201 579h177l94 -267h307c16 0 31.167 -3.16699 45.5 -9.5s26.833 -14.666 37.5 -24.999s19.167 -22.333 25.5 -36s9.5 -27.834 9.5 -42.501v-218c0 -15.333 -2.83301 -29.833 -8.5 -43.5s-13.667 -25.667 -24 -36
s-22.666 -18.5 -36.999 -24.5s-30.5 -9 -48.5 -9h-420v132h55zM794.999 315h-220l63 -180h157v180z" />
    <glyph glyph-name="afii10059" unicode="&#x40a;" horiz-adv-x="984" 
d="M394 576l-0.000976562 132.001h260v-133h-60v-136h234c14.667 0 29.167 -2.83301 43.5 -8.5s27 -13.667 38 -24s20 -22.333 27 -36s10.5 -28.5 10.5 -44.5v-213c0 -14 -3.33301 -27.667 -10 -41s-15.667 -25.333 -27 -36s-24.166 -19.334 -38.499 -26.001
s-28.833 -10 -43.5 -10h-434v132h42v177h-187v-177h41v-132h-248v132h54v443h-55v133h250v-133h-42v-137h187v138h-42zM786.999 309.001h-193v-168h193v168z" />
    <glyph glyph-name="afii10060" unicode="&#x40b;" horiz-adv-x="898" 
d="M535 575h-133v-156h281c39.333 0 69 -10.833 89 -32.5s30 -47.5 30 -77.5v-177h59v-132h-274v132h57v155h-242v-155h63v-132h-283v132h62v443h-84v-81h-135v214h647v-214h-137v81z" />
    <glyph glyph-name="afii10061" unicode="&#x40c;" horiz-adv-x="689" 
d="M384 708h271v-134h-66l-129 -130l161 -311h51v-133h-269v133h47l-102 200l-105 -105v-96h48v-132h-255v132h49v442h-50v134h255v-134h-47v-197l193 197h-52v134zM262 805l188 129l61 -111l-204 -92z" />
    <glyph glyph-name="afii10062" unicode="&#x40e;" horiz-adv-x="669" 
d="M642 707v-131h-50l-196 -444h73v-132h-315v132h110c5.33301 11.333 10.333 22.5 15 33.5l14 33.5h-27l-193 377h-49v131h262v-131h-47l114 -231l5 -1l101 232h-51v131h234zM336 827c11.333 0 21.667 2.5 31 7.5s17.666 11.5 24.999 19.5s13.333 17.167 18 27.5
s7.66699 20.833 9 31.5h87c0 -20 -3.66699 -40.5 -11 -61.5s-18 -40.167 -32 -57.5s-31.667 -31.5 -53 -42.5s-46 -16.5 -74 -16.5s-52.667 5.5 -74 16.5s-39.166 25.167 -53.499 42.5s-25.166 36.5 -32.499 57.5s-11 41.5 -11 61.5h89
c1.33301 -10.667 4.16602 -21.167 8.49902 -31.5s10 -19.5 17 -27.5s15.333 -14.5 25 -19.5s20.167 -7.5 31.5 -7.5z" />
    <glyph glyph-name="afii10145" unicode="&#x40f;" horiz-adv-x="728" 
d="M41 708h262v-132h-55v-441h230v441h-54v132h262v-132h-54v-444h55v-132h-250v-163h-139v163h-257v132h55v444h-55v132z" />
    <glyph glyph-name="afii10017" unicode="&#x410;" horiz-adv-x="711" 
d="M458 203h-237l-24 -71h73v-132h-256v132h46l210 582h173l203 -582h47v-132h-290v132h78zM339 562l-80 -245h160l-75 245h-5z" />
    <glyph glyph-name="afii10018" unicode="&#x411;" horiz-adv-x="662" 
d="M460 310h-205v-175h205v175zM431 575h-176v-136h245c17.333 0 33.333 -3.16699 48 -9.5s27.167 -14.666 37.5 -24.999s18.5 -22.5 24.5 -36.5s9 -28.333 9 -43v-212c0 -14 -2.66699 -27.667 -8 -41s-13 -25.333 -23 -36s-22.5 -19.334 -37.5 -26.001
s-31.833 -10 -50.5 -10h-459v132h55v444h-55v132h525v-204h-135v71z" />
    <glyph glyph-name="afii10019" unicode="&#x412;" horiz-adv-x="669" 
d="M40 0l-0.000976562 132.002h54v444h-54v132h442c18 0 34.167 -3.33301 48.5 -10s26.5 -15.167 36.5 -25.5s17.5 -22 22.5 -35s7.5 -25.833 7.5 -38.5v-118c0 -22 -4.5 -40.833 -13.5 -56.5s-24.167 -27.167 -45.5 -34.5c26.667 -6.66699 45.334 -19.834 56.001 -39.501
s16 -39.5 16 -59.5v-182c0 -13.333 -2.83301 -26.333 -8.5 -39s-13.5 -24.334 -23.5 -35.001s-22 -19.167 -36 -25.5s-29.333 -9.5 -46 -9.5h-456zM250.999 135.002h198v184h-198v-184zM250.999 442.002h187v131h-187v-131z" />
    <glyph glyph-name="afii10020" unicode="&#x413;" horiz-adv-x="604" 
d="M330 0h-288v132h52v443h-53v133h546v-237h-136v104h-200v-443h79v-132z" />
    <glyph glyph-name="afii10021" unicode="&#x414;" horiz-adv-x="747" 
d="M366 550l-144 -415h275l-126 415h-5zM78 131l163 445h-52v132h285l192 -578h57l1 -273h-138v143h-428v-143h-138v274h58z" />
    <glyph glyph-name="afii10022" unicode="&#x415;" horiz-adv-x="636" 
d="M41 134h53v441h-54v133h546v-229h-135v96h-200v-140h221v-125h-221v-175h215v131h136v-266h-561v134z" />
    <glyph glyph-name="afii10024" unicode="&#x416;" horiz-adv-x="996" 
d="M781 461l140 -328h51v-133h-264v133h47l-89 214l-93 -96v-119h48v-132h-255v132h49v119l-89 92l-88 -210h47v-133h-264v133h52l137 325l-113 116h-66v134h265v-134h-52l171 -178v178h-50v134h255v-134h-47v-180l175 180h-55v134h264v-134h-66z" />
    <glyph glyph-name="afii10025" unicode="&#x417;" horiz-adv-x="568" 
d="M403 708c18.667 0 35.333 -3.16602 50 -9.49902s27 -14.5 37 -24.5s17.5 -21.5 22.5 -34.5s7.5 -26.167 7.5 -39.5v-129c0 -13.333 -4 -27.833 -12 -43.5s-23 -28.167 -45 -37.5c16.667 -5.33301 32.334 -15.666 47.001 -30.999s22 -37 22 -65v-186
c0 -12 -3.33301 -24.333 -10 -37s-15.834 -24.334 -27.501 -35.001s-25.167 -19.334 -40.5 -26.001s-31.333 -10 -48 -10h-247c-24.667 -0 -45 3.83301 -61 11.5s-28.833 17.334 -38.5 29.001s-16.5 24.667 -20.5 39s-6 28.166 -6 41.499v57h140v-43h200v178h-225v125h213
v135h-186v-42h-140v56c0 13.333 2 27.166 6 41.499s10.833 27.333 20.5 39s22.667 21.334 39 29.001s36.833 11.5 61.5 11.5h241z" />
    <glyph glyph-name="afii10026" unicode="&#x418;" horiz-adv-x="760" 
d="M252 293c5.33301 5.33301 14.166 15.333 26.499 30l43 50.5l52 60.5l52 61l43 50.5l26.5 30.5h-39v132h259v-132h-54v-444h54v-132h-262v132h55v283h-5c-5.33301 -5.33301 -14.166 -15.333 -26.499 -30l-43 -50.5l-52 -60.5l-52 -61l-43.5 -51
c-12.667 -14.667 -21.667 -24.667 -27 -30h45v-132h-263v132h55v444h-54v132h260v-132h-54v-283h4z" />
    <glyph glyph-name="afii10027" unicode="&#x419;" horiz-adv-x="760" 
d="M252 293c5.33301 5.33301 14.166 15.333 26.499 30l43 50.5l52 60.5l52 61l43 50.5l26.5 30.5h-39v132h259v-132h-54v-444h54v-132h-262v132h55v283h-5c-5.33301 -5.33301 -14.166 -15.333 -26.499 -30l-43 -50.5l-52 -60.5l-52 -61l-43.5 -51
c-12.667 -14.667 -21.667 -24.667 -27 -30h45v-132h-263v132h55v444h-54v132h260v-132h-54v-283h4zM377 827c11.333 0 21.667 2.5 31 7.5s17.666 11.5 24.999 19.5s13.333 17.167 18 27.5s7.66699 20.833 9 31.5h87c0 -20 -3.66699 -40.5 -11 -61.5s-18 -40.167 -32 -57.5
s-31.667 -31.5 -53 -42.5s-46 -16.5 -74 -16.5s-52.667 5.5 -74 16.5s-39.166 25.167 -53.499 42.5s-25.166 36.5 -32.499 57.5s-11 41.5 -11 61.5h89c1.33301 -10.667 4.16602 -21.167 8.49902 -31.5s10 -19.5 17 -27.5s15.333 -14.5 25 -19.5s20.167 -7.5 31.5 -7.5z" />
    <glyph glyph-name="afii10028" unicode="&#x41a;" horiz-adv-x="689" 
d="M384 708h271v-134h-66l-129 -130l161 -311h51v-133h-269v133h47l-102 200l-105 -105v-96h48v-132h-255v132h49v442h-50v134h255v-134h-47v-197l193 197h-52v134z" />
    <glyph glyph-name="afii10029" unicode="&#x41b;" horiz-adv-x="707" 
d="M344 560h-5l-142 -428h76v-132h-259v132h46l210 580h173l203 -580h47v-132h-287v132h75z" />
    <glyph glyph-name="afii10030" unicode="&#x41c;" horiz-adv-x="944" 
d="M481 226l161 482h261v-132h-53v-444h53v-132h-257v132h53v337h-5l-157 -469h-135l-175 472h-4v-340h53v-132h-235v132h53v444h-53v132h259l177 -482h4z" />
    <glyph glyph-name="afii10031" unicode="&#x41d;" horiz-adv-x="754" 
d="M312 132v-132h-270v132h57v444h-58v132h271v-132h-55v-150h237v150h-60v132h278v-132h-62v-444h62v-132h-278v132h60v171h-237v-171h55z" />
    <glyph glyph-name="afii10032" unicode="&#x41e;" horiz-adv-x="658" 
d="M61 599c0 13.333 3.33105 26.501 9.99805 39.501s15.334 24.667 26.001 35s23 18.666 37 24.999s28.333 9.5 43 9.5h305c14.667 0 29 -3.16699 43 -9.5s26.333 -14.666 37 -24.999s19.167 -22 25.5 -35s9.5 -26.167 9.5 -39.5v-490c0 -12.667 -3.16699 -25.5 -9.5 -38.5
s-14.666 -24.667 -24.999 -35s-22.5 -18.833 -36.5 -25.5s-28.667 -10 -44 -10h-305c-14 0 -28 3.16699 -42 9.5s-26.5 14.666 -37.5 24.999s-19.833 22 -26.5 35s-10 26.167 -10 39.5v490zM217.998 573.001v-438h222v438h-222z" />
    <glyph glyph-name="afii10033" unicode="&#x41f;" horiz-adv-x="748" 
d="M312 132v-132h-270v132h57v443h-58v133h665v-133h-62v-443h61v-132h-278v132h60v441h-230v-441h55z" />
    <glyph glyph-name="afii10034" unicode="&#x420;" horiz-adv-x="631" 
d="M95 576l-54.001 -0.000976562v132h454c17.333 0 33 -3.16699 47 -9.5s26 -14.666 36 -24.999s17.833 -22 23.5 -35s8.5 -26.167 8.5 -39.5v-216c0 -13.333 -2.66699 -26.833 -8 -40.5s-13 -26 -23 -37s-22.167 -20.167 -36.5 -27.5s-30.166 -11 -47.499 -11h-242v-135h62
v-132h-274v132h54v444zM252.999 572.999v-171h198v171h-198z" />
    <glyph glyph-name="afii10035" unicode="&#x421;" horiz-adv-x="596" 
d="M218 135h209v77h136v-103c0 -12.667 -3.66699 -25.5 -11 -38.5s-16.833 -24.667 -28.5 -35s-24.667 -18.833 -39 -25.5s-28.5 -10 -42.5 -10h-265c-14 0 -27.833 3.16699 -41.5 9.5s-26 14.5 -37 24.5s-20 21.5 -27 34.5s-10.5 26.5 -10.5 40.5v490
c0 14 3.33301 27.5 10 40.5s15.5 24.5 26.5 34.5s23.5 18.167 37.5 24.5s28 9.5 42 9.5h180l69 -73v73h126v-203h-126v68h-208v-438z" />
    <glyph glyph-name="afii10036" unicode="&#x422;" horiz-adv-x="665" 
d="M516 575h-105v-442h85v-133h-320v133h77v442h-105v-92h-137v225h642v-225h-137v92z" />
    <glyph glyph-name="afii10037" unicode="&#x423;" horiz-adv-x="669" 
d="M642 707v-131h-50l-196 -444h73v-132h-315v132h110c5.33301 11.333 10.333 22.5 15 33.5l14 33.5h-27l-193 377h-49v131h262v-131h-47l114 -231l5 -1l101 232h-51v131h234z" />
    <glyph glyph-name="afii10038" unicode="&#x424;" horiz-adv-x="895" 
d="M303 133h64.002v76h-194c-14.667 0 -28.834 3.33301 -42.501 10s-25.834 15.167 -36.501 25.5s-19.167 22.166 -25.5 35.499s-9.5 26.666 -9.5 39.999v277c0 13.333 2.83301 26.666 8.5 39.999s13.667 25.166 24 35.499s22.333 18.833 36 25.5s28.5 10 44.5 10h553
c16.667 0 32 -3.33301 46 -10s25.833 -15.167 35.5 -25.5s17.167 -22.166 22.5 -35.499s8 -26.666 8 -39.999v-276c0 -15.333 -3 -29.666 -9 -42.999s-14 -25.166 -24 -35.499s-21.833 -18.5 -35.5 -24.5s-28.167 -9 -43.5 -9h-200v-76h65v-133h-287v133zM525.002 573v-229
h155v229h-155zM215.002 344h152v229h-152v-229z" />
    <glyph glyph-name="afii10039" unicode="&#x425;" horiz-adv-x="702" 
d="M389 444l90 132h-51v132h243v-132h-52l-157 -228l163 -216h55v-132h-300v132h48l-105 144l-97 -144h52v-132h-257v132h61l166 243l-148 201h-53v132h293v-132h-49z" />
    <glyph glyph-name="afii10040" unicode="&#x426;" horiz-adv-x="728" 
d="M41 0v133h55v443h-54v132h261v-132h-50v-441h221v441h-49v132h261v-132h-54v-443h55v-275h-138v142h-508z" />
    <glyph glyph-name="afii10041" unicode="&#x427;" horiz-adv-x="723" 
d="M76 576l-54.998 0.00195312v132h265v-132h-52v-195h236v195h-56v132h267v-132h-53v-444h53v-132h-266v132h55v112h-269c-20.667 0 -38.834 3.33301 -54.501 10s-28.834 15.167 -39.501 25.5s-18.667 22.166 -24 35.499s-8 26.666 -8 39.999z" />
    <glyph glyph-name="afii10042" unicode="&#x428;" horiz-adv-x="951" 
d="M50 708h204v-573h142v441h-54v132h262v-132h-57v-441h147v573h207v-132h-55v-444h56v-132h-854v132h54v444h-52v132z" />
    <glyph glyph-name="afii10043" unicode="&#x429;" horiz-adv-x="951" 
d="M49 0v132h54v444h-52v132h203v-573h143v441h-54v132h261v-132h-56v-441h146l1 573h206l1 -132h-55v-443h56v-275h-139v142h-715z" />
    <glyph glyph-name="afii10044" unicode="&#x42a;" horiz-adv-x="832" 
d="M484 576l-55 0.00292969v-132h244c18 0 34.5 -3 49.5 -9s27.667 -14.333 38 -25s18.5 -22.834 24.5 -36.501s9 -27.834 9 -42.501v-218c0 -14 -2.66699 -27.667 -8 -41s-13.166 -25.333 -23.499 -36s-22.833 -19.334 -37.5 -26.001s-31.334 -10 -50.001 -10h-459v132h55
v443h-119v-102h-136v235h468v-132zM635 315.003h-206v-180h206v180z" />
    <glyph glyph-name="afii10045" unicode="&#x42b;" horiz-adv-x="1014" 
d="M460 315h-205v-180h205v180zM41 576l0.000976562 132.003h273v-132h-59v-132h244c18 0 34.333 -3 49 -9s27.167 -14.333 37.5 -25s18.5 -22.834 24.5 -36.501s9 -27.834 9 -42.501v-218c0 -14 -2.66699 -27.667 -8 -41s-13 -25.333 -23 -36s-22.333 -19.334 -37 -26.001
s-31.334 -10 -50.001 -10h-460v132h55v444h-55zM906.001 132.003h66v-132h-287v132h64v444h-64v132h287v-132h-66v-444z" />
    <glyph glyph-name="afii10046" unicode="&#x42c;" horiz-adv-x="667" 
d="M460 315h-205v-180h205v180zM41 576l0.000976562 132.003h273v-132h-59v-132h244c18 0 34.333 -3 49 -9s27.167 -14.333 37.5 -25s18.5 -22.834 24.5 -36.501s9 -27.834 9 -42.501v-218c0 -14 -2.66699 -27.667 -8 -41s-13 -25.333 -23 -36s-22.333 -19.334 -37 -26.001
s-31.334 -10 -50.001 -10h-460v132h55v444h-55z" />
    </font>
</defs>
</svg>
